<ttFont>
<head>
    <!-- Most of this table will be recalculated by the compiler -->
    <tableVersion value="1.0"/>
    <fontRevision value="2.2"/>
    <checkSumAdjustment value="0xaf84aa76"/>
    <magicNumber value="0x5f0f3cf5"/>
    <flags value="00000000 00000101"/>
    <unitsPerEm value="1000"/>
    <created value="Mon Jun 22 21:16:14 2020"/>
    <modified value="Mon Jun 22 22:25:32 2020"/>
    <xMin value="-213"/>
    <yMin value="-337"/>
    <xMax value="1433"/>
    <yMax value="1107"/>
    <macStyle value="00000000 00000010"/>
    <lowestRecPPEM value="9"/>
    <fontDirectionHint value="2"/>
    <indexToLocFormat value="0"/>
    <glyphDataFormat value="0"/>
  </head>
    <TTGlyph name=".notdef" xMin="0" yMin="-200" xMax="500" yMax="800">
      <contour>
        <pt x="0" y="-200" on="1"/>
        <pt x="0" y="800" on="1"/>
        <pt x="500" y="800" on="1"/>
        <pt x="500" y="-200" on="1"/>
      </contour>
      <contour>
        <pt x="250" y="360" on="1"/>
        <pt x="429" y="750" on="1"/>
        <pt x="71" y="750" on="1"/>
      </contour>
      <contour>
        <pt x="50" y="-76" on="1"/>
        <pt x="222" y="300" on="1"/>
        <pt x="50" y="676" on="1"/>
      </contour>
      <contour>
        <pt x="450" y="-76" on="1"/>
        <pt x="450" y="676" on="1"/>
        <pt x="278" y="300" on="1"/>
      </contour>
      <contour>
        <pt x="71" y="-150" on="1"/>
        <pt x="429" y="-150" on="1"/>
        <pt x="250" y="240" on="1"/>
      </contour>
    </TTGlyph>
    <TTGlyph name="A" xMin="-59" yMin="0" xMax="655" yMax="662">
      <contour>
        <pt x="-59" y="0" on="1"/>
        <pt x="-40" y="75" on="1"/>
        <pt x="29" y="75" on="1"/>
        <pt x="384" y="662" on="1"/>
        <pt x="507" y="662" on="1"/>
        <pt x="567" y="75" on="1"/>
        <pt x="655" y="75" on="1"/>
        <pt x="636" y="0" on="1"/>
        <pt x="327" y="0" on="1"/>
        <pt x="346" y="75" on="1"/>
        <pt x="440" y="75" on="1"/>
        <pt x="428" y="222" on="1"/>
        <pt x="207" y="222" on="1"/>
        <pt x="121" y="75" on="1"/>
        <pt x="204" y="75" on="1"/>
        <pt x="186" y="0" on="1"/>
      </contour>
      <contour>
        <pt x="245" y="289" on="1"/>
        <pt x="423" y="289" on="1"/>
        <pt x="402" y="553" on="1"/>
        <pt x="398" y="553" on="1"/>
      </contour>
    </TTGlyph>
    <TTGlyph name="AE" xMin="-74" yMin="0" xMax="1057" yMax="658">
      <contour>
        <pt x="-74" y="0" on="1"/>
        <pt x="-56" y="75" on="1"/>
        <pt x="15" y="75" on="1"/>
        <pt x="457" y="583" on="1"/>
        <pt x="362" y="583" on="1"/>
        <pt x="379" y="658" on="1"/>
        <pt x="1057" y="658" on="1"/>
        <pt x="1002" y="435" on="1"/>
        <pt x="942" y="435" on="1"/>
        <pt x="940" y="526" on="0"/>
        <pt x="909" y="584" on="0"/>
        <pt x="848" y="584" on="1"/>
        <pt x="683" y="584" on="1"/>
        <pt x="630" y="370" on="1"/>
        <pt x="676" y="370" on="1"/>
        <pt x="701" y="370" on="0"/>
        <pt x="733" y="376" on="0"/>
        <pt x="757" y="396" on="0"/>
        <pt x="779" y="435" on="0"/>
        <pt x="793" y="467" on="1"/>
        <pt x="858" y="467" on="1"/>
        <pt x="792" y="203" on="1"/>
        <pt x="730" y="203" on="1"/>
        <pt x="736" y="268" on="0"/>
        <pt x="714" y="303" on="0"/>
        <pt x="666" y="303" on="1"/>
        <pt x="613" y="303" on="1"/>
        <pt x="556" y="74" on="1"/>
        <pt x="723" y="74" on="1"/>
        <pt x="757" y="74" on="0"/>
        <pt x="802" y="89" on="0"/>
        <pt x="838" y="127" on="0"/>
        <pt x="873" y="194" on="0"/>
        <pt x="898" y="245" on="1"/>
        <pt x="964" y="245" on="1"/>
        <pt x="903" y="0" on="1"/>
        <pt x="312" y="0" on="1"/>
        <pt x="330" y="75" on="1"/>
        <pt x="430" y="75" on="1"/>
        <pt x="470" y="232" on="1"/>
        <pt x="252" y="232" on="1"/>
        <pt x="119" y="74" on="1"/>
        <pt x="202" y="74" on="1"/>
        <pt x="184" y="0" on="1"/>
      </contour>
      <contour>
        <pt x="308" y="299" on="1"/>
        <pt x="486" y="299" on="1"/>
        <pt x="558" y="585" on="1"/>
        <pt x="549" y="585" on="1"/>
      </contour>
    </TTGlyph>
    <TTGlyph name="AEacute" xMin="-74" yMin="0" xMax="1057" yMax="942">
      <component glyphName="AE" x="0" y="0" flags="0x204"/>
      <component glyphName="acute" x="512" y="202" flags="0x4"/>
    </TTGlyph>
    <TTGlyph name="Aacute" xMin="-59" yMin="0" xMax="655" yMax="942">
      <component glyphName="A" x="0" y="0" flags="0x204"/>
      <component glyphName="acute" x="285" y="202" flags="0x4"/>
    </TTGlyph>
    <TTGlyph name="Abreve" xMin="-59" yMin="0" xMax="655" yMax="907">
      <component glyphName="A" x="0" y="0" flags="0x204"/>
      <component glyphName="breve" x="197" y="202" flags="0x4"/>
    </TTGlyph>
    <TTGlyph name="Acircumflex" xMin="-59" yMin="0" xMax="655" yMax="926">
      <component glyphName="A" x="0" y="0" flags="0x204"/>
      <component glyphName="circumflex" x="214" y="202" flags="0x4"/>
    </TTGlyph>
    <TTGlyph name="Adieresis" xMin="-59" yMin="0" xMax="655" yMax="889">
      <component glyphName="A" x="0" y="0" flags="0x204"/>
      <component glyphName="dieresis" x="208" y="202" flags="0x4"/>
    </TTGlyph>
    <TTGlyph name="Agrave" xMin="-59" yMin="0" xMax="655" yMax="941">
      <component glyphName="A" x="0" y="0" flags="0x204"/>
      <component glyphName="grave" x="205" y="202" flags="0x4"/>
    </TTGlyph>
    <TTGlyph name="Amacron" xMin="-59" yMin="0" xMax="655" yMax="832">
      <component glyphName="A" x="0" y="0" flags="0x204"/>
      <component glyphName="macron" x="213" y="202" flags="0x4"/>
    </TTGlyph>
    <TTGlyph name="Aogonek" xMin="-59" yMin="-246" xMax="655" yMax="662">
      <contour>
        <pt x="-59" y="0" on="1"/>
        <pt x="-40" y="75" on="1"/>
        <pt x="29" y="75" on="1"/>
        <pt x="384" y="662" on="1"/>
        <pt x="507" y="662" on="1"/>
        <pt x="567" y="75" on="1"/>
        <pt x="655" y="75" on="1"/>
        <pt x="636" y="0" on="1"/>
        <pt x="546" y="0" on="1"/>
        <pt x="540" y="-4" on="1"/>
        <pt x="469" y="-59" on="0"/>
        <pt x="426" y="-117" on="0"/>
        <pt x="426" y="-141" on="1"/>
        <pt x="426" y="-157" on="0"/>
        <pt x="449" y="-185" on="0"/>
        <pt x="477" y="-185" on="1"/>
        <pt x="492" y="-185" on="0"/>
        <pt x="523" y="-174" on="0"/>
        <pt x="537" y="-165" on="1"/>
        <pt x="557" y="-209" on="1"/>
        <pt x="534" y="-225" on="0"/>
        <pt x="477" y="-246" on="0"/>
        <pt x="446" y="-246" on="1"/>
        <pt x="399" y="-246" on="0"/>
        <pt x="334" y="-200" on="0"/>
        <pt x="334" y="-156" on="1"/>
        <pt x="334" y="-114" on="0"/>
        <pt x="400" y="-44" on="0"/>
        <pt x="472" y="0" on="1"/>
        <pt x="327" y="0" on="1"/>
        <pt x="346" y="75" on="1"/>
        <pt x="440" y="75" on="1"/>
        <pt x="428" y="222" on="1"/>
        <pt x="207" y="222" on="1"/>
        <pt x="121" y="75" on="1"/>
        <pt x="204" y="75" on="1"/>
        <pt x="186" y="0" on="1"/>
      </contour>
      <contour>
        <pt x="245" y="289" on="1"/>
        <pt x="423" y="289" on="1"/>
        <pt x="402" y="553" on="1"/>
        <pt x="398" y="553" on="1"/>
      </contour>
    </TTGlyph>
    <TTGlyph name="Aring" xMin="-59" yMin="0" xMax="655" yMax="860">
      <contour>
        <pt x="-59" y="0" on="1"/>
        <pt x="-40" y="75" on="1"/>
        <pt x="29" y="75" on="1"/>
        <pt x="386" y="664" on="1"/>
        <pt x="368" y="677" on="0"/>
        <pt x="350" y="717" on="0"/>
        <pt x="350" y="739" on="1"/>
        <pt x="350" y="788" on="0"/>
        <pt x="418" y="860" on="0"/>
        <pt x="472" y="860" on="1"/>
        <pt x="522" y="860" on="0"/>
        <pt x="576" y="803" on="0"/>
        <pt x="576" y="766" on="1"/>
        <pt x="576" y="730" on="0"/>
        <pt x="539" y="671" on="0"/>
        <pt x="508" y="656" on="1"/>
        <pt x="567" y="75" on="1"/>
        <pt x="655" y="75" on="1"/>
        <pt x="636" y="0" on="1"/>
        <pt x="327" y="0" on="1"/>
        <pt x="346" y="75" on="1"/>
        <pt x="440" y="75" on="1"/>
        <pt x="428" y="222" on="1"/>
        <pt x="207" y="222" on="1"/>
        <pt x="121" y="75" on="1"/>
        <pt x="204" y="75" on="1"/>
        <pt x="186" y="0" on="1"/>
      </contour>
      <contour>
        <pt x="457" y="686" on="1"/>
        <pt x="486" y="686" on="0"/>
        <pt x="516" y="741" on="0"/>
        <pt x="516" y="768" on="1"/>
        <pt x="516" y="790" on="0"/>
        <pt x="491" y="818" on="0"/>
        <pt x="469" y="818" on="1"/>
        <pt x="439" y="818" on="0"/>
        <pt x="409" y="763" on="0"/>
        <pt x="409" y="737" on="1"/>
        <pt x="409" y="715" on="0"/>
        <pt x="434" y="686" on="0"/>
      </contour>
      <contour>
        <pt x="245" y="289" on="1"/>
        <pt x="423" y="289" on="1"/>
        <pt x="402" y="553" on="1"/>
        <pt x="398" y="553" on="1"/>
      </contour>
    </TTGlyph>
    <TTGlyph name="Aringacute" xMin="-59" yMin="0" xMax="669" yMax="1107">
      <component glyphName="Aring" x="0" y="0" flags="0x204"/>
      <component glyphName="acute" x="331" y="367" flags="0x4"/>
    </TTGlyph>
    <TTGlyph name="Atilde" xMin="-59" yMin="0" xMax="666" yMax="884">
      <component glyphName="A" x="0" y="0" flags="0x204"/>
      <component glyphName="tilde" x="202" y="202" flags="0x4"/>
    </TTGlyph>
    <TTGlyph name="B" xMin="-26" yMin="0" xMax="650" yMax="658">
      <contour>
        <pt x="-26" y="0" on="1"/>
        <pt x="-9" y="75" on="1"/>
        <pt x="92" y="75" on="1"/>
        <pt x="219" y="583" on="1"/>
        <pt x="116" y="583" on="1"/>
        <pt x="135" y="658" on="1"/>
        <pt x="424" y="658" on="1"/>
        <pt x="490" y="658" on="0"/>
        <pt x="577" y="634" on="0"/>
        <pt x="629" y="595" on="0"/>
        <pt x="650" y="544" on="0"/>
        <pt x="650" y="518" on="1"/>
        <pt x="650" y="490" on="0"/>
        <pt x="628" y="433" on="0"/>
        <pt x="580" y="385" on="0"/>
        <pt x="499" y="351" on="0"/>
        <pt x="441" y="346" on="1"/>
        <pt x="440" y="341" on="1"/>
        <pt x="521" y="328" on="0"/>
        <pt x="600" y="251" on="0"/>
        <pt x="600" y="198" on="1"/>
        <pt x="600" y="162" on="0"/>
        <pt x="573" y="100" on="0"/>
        <pt x="551" y="78" on="1"/>
        <pt x="514" y="41" on="0"/>
        <pt x="386" y="0" on="0"/>
        <pt x="284" y="0" on="1"/>
      </contour>
      <contour>
        <pt x="293" y="379" on="1"/>
        <pt x="368" y="379" on="1"/>
        <pt x="410" y="379" on="0"/>
        <pt x="469" y="403" on="0"/>
        <pt x="505" y="440" on="0"/>
        <pt x="521" y="484" on="0"/>
        <pt x="521" y="504" on="1"/>
        <pt x="521" y="541" on="0"/>
        <pt x="472" y="583" on="0"/>
        <pt x="409" y="583" on="1"/>
        <pt x="344" y="583" on="1"/>
      </contour>
      <contour>
        <pt x="218" y="75" on="1"/>
        <pt x="296" y="75" on="1"/>
        <pt x="395" y="75" on="0"/>
        <pt x="474" y="158" on="0"/>
        <pt x="474" y="214" on="1"/>
        <pt x="474" y="256" on="0"/>
        <pt x="411" y="310" on="0"/>
        <pt x="336" y="310" on="1"/>
        <pt x="276" y="310" on="1"/>
      </contour>
    </TTGlyph>
    <TTGlyph name="C" xMin="62" yMin="-16" xMax="727" yMax="674">
      <contour>
        <pt x="337" y="-16" on="1"/>
        <pt x="268" y="-16" on="0"/>
        <pt x="165" y="26" on="0"/>
        <pt x="96" y="100" on="0"/>
        <pt x="62" y="203" on="0"/>
        <pt x="62" y="263" on="1"/>
        <pt x="62" y="338" on="0"/>
        <pt x="115" y="486" on="0"/>
        <pt x="212" y="602" on="0"/>
        <pt x="348" y="674" on="0"/>
        <pt x="430" y="674" on="1"/>
        <pt x="492" y="674" on="0"/>
        <pt x="584" y="631" on="0"/>
        <pt x="610" y="593" on="1"/>
        <pt x="650" y="671" on="1"/>
        <pt x="727" y="671" on="1"/>
        <pt x="663" y="412" on="1"/>
        <pt x="588" y="412" on="1"/>
        <pt x="581" y="519" on="0"/>
        <pt x="494" y="601" on="0"/>
        <pt x="434" y="601" on="1"/>
        <pt x="368" y="601" on="0"/>
        <pt x="277" y="523" on="0"/>
        <pt x="221" y="414" on="0"/>
        <pt x="196" y="294" on="0"/>
        <pt x="196" y="253" on="1"/>
        <pt x="196" y="154" on="0"/>
        <pt x="286" y="64" on="0"/>
        <pt x="351" y="64" on="1"/>
        <pt x="430" y="64" on="0"/>
        <pt x="532" y="174" on="0"/>
        <pt x="569" y="262" on="1"/>
        <pt x="640" y="237" on="1"/>
        <pt x="621" y="185" on="0"/>
        <pt x="567" y="92" on="0"/>
        <pt x="493" y="24" on="0"/>
        <pt x="397" y="-16" on="0"/>
      </contour>
    </TTGlyph>
    <TTGlyph name="Cacute" xMin="62" yMin="-16" xMax="727" yMax="942">
      <component glyphName="C" x="0" y="0" flags="0x204"/>
      <component glyphName="acute" x="285" y="202" flags="0x4"/>
    </TTGlyph>
    <TTGlyph name="Ccaron" xMin="62" yMin="-16" xMax="727" yMax="932">
      <component glyphName="C" x="0" y="0" flags="0x204"/>
      <component glyphName="caron" x="215" y="202" flags="0x4"/>
    </TTGlyph>
    <TTGlyph name="Ccedilla" xMin="62" yMin="-246" xMax="727" yMax="674">
      <contour>
        <pt x="253" y="-246" on="1"/>
        <pt x="223" y="-246" on="0"/>
        <pt x="157" y="-224" on="0"/>
        <pt x="132" y="-204" on="1"/>
        <pt x="163" y="-164" on="1"/>
        <pt x="182" y="-177" on="0"/>
        <pt x="221" y="-192" on="0"/>
        <pt x="246" y="-192" on="1"/>
        <pt x="266" y="-192" on="0"/>
        <pt x="292" y="-172" on="0"/>
        <pt x="292" y="-156" on="1"/>
        <pt x="292" y="-134" on="0"/>
        <pt x="241" y="-115" on="0"/>
        <pt x="204" y="-118" on="1"/>
        <pt x="191" y="-87" on="1"/>
        <pt x="283" y="-12" on="1"/>
        <pt x="173" y="4" on="0"/>
        <pt x="62" y="155" on="0"/>
        <pt x="62" y="263" on="1"/>
        <pt x="62" y="338" on="0"/>
        <pt x="115" y="486" on="0"/>
        <pt x="212" y="602" on="0"/>
        <pt x="348" y="674" on="0"/>
        <pt x="430" y="674" on="1"/>
        <pt x="492" y="674" on="0"/>
        <pt x="584" y="631" on="0"/>
        <pt x="610" y="593" on="1"/>
        <pt x="650" y="671" on="1"/>
        <pt x="727" y="671" on="1"/>
        <pt x="663" y="412" on="1"/>
        <pt x="588" y="412" on="1"/>
        <pt x="581" y="519" on="0"/>
        <pt x="494" y="601" on="0"/>
        <pt x="434" y="601" on="1"/>
        <pt x="368" y="601" on="0"/>
        <pt x="277" y="523" on="0"/>
        <pt x="221" y="414" on="0"/>
        <pt x="196" y="294" on="0"/>
        <pt x="196" y="253" on="1"/>
        <pt x="196" y="154" on="0"/>
        <pt x="286" y="64" on="0"/>
        <pt x="351" y="64" on="1"/>
        <pt x="430" y="64" on="0"/>
        <pt x="532" y="174" on="0"/>
        <pt x="569" y="262" on="1"/>
        <pt x="640" y="237" on="1"/>
        <pt x="622" y="186" on="0"/>
        <pt x="569" y="95" on="0"/>
        <pt x="497" y="27" on="0"/>
        <pt x="404" y="-14" on="0"/>
        <pt x="347" y="-16" on="1"/>
        <pt x="292" y="-63" on="1"/>
        <pt x="292" y="-67" on="1"/>
        <pt x="329" y="-74" on="0"/>
        <pt x="377" y="-115" on="0"/>
        <pt x="377" y="-148" on="1"/>
        <pt x="377" y="-186" on="0"/>
        <pt x="315" y="-246" on="0"/>
      </contour>
    </TTGlyph>
    <TTGlyph name="Cdotaccent" xMin="62" yMin="-16" xMax="727" yMax="881">
      <component glyphName="C" x="0" y="0" flags="0x204"/>
      <component glyphName="dotaccent" x="282" y="202" flags="0x4"/>
    </TTGlyph>
    <TTGlyph name="D" xMin="-26" yMin="0" xMax="718" yMax="658">
      <contour>
        <pt x="-26" y="0" on="1"/>
        <pt x="-9" y="75" on="1"/>
        <pt x="92" y="75" on="1"/>
        <pt x="219" y="583" on="1"/>
        <pt x="116" y="583" on="1"/>
        <pt x="135" y="658" on="1"/>
        <pt x="400" y="658" on="1"/>
        <pt x="478" y="658" on="0"/>
        <pt x="597" y="619" on="0"/>
        <pt x="677" y="551" on="0"/>
        <pt x="718" y="456" on="0"/>
        <pt x="718" y="401" on="1"/>
        <pt x="718" y="329" on="0"/>
        <pt x="659" y="179" on="0"/>
        <pt x="602" y="122" on="1"/>
        <pt x="546" y="65" on="0"/>
        <pt x="376" y="0" on="0"/>
        <pt x="263" y="0" on="1"/>
      </contour>
      <contour>
        <pt x="218" y="74" on="1"/>
        <pt x="274" y="74" on="1"/>
        <pt x="342" y="74" on="0"/>
        <pt x="440" y="106" on="0"/>
        <pt x="478" y="145" on="1"/>
        <pt x="500" y="167" on="0"/>
        <pt x="538" y="233" on="0"/>
        <pt x="565" y="308" on="0"/>
        <pt x="580" y="387" on="0"/>
        <pt x="580" y="423" on="1"/>
        <pt x="580" y="502" on="0"/>
        <pt x="489" y="584" on="0"/>
        <pt x="399" y="584" on="1"/>
        <pt x="345" y="584" on="1"/>
      </contour>
    </TTGlyph>
    <TTGlyph name="Dcaron" xMin="-26" yMin="0" xMax="718" yMax="932">
      <component glyphName="D" x="0" y="0" flags="0x204"/>
      <component glyphName="caron" x="233" y="202" flags="0x4"/>
    </TTGlyph>
    <TTGlyph name="Dcroat" xMin="-26" yMin="0" xMax="718" yMax="658">
      <component glyphName="Eth" x="0" y="0" flags="0x204"/>
    </TTGlyph>
    <TTGlyph name="E" xMin="-26" yMin="0" xMax="719" yMax="658">
      <contour>
        <pt x="-26" y="0" on="1"/>
        <pt x="-9" y="75" on="1"/>
        <pt x="92" y="75" on="1"/>
        <pt x="219" y="583" on="1"/>
        <pt x="116" y="583" on="1"/>
        <pt x="135" y="658" on="1"/>
        <pt x="719" y="658" on="1"/>
        <pt x="664" y="435" on="1"/>
        <pt x="604" y="435" on="1"/>
        <pt x="602" y="526" on="0"/>
        <pt x="571" y="584" on="0"/>
        <pt x="510" y="584" on="1"/>
        <pt x="345" y="584" on="1"/>
        <pt x="292" y="370" on="1"/>
        <pt x="338" y="370" on="1"/>
        <pt x="363" y="370" on="0"/>
        <pt x="395" y="376" on="0"/>
        <pt x="419" y="396" on="0"/>
        <pt x="441" y="435" on="0"/>
        <pt x="455" y="467" on="1"/>
        <pt x="520" y="467" on="1"/>
        <pt x="454" y="203" on="1"/>
        <pt x="391" y="203" on="1"/>
        <pt x="398" y="268" on="0"/>
        <pt x="376" y="303" on="0"/>
        <pt x="328" y="303" on="1"/>
        <pt x="275" y="303" on="1"/>
        <pt x="218" y="74" on="1"/>
        <pt x="385" y="74" on="1"/>
        <pt x="419" y="74" on="0"/>
        <pt x="464" y="89" on="0"/>
        <pt x="499" y="127" on="0"/>
        <pt x="534" y="194" on="0"/>
        <pt x="559" y="245" on="1"/>
        <pt x="625" y="245" on="1"/>
        <pt x="564" y="0" on="1"/>
      </contour>
    </TTGlyph>
    <TTGlyph name="Eacute" xMin="-26" yMin="0" xMax="719" yMax="942">
      <component glyphName="E" x="0" y="0" flags="0x204"/>
      <component glyphName="acute" x="291" y="202" flags="0x4"/>
    </TTGlyph>
    <TTGlyph name="Ebreve" xMin="-26" yMin="0" xMax="719" yMax="907">
      <component glyphName="E" x="0" y="0" flags="0x204"/>
      <component glyphName="breve" x="204" y="202" flags="0x4"/>
    </TTGlyph>
    <TTGlyph name="Ecaron" xMin="-26" yMin="0" xMax="719" yMax="932">
      <component glyphName="E" x="0" y="0" flags="0x204"/>
      <component glyphName="caron" x="220" y="202" flags="0x4"/>
    </TTGlyph>
    <TTGlyph name="Ecircumflex" xMin="-26" yMin="0" xMax="719" yMax="926">
      <component glyphName="E" x="0" y="0" flags="0x204"/>
      <component glyphName="circumflex" x="221" y="202" flags="0x4"/>
    </TTGlyph>
    <TTGlyph name="Edieresis" xMin="-26" yMin="0" xMax="719" yMax="889">
      <component glyphName="E" x="0" y="0" flags="0x204"/>
      <component glyphName="dieresis" x="214" y="202" flags="0x4"/>
    </TTGlyph>
    <TTGlyph name="Edotaccent" xMin="-26" yMin="0" xMax="719" yMax="881">
      <component glyphName="E" x="0" y="0" flags="0x204"/>
      <component glyphName="dotaccent" x="287" y="202" flags="0x4"/>
    </TTGlyph>
    <TTGlyph name="Egrave" xMin="-26" yMin="0" xMax="719" yMax="941">
      <component glyphName="E" x="0" y="0" flags="0x204"/>
      <component glyphName="grave" x="211" y="202" flags="0x4"/>
    </TTGlyph>
    <TTGlyph name="Emacron" xMin="-26" yMin="0" xMax="719" yMax="832">
      <component glyphName="E" x="0" y="0" flags="0x204"/>
      <component glyphName="macron" x="219" y="202" flags="0x4"/>
    </TTGlyph>
    <TTGlyph name="Eogonek" xMin="-26" yMin="-246" xMax="719" yMax="658">
      <contour>
        <pt x="-26" y="0" on="1"/>
        <pt x="-9" y="75" on="1"/>
        <pt x="92" y="75" on="1"/>
        <pt x="219" y="583" on="1"/>
        <pt x="116" y="583" on="1"/>
        <pt x="135" y="658" on="1"/>
        <pt x="719" y="658" on="1"/>
        <pt x="664" y="435" on="1"/>
        <pt x="604" y="435" on="1"/>
        <pt x="602" y="526" on="0"/>
        <pt x="571" y="584" on="0"/>
        <pt x="510" y="584" on="1"/>
        <pt x="345" y="584" on="1"/>
        <pt x="292" y="370" on="1"/>
        <pt x="338" y="370" on="1"/>
        <pt x="363" y="370" on="0"/>
        <pt x="395" y="376" on="0"/>
        <pt x="419" y="396" on="0"/>
        <pt x="441" y="435" on="0"/>
        <pt x="455" y="467" on="1"/>
        <pt x="520" y="467" on="1"/>
        <pt x="454" y="203" on="1"/>
        <pt x="391" y="203" on="1"/>
        <pt x="398" y="268" on="0"/>
        <pt x="376" y="303" on="0"/>
        <pt x="328" y="303" on="1"/>
        <pt x="275" y="303" on="1"/>
        <pt x="218" y="74" on="1"/>
        <pt x="385" y="74" on="1"/>
        <pt x="419" y="74" on="0"/>
        <pt x="464" y="89" on="0"/>
        <pt x="499" y="127" on="0"/>
        <pt x="534" y="194" on="0"/>
        <pt x="559" y="245" on="1"/>
        <pt x="625" y="245" on="1"/>
        <pt x="564" y="0" on="1"/>
        <pt x="512" y="0" on="1"/>
        <pt x="506" y="-4" on="1"/>
        <pt x="435" y="-59" on="0"/>
        <pt x="392" y="-117" on="0"/>
        <pt x="392" y="-141" on="1"/>
        <pt x="392" y="-157" on="0"/>
        <pt x="415" y="-185" on="0"/>
        <pt x="443" y="-185" on="1"/>
        <pt x="458" y="-185" on="0"/>
        <pt x="489" y="-174" on="0"/>
        <pt x="503" y="-165" on="1"/>
        <pt x="523" y="-209" on="1"/>
        <pt x="500" y="-225" on="0"/>
        <pt x="443" y="-246" on="0"/>
        <pt x="412" y="-246" on="1"/>
        <pt x="365" y="-246" on="0"/>
        <pt x="300" y="-200" on="0"/>
        <pt x="300" y="-156" on="1"/>
        <pt x="300" y="-114" on="0"/>
        <pt x="366" y="-44" on="0"/>
        <pt x="438" y="0" on="1"/>
      </contour>
    </TTGlyph>
    <TTGlyph name="Eth" xMin="-26" yMin="0" xMax="718" yMax="658">
      <contour>
        <pt x="-26" y="0" on="1"/>
        <pt x="-9" y="75" on="1"/>
        <pt x="92" y="75" on="1"/>
        <pt x="150" y="306" on="1"/>
        <pt x="48" y="306" on="1"/>
        <pt x="67" y="381" on="1"/>
        <pt x="169" y="381" on="1"/>
        <pt x="219" y="583" on="1"/>
        <pt x="116" y="583" on="1"/>
        <pt x="135" y="658" on="1"/>
        <pt x="400" y="658" on="1"/>
        <pt x="478" y="658" on="0"/>
        <pt x="597" y="619" on="0"/>
        <pt x="677" y="551" on="0"/>
        <pt x="718" y="456" on="0"/>
        <pt x="718" y="401" on="1"/>
        <pt x="718" y="329" on="0"/>
        <pt x="659" y="179" on="0"/>
        <pt x="602" y="122" on="1"/>
        <pt x="546" y="65" on="0"/>
        <pt x="376" y="0" on="0"/>
        <pt x="263" y="0" on="1"/>
      </contour>
      <contour>
        <pt x="218" y="74" on="1"/>
        <pt x="274" y="74" on="1"/>
        <pt x="342" y="74" on="0"/>
        <pt x="440" y="106" on="0"/>
        <pt x="478" y="145" on="1"/>
        <pt x="500" y="167" on="0"/>
        <pt x="538" y="233" on="0"/>
        <pt x="565" y="308" on="0"/>
        <pt x="580" y="387" on="0"/>
        <pt x="580" y="423" on="1"/>
        <pt x="580" y="502" on="0"/>
        <pt x="489" y="584" on="0"/>
        <pt x="399" y="584" on="1"/>
        <pt x="345" y="584" on="1"/>
        <pt x="294" y="381" on="1"/>
        <pt x="421" y="381" on="1"/>
        <pt x="403" y="306" on="1"/>
        <pt x="276" y="306" on="1"/>
      </contour>
    </TTGlyph>
    <TTGlyph name="Euro" xMin="20" yMin="-16" xMax="668" yMax="650">
      <contour>
        <pt x="20" y="208" on="1"/>
        <pt x="36" y="274" on="1"/>
        <pt x="120" y="274" on="1"/>
        <pt x="121" y="293" on="0"/>
        <pt x="128" y="330" on="0"/>
        <pt x="132" y="347" on="1"/>
        <pt x="54" y="347" on="1"/>
        <pt x="70" y="413" on="1"/>
        <pt x="153" y="413" on="1"/>
        <pt x="175" y="466" on="0"/>
        <pt x="242" y="554" on="0"/>
        <pt x="324" y="616" on="0"/>
        <pt x="421" y="650" on="0"/>
        <pt x="472" y="650" on="1"/>
        <pt x="521" y="650" on="0"/>
        <pt x="595" y="624" on="0"/>
        <pt x="643" y="581" on="0"/>
        <pt x="668" y="527" on="0"/>
        <pt x="668" y="499" on="1"/>
        <pt x="668" y="462" on="0"/>
        <pt x="624" y="405" on="0"/>
        <pt x="589" y="405" on="1"/>
        <pt x="559" y="405" on="0"/>
        <pt x="524" y="441" on="0"/>
        <pt x="524" y="469" on="1"/>
        <pt x="524" y="495" on="0"/>
        <pt x="550" y="535" on="0"/>
        <pt x="568" y="545" on="1"/>
        <pt x="557" y="561" on="0"/>
        <pt x="511" y="582" on="0"/>
        <pt x="478" y="582" on="1"/>
        <pt x="440" y="582" on="0"/>
        <pt x="377" y="555" on="0"/>
        <pt x="328" y="508" on="0"/>
        <pt x="290" y="446" on="0"/>
        <pt x="277" y="412" on="1"/>
        <pt x="460" y="412" on="1"/>
        <pt x="443" y="347" on="1"/>
        <pt x="258" y="347" on="1"/>
        <pt x="254" y="328" on="0"/>
        <pt x="248" y="292" on="0"/>
        <pt x="247" y="274" on="1"/>
        <pt x="426" y="274" on="1"/>
        <pt x="409" y="208" on="1"/>
        <pt x="247" y="208" on="1"/>
        <pt x="254" y="131" on="0"/>
        <pt x="330" y="67" on="0"/>
        <pt x="379" y="67" on="1"/>
        <pt x="430" y="67" on="0"/>
        <pt x="513" y="133" on="0"/>
        <pt x="547" y="203" on="1"/>
        <pt x="606" y="173" on="1"/>
        <pt x="574" y="93" on="0"/>
        <pt x="447" y="-16" on="0"/>
        <pt x="354" y="-16" on="1"/>
        <pt x="259" y="-16" on="0"/>
        <pt x="128" y="96" on="0"/>
        <pt x="120" y="208" on="1"/>
      </contour>
    </TTGlyph>
    <TTGlyph name="Euro.osf" xMin="9" yMin="-16" xMax="642" yMax="571">
      <contour>
        <pt x="9" y="176" on="1"/>
        <pt x="25" y="240" on="1"/>
        <pt x="108" y="240" on="1"/>
        <pt x="109" y="256" on="0"/>
        <pt x="114" y="288" on="0"/>
        <pt x="118" y="304" on="1"/>
        <pt x="40" y="304" on="1"/>
        <pt x="55" y="368" on="1"/>
        <pt x="140" y="368" on="1"/>
        <pt x="182" y="458" on="0"/>
        <pt x="347" y="571" on="0"/>
        <pt x="445" y="571" on="1"/>
        <pt x="493" y="571" on="0"/>
        <pt x="567" y="546" on="0"/>
        <pt x="617" y="505" on="0"/>
        <pt x="642" y="452" on="0"/>
        <pt x="642" y="425" on="1"/>
        <pt x="642" y="391" on="0"/>
        <pt x="597" y="333" on="0"/>
        <pt x="561" y="333" on="1"/>
        <pt x="530" y="333" on="0"/>
        <pt x="496" y="369" on="0"/>
        <pt x="496" y="395" on="1"/>
        <pt x="496" y="421" on="0"/>
        <pt x="524" y="459" on="0"/>
        <pt x="542" y="469" on="1"/>
        <pt x="531" y="484" on="0"/>
        <pt x="484" y="504" on="0"/>
        <pt x="451" y="504" on="1"/>
        <pt x="381" y="504" on="0"/>
        <pt x="289" y="422" on="0"/>
        <pt x="264" y="367" on="1"/>
        <pt x="440" y="367" on="1"/>
        <pt x="424" y="304" on="1"/>
        <pt x="243" y="304" on="1"/>
        <pt x="239" y="288" on="0"/>
        <pt x="235" y="255" on="0"/>
        <pt x="234" y="240" on="1"/>
        <pt x="409" y="240" on="1"/>
        <pt x="393" y="177" on="1"/>
        <pt x="237" y="177" on="1"/>
        <pt x="247" y="117" on="0"/>
        <pt x="321" y="66" on="0"/>
        <pt x="365" y="66" on="1"/>
        <pt x="416" y="66" on="0"/>
        <pt x="502" y="130" on="0"/>
        <pt x="536" y="195" on="1"/>
        <pt x="595" y="165" on="1"/>
        <pt x="579" y="128" on="0"/>
        <pt x="531" y="61" on="0"/>
        <pt x="468" y="13" on="0"/>
        <pt x="388" y="-16" on="0"/>
        <pt x="341" y="-16" on="1"/>
        <pt x="251" y="-16" on="0"/>
        <pt x="122" y="83" on="0"/>
        <pt x="110" y="176" on="1"/>
      </contour>
    </TTGlyph>
    <TTGlyph name="Euro.tab" xMin="6" yMin="-16" xMax="577" yMax="650">
      <contour>
        <pt x="6" y="211" on="1"/>
        <pt x="21" y="274" on="1"/>
        <pt x="88" y="274" on="1"/>
        <pt x="89" y="292" on="0"/>
        <pt x="94" y="328" on="0"/>
        <pt x="98" y="345" on="1"/>
        <pt x="39" y="345" on="1"/>
        <pt x="55" y="407" on="1"/>
        <pt x="116" y="407" on="1"/>
        <pt x="154" y="515" on="0"/>
        <pt x="311" y="650" on="0"/>
        <pt x="404" y="650" on="1"/>
        <pt x="448" y="650" on="0"/>
        <pt x="513" y="625" on="0"/>
        <pt x="556" y="584" on="0"/>
        <pt x="577" y="532" on="0"/>
        <pt x="577" y="504" on="1"/>
        <pt x="577" y="467" on="0"/>
        <pt x="537" y="412" on="0"/>
        <pt x="503" y="412" on="1"/>
        <pt x="475" y="412" on="0"/>
        <pt x="442" y="447" on="0"/>
        <pt x="442" y="474" on="1"/>
        <pt x="442" y="499" on="0"/>
        <pt x="468" y="536" on="0"/>
        <pt x="484" y="546" on="1"/>
        <pt x="477" y="561" on="0"/>
        <pt x="439" y="582" on="0"/>
        <pt x="410" y="582" on="1"/>
        <pt x="378" y="582" on="0"/>
        <pt x="323" y="554" on="0"/>
        <pt x="280" y="506" on="0"/>
        <pt x="247" y="442" on="0"/>
        <pt x="235" y="407" on="1"/>
        <pt x="404" y="407" on="1"/>
        <pt x="389" y="345" on="1"/>
        <pt x="218" y="345" on="1"/>
        <pt x="214" y="327" on="0"/>
        <pt x="209" y="291" on="0"/>
        <pt x="208" y="274" on="1"/>
        <pt x="371" y="274" on="1"/>
        <pt x="356" y="212" on="1"/>
        <pt x="206" y="212" on="1"/>
        <pt x="210" y="131" on="0"/>
        <pt x="270" y="67" on="0"/>
        <pt x="311" y="67" on="1"/>
        <pt x="353" y="67" on="0"/>
        <pt x="424" y="123" on="0"/>
        <pt x="452" y="181" on="1"/>
        <pt x="510" y="151" on="1"/>
        <pt x="482" y="81" on="0"/>
        <pt x="371" y="-16" on="0"/>
        <pt x="290" y="-16" on="1"/>
        <pt x="203" y="-16" on="0"/>
        <pt x="91" y="96" on="0"/>
        <pt x="86" y="211" on="1"/>
      </contour>
    </TTGlyph>
    <TTGlyph name="F" xMin="-26" yMin="0" xMax="705" yMax="658">
      <contour>
        <pt x="-26" y="0" on="1"/>
        <pt x="-9" y="75" on="1"/>
        <pt x="92" y="75" on="1"/>
        <pt x="219" y="583" on="1"/>
        <pt x="116" y="583" on="1"/>
        <pt x="135" y="658" on="1"/>
        <pt x="705" y="658" on="1"/>
        <pt x="648" y="430" on="1"/>
        <pt x="588" y="430" on="1"/>
        <pt x="586" y="479" on="0"/>
        <pt x="576" y="540" on="0"/>
        <pt x="553" y="573" on="0"/>
        <pt x="514" y="584" on="0"/>
        <pt x="484" y="584" on="1"/>
        <pt x="344" y="584" on="1"/>
        <pt x="288" y="358" on="1"/>
        <pt x="328" y="358" on="1"/>
        <pt x="353" y="358" on="0"/>
        <pt x="386" y="366" on="0"/>
        <pt x="410" y="387" on="0"/>
        <pt x="431" y="425" on="0"/>
        <pt x="443" y="456" on="1"/>
        <pt x="507" y="456" on="1"/>
        <pt x="441" y="188" on="1"/>
        <pt x="377" y="188" on="1"/>
        <pt x="381" y="222" on="0"/>
        <pt x="381" y="263" on="0"/>
        <pt x="368" y="285" on="0"/>
        <pt x="338" y="291" on="0"/>
        <pt x="313" y="291" on="1"/>
        <pt x="271" y="291" on="1"/>
        <pt x="218" y="75" on="1"/>
        <pt x="334" y="75" on="1"/>
        <pt x="316" y="0" on="1"/>
      </contour>
    </TTGlyph>
    <TTGlyph name="G" xMin="62" yMin="-16" xMax="738" yMax="674">
      <contour>
        <pt x="303" y="-16" on="1"/>
        <pt x="246" y="-16" on="0"/>
        <pt x="155" y="26" on="0"/>
        <pt x="94" y="100" on="0"/>
        <pt x="62" y="201" on="0"/>
        <pt x="62" y="260" on="1"/>
        <pt x="62" y="338" on="0"/>
        <pt x="117" y="488" on="0"/>
        <pt x="215" y="603" on="0"/>
        <pt x="352" y="674" on="0"/>
        <pt x="434" y="674" on="1"/>
        <pt x="498" y="674" on="0"/>
        <pt x="586" y="630" on="0"/>
        <pt x="611" y="593" on="1"/>
        <pt x="652" y="671" on="1"/>
        <pt x="729" y="671" on="1"/>
        <pt x="665" y="415" on="1"/>
        <pt x="585" y="415" on="1"/>
        <pt x="578" y="517" on="0"/>
        <pt x="498" y="601" on="0"/>
        <pt x="436" y="601" on="1"/>
        <pt x="371" y="601" on="0"/>
        <pt x="280" y="527" on="0"/>
        <pt x="222" y="420" on="0"/>
        <pt x="196" y="300" on="0"/>
        <pt x="196" y="254" on="1"/>
        <pt x="196" y="200" on="0"/>
        <pt x="219" y="126" on="0"/>
        <pt x="258" y="82" on="0"/>
        <pt x="307" y="63" on="0"/>
        <pt x="332" y="63" on="1"/>
        <pt x="395" y="63" on="0"/>
        <pt x="487" y="159" on="0"/>
        <pt x="507" y="236" on="1"/>
        <pt x="513" y="260" on="1"/>
        <pt x="395" y="260" on="1"/>
        <pt x="414" y="335" on="1"/>
        <pt x="738" y="335" on="1"/>
        <pt x="719" y="260" on="1"/>
        <pt x="638" y="260" on="1"/>
        <pt x="568" y="-7" on="1"/>
        <pt x="495" y="-7" on="1"/>
        <pt x="487" y="81" on="1"/>
        <pt x="457" y="38" on="0"/>
        <pt x="364" y="-16" on="0"/>
      </contour>
    </TTGlyph>
    <TTGlyph name="Gbreve" xMin="62" yMin="-16" xMax="738" yMax="907">
      <component glyphName="G" x="0" y="0" flags="0x204"/>
      <component glyphName="breve" x="203" y="202" flags="0x4"/>
    </TTGlyph>
    <TTGlyph name="Gdotaccent" xMin="62" yMin="-16" xMax="738" yMax="881">
      <component glyphName="G" x="0" y="0" flags="0x204"/>
      <component glyphName="dotaccent" x="287" y="202" flags="0x4"/>
    </TTGlyph>
    <TTGlyph name="H" xMin="-26" yMin="0" xMax="859" yMax="658">
      <contour>
        <pt x="-26" y="0" on="1"/>
        <pt x="-9" y="75" on="1"/>
        <pt x="92" y="75" on="1"/>
        <pt x="219" y="583" on="1"/>
        <pt x="116" y="583" on="1"/>
        <pt x="135" y="658" on="1"/>
        <pt x="451" y="658" on="1"/>
        <pt x="433" y="583" on="1"/>
        <pt x="345" y="583" on="1"/>
        <pt x="293" y="376" on="1"/>
        <pt x="563" y="376" on="1"/>
        <pt x="614" y="583" on="1"/>
        <pt x="525" y="583" on="1"/>
        <pt x="543" y="658" on="1"/>
        <pt x="859" y="658" on="1"/>
        <pt x="841" y="583" on="1"/>
        <pt x="740" y="583" on="1"/>
        <pt x="614" y="75" on="1"/>
        <pt x="716" y="75" on="1"/>
        <pt x="698" y="0" on="1"/>
        <pt x="382" y="0" on="1"/>
        <pt x="400" y="75" on="1"/>
        <pt x="488" y="75" on="1"/>
        <pt x="546" y="306" on="1"/>
        <pt x="276" y="306" on="1"/>
        <pt x="218" y="75" on="1"/>
        <pt x="308" y="75" on="1"/>
        <pt x="290" y="0" on="1"/>
      </contour>
    </TTGlyph>
    <TTGlyph name="Hbar" xMin="-26" yMin="0" xMax="859" yMax="658">
      <contour>
        <pt x="-26" y="0" on="1"/>
        <pt x="-9" y="75" on="1"/>
        <pt x="92" y="75" on="1"/>
        <pt x="183" y="440" on="1"/>
        <pt x="81" y="440" on="1"/>
        <pt x="98" y="507" on="1"/>
        <pt x="200" y="507" on="1"/>
        <pt x="219" y="583" on="1"/>
        <pt x="116" y="583" on="1"/>
        <pt x="135" y="658" on="1"/>
        <pt x="451" y="658" on="1"/>
        <pt x="433" y="583" on="1"/>
        <pt x="345" y="583" on="1"/>
        <pt x="325" y="504" on="1"/>
        <pt x="595" y="504" on="1"/>
        <pt x="614" y="583" on="1"/>
        <pt x="525" y="583" on="1"/>
        <pt x="543" y="658" on="1"/>
        <pt x="859" y="658" on="1"/>
        <pt x="841" y="583" on="1"/>
        <pt x="740" y="583" on="1"/>
        <pt x="721" y="507" on="1"/>
        <pt x="823" y="507" on="1"/>
        <pt x="806" y="440" on="1"/>
        <pt x="705" y="440" on="1"/>
        <pt x="614" y="75" on="1"/>
        <pt x="716" y="75" on="1"/>
        <pt x="698" y="0" on="1"/>
        <pt x="382" y="0" on="1"/>
        <pt x="400" y="75" on="1"/>
        <pt x="488" y="75" on="1"/>
        <pt x="543" y="294" on="1"/>
        <pt x="273" y="294" on="1"/>
        <pt x="218" y="75" on="1"/>
        <pt x="308" y="75" on="1"/>
        <pt x="290" y="0" on="1"/>
      </contour>
      <contour>
        <pt x="290" y="363" on="1"/>
        <pt x="560" y="363" on="1"/>
        <pt x="580" y="443" on="1"/>
        <pt x="310" y="443" on="1"/>
      </contour>
    </TTGlyph>
    <TTGlyph name="I" xMin="-19" yMin="0" xMax="471" yMax="658">
      <contour>
        <pt x="-19" y="0" on="1"/>
        <pt x="-2" y="75" on="1"/>
        <pt x="99" y="75" on="1"/>
        <pt x="226" y="583" on="1"/>
        <pt x="123" y="583" on="1"/>
        <pt x="142" y="658" on="1"/>
        <pt x="471" y="658" on="1"/>
        <pt x="452" y="583" on="1"/>
        <pt x="352" y="583" on="1"/>
        <pt x="225" y="75" on="1"/>
        <pt x="327" y="75" on="1"/>
        <pt x="310" y="0" on="1"/>
      </contour>
    </TTGlyph>
    <TTGlyph name="Iacute" xMin="-19" yMin="0" xMax="486" yMax="942">
      <component glyphName="I" x="0" y="0" flags="0x204"/>
      <component glyphName="acute" x="148" y="202" flags="0x4"/>
    </TTGlyph>
    <TTGlyph name="Ibreve" xMin="-19" yMin="0" xMax="504" yMax="907">
      <component glyphName="I" x="0" y="0" flags="0x204"/>
      <component glyphName="breve" x="62" y="202" flags="0x4"/>
    </TTGlyph>
    <TTGlyph name="Icircumflex" xMin="-19" yMin="0" xMax="471" yMax="926">
      <component glyphName="I" x="0" y="0" flags="0x204"/>
      <component glyphName="circumflex" x="79" y="202" flags="0x4"/>
    </TTGlyph>
    <TTGlyph name="Idieresis" xMin="-19" yMin="0" xMax="508" yMax="889">
      <component glyphName="I" x="0" y="0" flags="0x204"/>
      <component glyphName="dieresis" x="72" y="202" flags="0x4"/>
    </TTGlyph>
    <TTGlyph name="Idotaccent" xMin="-19" yMin="0" xMax="471" yMax="881">
      <component glyphName="I" x="0" y="0" flags="0x204"/>
      <component glyphName="dotaccent" x="145" y="202" flags="0x4"/>
    </TTGlyph>
    <TTGlyph name="Igrave" xMin="-19" yMin="0" xMax="471" yMax="941">
      <component glyphName="I" x="0" y="0" flags="0x204"/>
      <component glyphName="grave" x="69" y="202" flags="0x4"/>
    </TTGlyph>
    <TTGlyph name="Imacron" xMin="-19" yMin="0" xMax="487" yMax="832">
      <component glyphName="I" x="0" y="0" flags="0x204"/>
      <component glyphName="macron" x="77" y="202" flags="0x4"/>
    </TTGlyph>
    <TTGlyph name="Iogonek" xMin="-19" yMin="-246" xMax="471" yMax="658">
      <contour>
        <pt x="-19" y="0" on="1"/>
        <pt x="-2" y="75" on="1"/>
        <pt x="99" y="75" on="1"/>
        <pt x="226" y="583" on="1"/>
        <pt x="123" y="583" on="1"/>
        <pt x="142" y="658" on="1"/>
        <pt x="471" y="658" on="1"/>
        <pt x="452" y="583" on="1"/>
        <pt x="352" y="583" on="1"/>
        <pt x="225" y="75" on="1"/>
        <pt x="327" y="75" on="1"/>
        <pt x="310" y="0" on="1"/>
        <pt x="200" y="0" on="1"/>
        <pt x="194" y="-4" on="1"/>
        <pt x="123" y="-59" on="0"/>
        <pt x="80" y="-117" on="0"/>
        <pt x="80" y="-141" on="1"/>
        <pt x="80" y="-157" on="0"/>
        <pt x="103" y="-185" on="0"/>
        <pt x="131" y="-185" on="1"/>
        <pt x="146" y="-185" on="0"/>
        <pt x="177" y="-174" on="0"/>
        <pt x="191" y="-165" on="1"/>
        <pt x="211" y="-209" on="1"/>
        <pt x="188" y="-225" on="0"/>
        <pt x="131" y="-246" on="0"/>
        <pt x="100" y="-246" on="1"/>
        <pt x="53" y="-246" on="0"/>
        <pt x="-12" y="-200" on="0"/>
        <pt x="-12" y="-156" on="1"/>
        <pt x="-12" y="-114" on="0"/>
        <pt x="54" y="-44" on="0"/>
        <pt x="126" y="0" on="1"/>
      </contour>
    </TTGlyph>
    <TTGlyph name="J" xMin="1" yMin="-16" xMax="653" yMax="658">
      <contour>
        <pt x="199" y="-16" on="1"/>
        <pt x="151" y="-16" on="0"/>
        <pt x="77" y="9" on="0"/>
        <pt x="27" y="51" on="0"/>
        <pt x="1" y="106" on="0"/>
        <pt x="1" y="135" on="1"/>
        <pt x="1" y="181" on="0"/>
        <pt x="54" y="248" on="0"/>
        <pt x="99" y="248" on="1"/>
        <pt x="133" y="248" on="0"/>
        <pt x="171" y="206" on="0"/>
        <pt x="171" y="177" on="1"/>
        <pt x="171" y="148" on="0"/>
        <pt x="136" y="106" on="0"/>
        <pt x="105" y="96" on="1"/>
        <pt x="112" y="80" on="0"/>
        <pt x="159" y="54" on="0"/>
        <pt x="192" y="54" on="1"/>
        <pt x="240" y="54" on="0"/>
        <pt x="298" y="122" on="0"/>
        <pt x="316" y="194" on="1"/>
        <pt x="413" y="583" on="1"/>
        <pt x="309" y="583" on="1"/>
        <pt x="327" y="658" on="1"/>
        <pt x="653" y="658" on="1"/>
        <pt x="635" y="583" on="1"/>
        <pt x="539" y="583" on="1"/>
        <pt x="441" y="187" on="1"/>
        <pt x="417" y="94" on="0"/>
        <pt x="299" y="-16" on="0"/>
      </contour>
    </TTGlyph>
    <TTGlyph name="K" xMin="-26" yMin="0" xMax="793" yMax="658">
      <contour>
        <pt x="-26" y="0" on="1"/>
        <pt x="-9" y="75" on="1"/>
        <pt x="92" y="75" on="1"/>
        <pt x="219" y="583" on="1"/>
        <pt x="116" y="583" on="1"/>
        <pt x="135" y="658" on="1"/>
        <pt x="450" y="658" on="1"/>
        <pt x="431" y="584" on="1"/>
        <pt x="345" y="584" on="1"/>
        <pt x="280" y="324" on="1"/>
        <pt x="587" y="584" on="1"/>
        <pt x="506" y="584" on="1"/>
        <pt x="525" y="658" on="1"/>
        <pt x="793" y="658" on="1"/>
        <pt x="775" y="583" on="1"/>
        <pt x="698" y="583" on="1"/>
        <pt x="451" y="383" on="1"/>
        <pt x="596" y="75" on="1"/>
        <pt x="682" y="75" on="1"/>
        <pt x="664" y="0" on="1"/>
        <pt x="360" y="0" on="1"/>
        <pt x="378" y="74" on="1"/>
        <pt x="458" y="74" on="1"/>
        <pt x="355" y="306" on="1"/>
        <pt x="256" y="225" on="1"/>
        <pt x="218" y="74" on="1"/>
        <pt x="305" y="74" on="1"/>
        <pt x="287" y="0" on="1"/>
      </contour>
    </TTGlyph>
    <TTGlyph name="L" xMin="-26" yMin="0" xMax="578" yMax="658">
      <contour>
        <pt x="-26" y="0" on="1"/>
        <pt x="-9" y="75" on="1"/>
        <pt x="92" y="75" on="1"/>
        <pt x="219" y="583" on="1"/>
        <pt x="116" y="583" on="1"/>
        <pt x="135" y="658" on="1"/>
        <pt x="468" y="658" on="1"/>
        <pt x="450" y="584" on="1"/>
        <pt x="345" y="584" on="1"/>
        <pt x="218" y="74" on="1"/>
        <pt x="337" y="74" on="1"/>
        <pt x="372" y="74" on="0"/>
        <pt x="418" y="90" on="0"/>
        <pt x="455" y="129" on="0"/>
        <pt x="491" y="197" on="0"/>
        <pt x="516" y="249" on="1"/>
        <pt x="578" y="249" on="1"/>
        <pt x="516" y="0" on="1"/>
      </contour>
    </TTGlyph>
    <TTGlyph name="Lacute" xMin="-26" yMin="0" xMax="578" yMax="942">
      <component glyphName="L" x="0" y="0" flags="0x204"/>
      <component glyphName="acute" x="141" y="202" flags="0x4"/>
    </TTGlyph>
    <TTGlyph name="Lcaron" xMin="-26" yMin="0" xMax="644" yMax="733">
      <component glyphName="L" x="0" y="0" flags="0x204"/>
      <component glyphName="caron.alt" x="350" y="-31" flags="0x4"/>
    </TTGlyph>
    <TTGlyph name="Ldot" xMin="-26" yMin="0" xMax="575" yMax="658">
      <contour>
        <pt x="-26" y="0" on="1"/>
        <pt x="-9" y="75" on="1"/>
        <pt x="92" y="75" on="1"/>
        <pt x="219" y="583" on="1"/>
        <pt x="116" y="583" on="1"/>
        <pt x="135" y="658" on="1"/>
        <pt x="468" y="658" on="1"/>
        <pt x="450" y="584" on="1"/>
        <pt x="345" y="584" on="1"/>
        <pt x="218" y="74" on="1"/>
        <pt x="337" y="74" on="1"/>
        <pt x="372" y="74" on="0"/>
        <pt x="418" y="89" on="0"/>
        <pt x="455" y="126" on="0"/>
        <pt x="489" y="189" on="0"/>
        <pt x="513" y="236" on="1"/>
        <pt x="575" y="236" on="1"/>
        <pt x="516" y="0" on="1"/>
      </contour>
      <contour>
        <pt x="492" y="302" on="1"/>
        <pt x="467" y="302" on="0"/>
        <pt x="434" y="333" on="0"/>
        <pt x="434" y="361" on="1"/>
        <pt x="434" y="390" on="0"/>
        <pt x="475" y="443" on="0"/>
        <pt x="512" y="443" on="1"/>
        <pt x="539" y="443" on="0"/>
        <pt x="573" y="411" on="0"/>
        <pt x="573" y="383" on="1"/>
        <pt x="573" y="355" on="0"/>
        <pt x="530" y="302" on="0"/>
      </contour>
    </TTGlyph>
    <TTGlyph name="Lslash" xMin="-25" yMin="0" xMax="579" yMax="658">
      <contour>
        <pt x="-25" y="0" on="1"/>
        <pt x="-8" y="75" on="1"/>
        <pt x="93" y="75" on="1"/>
        <pt x="141" y="266" on="1"/>
        <pt x="49" y="237" on="1"/>
        <pt x="67" y="311" on="1"/>
        <pt x="159" y="340" on="1"/>
        <pt x="220" y="583" on="1"/>
        <pt x="117" y="583" on="1"/>
        <pt x="136" y="658" on="1"/>
        <pt x="469" y="658" on="1"/>
        <pt x="451" y="584" on="1"/>
        <pt x="346" y="584" on="1"/>
        <pt x="296" y="382" on="1"/>
        <pt x="478" y="439" on="1"/>
        <pt x="461" y="366" on="1"/>
        <pt x="277" y="309" on="1"/>
        <pt x="219" y="74" on="1"/>
        <pt x="338" y="74" on="1"/>
        <pt x="373" y="74" on="0"/>
        <pt x="419" y="90" on="0"/>
        <pt x="456" y="129" on="0"/>
        <pt x="492" y="197" on="0"/>
        <pt x="517" y="249" on="1"/>
        <pt x="579" y="249" on="1"/>
        <pt x="517" y="0" on="1"/>
      </contour>
    </TTGlyph>
    <TTGlyph name="M" xMin="-23" yMin="0" xMax="1005" yMax="658">
      <contour>
        <pt x="-23" y="0" on="1"/>
        <pt x="-5" y="75" on="1"/>
        <pt x="87" y="75" on="1"/>
        <pt x="213" y="583" on="1"/>
        <pt x="120" y="583" on="1"/>
        <pt x="138" y="658" on="1"/>
        <pt x="413" y="658" on="1"/>
        <pt x="452" y="200" on="1"/>
        <pt x="455" y="200" on="1"/>
        <pt x="718" y="658" on="1"/>
        <pt x="1005" y="658" on="1"/>
        <pt x="986" y="583" on="1"/>
        <pt x="890" y="583" on="1"/>
        <pt x="763" y="75" on="1"/>
        <pt x="861" y="75" on="1"/>
        <pt x="843" y="0" on="1"/>
        <pt x="539" y="0" on="1"/>
        <pt x="557" y="75" on="1"/>
        <pt x="637" y="75" on="1"/>
        <pt x="760" y="570" on="1"/>
        <pt x="750" y="570" on="1"/>
        <pt x="412" y="0" on="1"/>
        <pt x="355" y="0" on="1"/>
        <pt x="299" y="570" on="1"/>
        <pt x="290" y="570" on="1"/>
        <pt x="167" y="75" on="1"/>
        <pt x="253" y="75" on="1"/>
        <pt x="236" y="0" on="1"/>
      </contour>
    </TTGlyph>
    <TTGlyph name="N" xMin="-20" yMin="-13" xMax="859" yMax="658">
      <contour>
        <pt x="501" y="-13" on="1"/>
        <pt x="291" y="520" on="1"/>
        <pt x="282" y="520" on="1"/>
        <pt x="171" y="75" on="1"/>
        <pt x="268" y="75" on="1"/>
        <pt x="250" y="0" on="1"/>
        <pt x="-20" y="0" on="1"/>
        <pt x="-2" y="75" on="1"/>
        <pt x="91" y="75" on="1"/>
        <pt x="217" y="583" on="1"/>
        <pt x="123" y="583" on="1"/>
        <pt x="141" y="658" on="1"/>
        <pt x="370" y="658" on="1"/>
        <pt x="558" y="184" on="1"/>
        <pt x="567" y="184" on="1"/>
        <pt x="666" y="583" on="1"/>
        <pt x="570" y="583" on="1"/>
        <pt x="588" y="658" on="1"/>
        <pt x="859" y="658" on="1"/>
        <pt x="840" y="583" on="1"/>
        <pt x="747" y="583" on="1"/>
        <pt x="598" y="-13" on="1"/>
      </contour>
    </TTGlyph>
    <TTGlyph name="Nacute" xMin="-20" yMin="-13" xMax="859" yMax="942">
      <component glyphName="N" x="0" y="0" flags="0x204"/>
      <component glyphName="acute" x="331" y="202" flags="0x4"/>
    </TTGlyph>
    <TTGlyph name="Ncaron" xMin="-20" yMin="-13" xMax="859" yMax="932">
      <component glyphName="N" x="0" y="0" flags="0x204"/>
      <component glyphName="caron" x="261" y="202" flags="0x4"/>
    </TTGlyph>
    <TTGlyph name="Ntilde" xMin="-20" yMin="-13" xMax="859" yMax="884">
      <component glyphName="N" x="0" y="0" flags="0x204"/>
      <component glyphName="tilde" x="248" y="202" flags="0x4"/>
    </TTGlyph>
    <TTGlyph name="O" xMin="62" yMin="-16" xMax="709" yMax="674">
      <contour>
        <pt x="342" y="-16" on="1"/>
        <pt x="281" y="-16" on="0"/>
        <pt x="177" y="26" on="0"/>
        <pt x="104" y="102" on="0"/>
        <pt x="62" y="209" on="0"/>
        <pt x="62" y="273" on="1"/>
        <pt x="62" y="345" on="0"/>
        <pt x="115" y="489" on="0"/>
        <pt x="210" y="603" on="0"/>
        <pt x="347" y="674" on="0"/>
        <pt x="430" y="674" on="1"/>
        <pt x="491" y="674" on="0"/>
        <pt x="594" y="632" on="0"/>
        <pt x="668" y="556" on="0"/>
        <pt x="709" y="449" on="0"/>
        <pt x="709" y="385" on="1"/>
        <pt x="709" y="313" on="0"/>
        <pt x="657" y="169" on="0"/>
        <pt x="561" y="55" on="0"/>
        <pt x="425" y="-16" on="0"/>
      </contour>
      <contour>
        <pt x="347" y="57" on="1"/>
        <pt x="408" y="57" on="0"/>
        <pt x="495" y="137" on="0"/>
        <pt x="550" y="252" on="0"/>
        <pt x="576" y="381" on="0"/>
        <pt x="576" y="429" on="1"/>
        <pt x="576" y="516" on="0"/>
        <pt x="494" y="601" on="0"/>
        <pt x="425" y="601" on="1"/>
        <pt x="364" y="601" on="0"/>
        <pt x="276" y="521" on="0"/>
        <pt x="222" y="406" on="0"/>
        <pt x="196" y="277" on="0"/>
        <pt x="196" y="229" on="1"/>
        <pt x="196" y="142" on="0"/>
        <pt x="277" y="57" on="0"/>
      </contour>
    </TTGlyph>
    <TTGlyph name="OE" xMin="49" yMin="0" xMax="1050" yMax="658">
      <contour>
        <pt x="367" y="0" on="1"/>
        <pt x="290" y="0" on="0"/>
        <pt x="170" y="39" on="0"/>
        <pt x="90" y="107" on="0"/>
        <pt x="49" y="202" on="0"/>
        <pt x="49" y="257" on="1"/>
        <pt x="49" y="329" on="0"/>
        <pt x="108" y="479" on="0"/>
        <pt x="165" y="536" on="1"/>
        <pt x="222" y="593" on="0"/>
        <pt x="392" y="658" on="0"/>
        <pt x="505" y="658" on="1"/>
        <pt x="1050" y="658" on="1"/>
        <pt x="994" y="435" on="1"/>
        <pt x="934" y="435" on="1"/>
        <pt x="933" y="481" on="0"/>
        <pt x="927" y="539" on="0"/>
        <pt x="907" y="572" on="0"/>
        <pt x="871" y="584" on="0"/>
        <pt x="840" y="584" on="1"/>
        <pt x="675" y="584" on="1"/>
        <pt x="622" y="370" on="1"/>
        <pt x="668" y="370" on="1"/>
        <pt x="693" y="370" on="0"/>
        <pt x="726" y="376" on="0"/>
        <pt x="750" y="396" on="0"/>
        <pt x="772" y="435" on="0"/>
        <pt x="786" y="467" on="1"/>
        <pt x="850" y="467" on="1"/>
        <pt x="784" y="203" on="1"/>
        <pt x="722" y="203" on="1"/>
        <pt x="728" y="268" on="0"/>
        <pt x="706" y="303" on="0"/>
        <pt x="659" y="303" on="1"/>
        <pt x="605" y="303" on="1"/>
        <pt x="548" y="74" on="1"/>
        <pt x="715" y="74" on="1"/>
        <pt x="749" y="74" on="0"/>
        <pt x="794" y="89" on="0"/>
        <pt x="830" y="127" on="0"/>
        <pt x="865" y="194" on="0"/>
        <pt x="890" y="245" on="1"/>
        <pt x="956" y="245" on="1"/>
        <pt x="895" y="0" on="1"/>
      </contour>
      <contour>
        <pt x="368" y="74" on="1"/>
        <pt x="422" y="74" on="1"/>
        <pt x="549" y="584" on="1"/>
        <pt x="493" y="584" on="1"/>
        <pt x="425" y="584" on="0"/>
        <pt x="328" y="552" on="0"/>
        <pt x="289" y="513" on="1"/>
        <pt x="267" y="491" on="0"/>
        <pt x="229" y="425" on="0"/>
        <pt x="202" y="350" on="0"/>
        <pt x="187" y="271" on="0"/>
        <pt x="187" y="235" on="1"/>
        <pt x="187" y="156" on="0"/>
        <pt x="278" y="74" on="0"/>
      </contour>
    </TTGlyph>
    <TTGlyph name="Oacute" xMin="62" yMin="-16" xMax="709" yMax="942">
      <component glyphName="O" x="0" y="0" flags="0x204"/>
      <component glyphName="acute" x="302" y="202" flags="0x4"/>
    </TTGlyph>
    <TTGlyph name="Obreve" xMin="62" yMin="-16" xMax="709" yMax="907">
      <component glyphName="O" x="0" y="0" flags="0x204"/>
      <component glyphName="breve" x="215" y="202" flags="0x4"/>
    </TTGlyph>
    <TTGlyph name="Ocircumflex" xMin="62" yMin="-16" xMax="709" yMax="926">
      <component glyphName="O" x="0" y="0" flags="0x204"/>
      <component glyphName="circumflex" x="232" y="202" flags="0x4"/>
    </TTGlyph>
    <TTGlyph name="Odieresis" xMin="62" yMin="-16" xMax="709" yMax="889">
      <component glyphName="O" x="0" y="0" flags="0x204"/>
      <component glyphName="dieresis" x="226" y="202" flags="0x4"/>
    </TTGlyph>
    <TTGlyph name="Ograve" xMin="62" yMin="-16" xMax="709" yMax="941">
      <component glyphName="O" x="0" y="0" flags="0x204"/>
      <component glyphName="grave" x="222" y="202" flags="0x4"/>
    </TTGlyph>
    <TTGlyph name="Ohungarumlaut" xMin="62" yMin="-16" xMax="727" yMax="942">
      <component glyphName="O" x="0" y="0" flags="0x204"/>
      <component glyphName="hungarumlaut" x="287" y="202" flags="0x4"/>
    </TTGlyph>
    <TTGlyph name="Omacron" xMin="62" yMin="-16" xMax="709" yMax="832">
      <component glyphName="O" x="0" y="0" flags="0x204"/>
      <component glyphName="macron" x="230" y="202" flags="0x4"/>
    </TTGlyph>
    <TTGlyph name="Oslash" xMin="14" yMin="-56" xMax="758" yMax="714">
      <contour>
        <pt x="65" y="-56" on="1"/>
        <pt x="14" y="-11" on="1"/>
        <pt x="115" y="95" on="1"/>
        <pt x="90" y="130" on="0"/>
        <pt x="62" y="221" on="0"/>
        <pt x="62" y="273" on="1"/>
        <pt x="62" y="345" on="0"/>
        <pt x="115" y="489" on="0"/>
        <pt x="210" y="603" on="0"/>
        <pt x="347" y="674" on="0"/>
        <pt x="430" y="674" on="1"/>
        <pt x="484" y="674" on="0"/>
        <pt x="577" y="641" on="0"/>
        <pt x="612" y="612" on="1"/>
        <pt x="707" y="714" on="1"/>
        <pt x="758" y="669" on="1"/>
        <pt x="656" y="563" on="1"/>
        <pt x="681" y="528" on="0"/>
        <pt x="709" y="437" on="0"/>
        <pt x="709" y="385" on="1"/>
        <pt x="709" y="313" on="0"/>
        <pt x="657" y="169" on="0"/>
        <pt x="561" y="55" on="0"/>
        <pt x="425" y="-16" on="0"/>
        <pt x="342" y="-16" on="1"/>
        <pt x="288" y="-16" on="0"/>
        <pt x="195" y="17" on="0"/>
        <pt x="159" y="47" on="1"/>
      </contour>
      <contour>
        <pt x="196" y="229" on="1"/>
        <pt x="196" y="214" on="0"/>
        <pt x="199" y="187" on="0"/>
        <pt x="201" y="175" on="1"/>
        <pt x="547" y="544" on="1"/>
        <pt x="528" y="572" on="0"/>
        <pt x="465" y="601" on="0"/>
        <pt x="425" y="601" on="1"/>
        <pt x="364" y="601" on="0"/>
        <pt x="276" y="521" on="0"/>
        <pt x="222" y="406" on="0"/>
        <pt x="196" y="277" on="0"/>
      </contour>
      <contour>
        <pt x="347" y="57" on="1"/>
        <pt x="408" y="57" on="0"/>
        <pt x="495" y="137" on="0"/>
        <pt x="550" y="252" on="0"/>
        <pt x="576" y="381" on="0"/>
        <pt x="576" y="429" on="1"/>
        <pt x="576" y="444" on="0"/>
        <pt x="573" y="471" on="0"/>
        <pt x="571" y="483" on="1"/>
        <pt x="225" y="114" on="1"/>
        <pt x="244" y="86" on="0"/>
        <pt x="307" y="57" on="0"/>
      </contour>
    </TTGlyph>
    <TTGlyph name="Oslashacute" xMin="14" yMin="-56" xMax="758" yMax="942">
      <component glyphName="Oslash" x="0" y="0" flags="0x204"/>
      <component glyphName="acute" x="297" y="202" flags="0x4"/>
    </TTGlyph>
    <TTGlyph name="Otilde" xMin="62" yMin="-16" xMax="709" yMax="884">
      <component glyphName="O" x="0" y="0" flags="0x204"/>
      <component glyphName="tilde" x="220" y="202" flags="0x4"/>
    </TTGlyph>
    <TTGlyph name="P" xMin="-26" yMin="0" xMax="662" yMax="658">
      <contour>
        <pt x="-26" y="0" on="1"/>
        <pt x="-9" y="75" on="1"/>
        <pt x="92" y="75" on="1"/>
        <pt x="219" y="583" on="1"/>
        <pt x="116" y="583" on="1"/>
        <pt x="135" y="658" on="1"/>
        <pt x="412" y="658" on="1"/>
        <pt x="547" y="658" on="0"/>
        <pt x="662" y="560" on="0"/>
        <pt x="662" y="490" on="1"/>
        <pt x="662" y="453" on="0"/>
        <pt x="633" y="372" on="0"/>
        <pt x="560" y="306" on="0"/>
        <pt x="438" y="263" on="0"/>
        <pt x="345" y="263" on="1"/>
        <pt x="265" y="263" on="1"/>
        <pt x="218" y="75" on="1"/>
        <pt x="327" y="75" on="1"/>
        <pt x="310" y="0" on="1"/>
      </contour>
      <contour>
        <pt x="283" y="334" on="1"/>
        <pt x="349" y="334" on="1"/>
        <pt x="397" y="334" on="0"/>
        <pt x="463" y="362" on="0"/>
        <pt x="504" y="406" on="0"/>
        <pt x="522" y="462" on="0"/>
        <pt x="522" y="491" on="1"/>
        <pt x="522" y="534" on="0"/>
        <pt x="462" y="585" on="0"/>
        <pt x="388" y="585" on="1"/>
        <pt x="345" y="585" on="1"/>
      </contour>
    </TTGlyph>
    <TTGlyph name="Q" xMin="62" yMin="-110" xMax="709" yMax="674">
      <contour>
        <pt x="344" y="-15" on="1"/>
        <pt x="281" y="-15" on="0"/>
        <pt x="177" y="27" on="0"/>
        <pt x="103" y="102" on="0"/>
        <pt x="62" y="209" on="0"/>
        <pt x="62" y="273" on="1"/>
        <pt x="62" y="345" on="0"/>
        <pt x="115" y="489" on="0"/>
        <pt x="210" y="603" on="0"/>
        <pt x="347" y="674" on="0"/>
        <pt x="430" y="674" on="1"/>
        <pt x="491" y="674" on="0"/>
        <pt x="594" y="632" on="0"/>
        <pt x="668" y="556" on="0"/>
        <pt x="709" y="449" on="0"/>
        <pt x="709" y="385" on="1"/>
        <pt x="709" y="335" on="0"/>
        <pt x="683" y="233" on="0"/>
        <pt x="635" y="141" on="0"/>
        <pt x="565" y="62" on="0"/>
        <pt x="521" y="35" on="1"/>
        <pt x="531" y="7" on="0"/>
        <pt x="557" y="-20" on="0"/>
        <pt x="576" y="-20" on="1"/>
        <pt x="599" y="-20" on="0"/>
        <pt x="632" y="11" on="0"/>
        <pt x="653" y="62" on="1"/>
        <pt x="706" y="44" on="1"/>
        <pt x="683" y="-31" on="0"/>
        <pt x="606" y="-110" on="0"/>
        <pt x="554" y="-110" on="1"/>
        <pt x="497" y="-110" on="0"/>
        <pt x="441" y="-49" on="0"/>
        <pt x="425" y="-5" on="1"/>
        <pt x="406" y="-10" on="0"/>
        <pt x="365" y="-15" on="0"/>
      </contour>
      <contour>
        <pt x="345" y="255" on="1"/>
        <pt x="412" y="255" on="0"/>
        <pt x="475" y="181" on="0"/>
        <pt x="491" y="134" on="1"/>
        <pt x="514" y="166" on="0"/>
        <pt x="547" y="244" on="0"/>
        <pt x="567" y="323" on="0"/>
        <pt x="576" y="399" on="0"/>
        <pt x="576" y="429" on="1"/>
        <pt x="576" y="516" on="0"/>
        <pt x="494" y="601" on="0"/>
        <pt x="425" y="601" on="1"/>
        <pt x="364" y="601" on="0"/>
        <pt x="276" y="521" on="0"/>
        <pt x="222" y="406" on="0"/>
        <pt x="196" y="277" on="0"/>
        <pt x="196" y="229" on="1"/>
        <pt x="196" y="208" on="0"/>
        <pt x="202" y="165" on="0"/>
        <pt x="208" y="154" on="1"/>
        <pt x="224" y="199" on="0"/>
        <pt x="290" y="255" on="0"/>
      </contour>
      <contour>
        <pt x="253" y="118" on="1"/>
        <pt x="253" y="89" on="0"/>
        <pt x="310" y="55" on="0"/>
        <pt x="348" y="55" on="1"/>
        <pt x="362" y="55" on="0"/>
        <pt x="391" y="60" on="0"/>
        <pt x="405" y="65" on="1"/>
        <pt x="395" y="113" on="0"/>
        <pt x="357" y="178" on="0"/>
        <pt x="317" y="178" on="1"/>
        <pt x="289" y="178" on="0"/>
        <pt x="253" y="140" on="0"/>
      </contour>
    </TTGlyph>
    <TTGlyph name="R" xMin="-26" yMin="-12" xMax="676" yMax="658">
      <contour>
        <pt x="542" y="-12" on="1"/>
        <pt x="490" y="-12" on="0"/>
        <pt x="428" y="35" on="0"/>
        <pt x="428" y="81" on="1"/>
        <pt x="428" y="113" on="0"/>
        <pt x="448" y="193" on="0"/>
        <pt x="448" y="229" on="1"/>
        <pt x="448" y="257" on="0"/>
        <pt x="409" y="289" on="0"/>
        <pt x="358" y="289" on="1"/>
        <pt x="271" y="289" on="1"/>
        <pt x="218" y="75" on="1"/>
        <pt x="318" y="75" on="1"/>
        <pt x="300" y="0" on="1"/>
        <pt x="-26" y="0" on="1"/>
        <pt x="-9" y="75" on="1"/>
        <pt x="92" y="75" on="1"/>
        <pt x="219" y="583" on="1"/>
        <pt x="116" y="583" on="1"/>
        <pt x="135" y="658" on="1"/>
        <pt x="457" y="658" on="1"/>
        <pt x="520" y="658" on="0"/>
        <pt x="604" y="632" on="0"/>
        <pt x="655" y="591" on="0"/>
        <pt x="676" y="537" on="0"/>
        <pt x="676" y="510" on="1"/>
        <pt x="676" y="441" on="0"/>
        <pt x="572" y="334" on="0"/>
        <pt x="456" y="324" on="1"/>
        <pt x="453" y="316" on="1"/>
        <pt x="519" y="303" on="0"/>
        <pt x="570" y="246" on="0"/>
        <pt x="570" y="201" on="1"/>
        <pt x="570" y="177" on="0"/>
        <pt x="560" y="123" on="0"/>
        <pt x="560" y="102" on="1"/>
        <pt x="560" y="81" on="0"/>
        <pt x="579" y="67" on="0"/>
        <pt x="595" y="67" on="1"/>
        <pt x="606" y="67" on="0"/>
        <pt x="632" y="79" on="0"/>
        <pt x="649" y="95" on="1"/>
        <pt x="676" y="56" on="1"/>
        <pt x="651" y="25" on="0"/>
        <pt x="584" y="-12" on="0"/>
      </contour>
      <contour>
        <pt x="289" y="358" on="1"/>
        <pt x="371" y="358" on="1"/>
        <pt x="414" y="358" on="0"/>
        <pt x="477" y="378" on="0"/>
        <pt x="497" y="398" on="1"/>
        <pt x="516" y="416" on="0"/>
        <pt x="537" y="475" on="0"/>
        <pt x="537" y="506" on="1"/>
        <pt x="536" y="541" on="0"/>
        <pt x="490" y="585" on="0"/>
        <pt x="433" y="585" on="1"/>
        <pt x="345" y="585" on="1"/>
      </contour>
    </TTGlyph>
    <TTGlyph name="R_p" xMin="-26" yMin="-146" xMax="1082" yMax="634">
      <contour>
        <pt x="517" y="-12" on="1"/>
        <pt x="472" y="-12" on="0"/>
        <pt x="411" y="30" on="0"/>
        <pt x="411" y="77" on="1"/>
        <pt x="411" y="108" on="0"/>
        <pt x="432" y="183" on="0"/>
        <pt x="432" y="217" on="1"/>
        <pt x="432" y="244" on="0"/>
        <pt x="393" y="274" on="0"/>
        <pt x="344" y="274" on="1"/>
        <pt x="261" y="274" on="1"/>
        <pt x="211" y="74" on="1"/>
        <pt x="305" y="74" on="1"/>
        <pt x="287" y="0" on="1"/>
        <pt x="-26" y="0" on="1"/>
        <pt x="-7" y="74" on="1"/>
        <pt x="91" y="74" on="1"/>
        <pt x="212" y="560" on="1"/>
        <pt x="113" y="560" on="1"/>
        <pt x="132" y="634" on="1"/>
        <pt x="432" y="634" on="1"/>
        <pt x="490" y="634" on="0"/>
        <pt x="568" y="609" on="0"/>
        <pt x="614" y="569" on="0"/>
        <pt x="633" y="517" on="0"/>
        <pt x="633" y="490" on="1"/>
        <pt x="633" y="458" on="0"/>
        <pt x="610" y="397" on="0"/>
        <pt x="562" y="348" on="0"/>
        <pt x="486" y="315" on="0"/>
        <pt x="433" y="310" on="1"/>
        <pt x="431" y="302" on="1"/>
        <pt x="496" y="289" on="0"/>
        <pt x="547" y="236" on="0"/>
        <pt x="547" y="199" on="1"/>
        <pt x="547" y="173" on="0"/>
        <pt x="537" y="121" on="0"/>
        <pt x="537" y="102" on="1"/>
        <pt x="537" y="80" on="0"/>
        <pt x="558" y="65" on="0"/>
        <pt x="573" y="65" on="1"/>
        <pt x="605" y="65" on="0"/>
        <pt x="663" y="132" on="0"/>
        <pt x="683" y="209" on="1"/>
        <pt x="721" y="359" on="1"/>
        <pt x="656" y="359" on="1"/>
        <pt x="675" y="433" on="1"/>
        <pt x="834" y="433" on="1"/>
        <pt x="808" y="333" on="1"/>
        <pt x="815" y="331" on="1"/>
        <pt x="842" y="384" on="0"/>
        <pt x="919" y="441" on="0"/>
        <pt x="959" y="441" on="1"/>
        <pt x="1018" y="441" on="0"/>
        <pt x="1082" y="355" on="0"/>
        <pt x="1082" y="291" on="1"/>
        <pt x="1082" y="235" on="0"/>
        <pt x="1045" y="129" on="0"/>
        <pt x="984" y="48" on="0"/>
        <pt x="904" y="-1" on="0"/>
        <pt x="860" y="-1" on="1"/>
        <pt x="824" y="-1" on="0"/>
        <pt x="770" y="34" on="0"/>
        <pt x="756" y="63" on="1"/>
        <pt x="722" y="-73" on="1"/>
        <pt x="807" y="-73" on="1"/>
        <pt x="790" y="-146" on="1"/>
        <pt x="529" y="-146" on="1"/>
        <pt x="547" y="-73" on="1"/>
        <pt x="612" y="-73" on="1"/>
        <pt x="650" y="79" on="1"/>
        <pt x="630" y="40" on="0"/>
        <pt x="565" y="-12" on="0"/>
      </contour>
      <contour>
        <pt x="277" y="342" on="1"/>
        <pt x="352" y="342" on="1"/>
        <pt x="390" y="342" on="0"/>
        <pt x="445" y="360" on="0"/>
        <pt x="463" y="379" on="1"/>
        <pt x="481" y="398" on="0"/>
        <pt x="501" y="457" on="0"/>
        <pt x="501" y="485" on="1"/>
        <pt x="501" y="519" on="0"/>
        <pt x="459" y="561" on="0"/>
        <pt x="410" y="561" on="1"/>
        <pt x="332" y="561" on="1"/>
      </contour>
      <contour>
        <pt x="841" y="59" on="1"/>
        <pt x="870" y="59" on="0"/>
        <pt x="917" y="110" on="0"/>
        <pt x="949" y="182" on="0"/>
        <pt x="966" y="260" on="0"/>
        <pt x="966" y="287" on="1"/>
        <pt x="966" y="325" on="0"/>
        <pt x="940" y="364" on="0"/>
        <pt x="915" y="364" on="1"/>
        <pt x="889" y="364" on="0"/>
        <pt x="840" y="315" on="0"/>
        <pt x="803" y="244" on="0"/>
        <pt x="781" y="165" on="0"/>
        <pt x="781" y="135" on="1"/>
        <pt x="781" y="101" on="0"/>
        <pt x="810" y="59" on="0"/>
      </contour>
    </TTGlyph>
    <TTGlyph name="Racute" xMin="-26" yMin="-12" xMax="676" yMax="942">
      <component glyphName="R" x="0" y="0" flags="0x204"/>
      <component glyphName="acute" x="282" y="202" flags="0x4"/>
    </TTGlyph>
    <TTGlyph name="Rcaron" xMin="-26" yMin="-12" xMax="676" yMax="932">
      <component glyphName="R" x="0" y="0" flags="0x204"/>
      <component glyphName="caron" x="212" y="202" flags="0x4"/>
    </TTGlyph>
    <TTGlyph name="S" xMin="-9" yMin="-16" xMax="633" yMax="674">
      <contour>
        <pt x="300" y="-16" on="1"/>
        <pt x="235" y="-16" on="0"/>
        <pt x="138" y="28" on="0"/>
        <pt x="110" y="64" on="1"/>
        <pt x="66" y="-13" on="1"/>
        <pt x="-9" y="-13" on="1"/>
        <pt x="51" y="234" on="1"/>
        <pt x="122" y="234" on="1"/>
        <pt x="136" y="144" on="0"/>
        <pt x="233" y="55" on="0"/>
        <pt x="299" y="55" on="1"/>
        <pt x="358" y="55" on="0"/>
        <pt x="424" y="118" on="0"/>
        <pt x="424" y="157" on="1"/>
        <pt x="424" y="179" on="0"/>
        <pt x="401" y="212" on="0"/>
        <pt x="363" y="239" on="0"/>
        <pt x="313" y="263" on="0"/>
        <pt x="287" y="275" on="1"/>
        <pt x="256" y="289" on="0"/>
        <pt x="194" y="321" on="0"/>
        <pt x="144" y="364" on="0"/>
        <pt x="113" y="422" on="0"/>
        <pt x="113" y="462" on="1"/>
        <pt x="113" y="504" on="0"/>
        <pt x="149" y="581" on="0"/>
        <pt x="211" y="639" on="0"/>
        <pt x="297" y="674" on="0"/>
        <pt x="347" y="674" on="1"/>
        <pt x="400" y="674" on="0"/>
        <pt x="492" y="633" on="0"/>
        <pt x="517" y="598" on="1"/>
        <pt x="558" y="671" on="1"/>
        <pt x="633" y="671" on="1"/>
        <pt x="574" y="434" on="1"/>
        <pt x="504" y="434" on="1"/>
        <pt x="488" y="527" on="0"/>
        <pt x="411" y="604" on="0"/>
        <pt x="347" y="604" on="1"/>
        <pt x="298" y="604" on="0"/>
        <pt x="236" y="544" on="0"/>
        <pt x="236" y="505" on="1"/>
        <pt x="236" y="481" on="0"/>
        <pt x="260" y="446" on="0"/>
        <pt x="298" y="418" on="0"/>
        <pt x="349" y="395" on="0"/>
        <pt x="376" y="383" on="1"/>
        <pt x="407" y="370" on="0"/>
        <pt x="468" y="339" on="0"/>
        <pt x="516" y="297" on="0"/>
        <pt x="546" y="240" on="0"/>
        <pt x="546" y="201" on="1"/>
        <pt x="546" y="155" on="0"/>
        <pt x="507" y="75" on="0"/>
        <pt x="441" y="17" on="0"/>
        <pt x="351" y="-16" on="0"/>
      </contour>
    </TTGlyph>
    <TTGlyph name="Sacute" xMin="-9" yMin="-16" xMax="633" yMax="942">
      <component glyphName="S" x="0" y="0" flags="0x204"/>
      <component glyphName="acute" x="242" y="202" flags="0x4"/>
    </TTGlyph>
    <TTGlyph name="Scaron" xMin="-9" yMin="-16" xMax="633" yMax="932">
      <component glyphName="S" x="0" y="0" flags="0x204"/>
      <component glyphName="caron" x="172" y="202" flags="0x4"/>
    </TTGlyph>
    <TTGlyph name="Scedilla" xMin="-9" yMin="-246" xMax="633" yMax="674">
      <contour>
        <pt x="219" y="-246" on="1"/>
        <pt x="189" y="-246" on="0"/>
        <pt x="123" y="-224" on="0"/>
        <pt x="98" y="-204" on="1"/>
        <pt x="129" y="-164" on="1"/>
        <pt x="148" y="-177" on="0"/>
        <pt x="187" y="-192" on="0"/>
        <pt x="212" y="-192" on="1"/>
        <pt x="232" y="-192" on="0"/>
        <pt x="258" y="-172" on="0"/>
        <pt x="258" y="-156" on="1"/>
        <pt x="258" y="-134" on="0"/>
        <pt x="207" y="-115" on="0"/>
        <pt x="170" y="-118" on="1"/>
        <pt x="157" y="-87" on="1"/>
        <pt x="249" y="-12" on="1"/>
        <pt x="203" y="-5" on="0"/>
        <pt x="132" y="36" on="0"/>
        <pt x="110" y="64" on="1"/>
        <pt x="66" y="-13" on="1"/>
        <pt x="-9" y="-13" on="1"/>
        <pt x="51" y="234" on="1"/>
        <pt x="122" y="234" on="1"/>
        <pt x="136" y="144" on="0"/>
        <pt x="233" y="55" on="0"/>
        <pt x="299" y="55" on="1"/>
        <pt x="358" y="55" on="0"/>
        <pt x="424" y="118" on="0"/>
        <pt x="424" y="157" on="1"/>
        <pt x="424" y="179" on="0"/>
        <pt x="401" y="212" on="0"/>
        <pt x="363" y="239" on="0"/>
        <pt x="313" y="263" on="0"/>
        <pt x="287" y="275" on="1"/>
        <pt x="256" y="289" on="0"/>
        <pt x="194" y="321" on="0"/>
        <pt x="144" y="364" on="0"/>
        <pt x="113" y="422" on="0"/>
        <pt x="113" y="462" on="1"/>
        <pt x="113" y="504" on="0"/>
        <pt x="149" y="581" on="0"/>
        <pt x="211" y="639" on="0"/>
        <pt x="297" y="674" on="0"/>
        <pt x="347" y="674" on="1"/>
        <pt x="400" y="674" on="0"/>
        <pt x="492" y="633" on="0"/>
        <pt x="517" y="598" on="1"/>
        <pt x="558" y="671" on="1"/>
        <pt x="633" y="671" on="1"/>
        <pt x="574" y="434" on="1"/>
        <pt x="504" y="434" on="1"/>
        <pt x="488" y="527" on="0"/>
        <pt x="411" y="604" on="0"/>
        <pt x="347" y="604" on="1"/>
        <pt x="298" y="604" on="0"/>
        <pt x="236" y="544" on="0"/>
        <pt x="236" y="505" on="1"/>
        <pt x="236" y="481" on="0"/>
        <pt x="260" y="446" on="0"/>
        <pt x="298" y="418" on="0"/>
        <pt x="349" y="395" on="0"/>
        <pt x="376" y="383" on="1"/>
        <pt x="407" y="370" on="0"/>
        <pt x="468" y="339" on="0"/>
        <pt x="516" y="297" on="0"/>
        <pt x="546" y="240" on="0"/>
        <pt x="546" y="201" on="1"/>
        <pt x="546" y="157" on="0"/>
        <pt x="510" y="79" on="0"/>
        <pt x="448" y="21" on="0"/>
        <pt x="363" y="-14" on="0"/>
        <pt x="314" y="-16" on="1"/>
        <pt x="258" y="-63" on="1"/>
        <pt x="258" y="-67" on="1"/>
        <pt x="295" y="-74" on="0"/>
        <pt x="343" y="-115" on="0"/>
        <pt x="343" y="-148" on="1"/>
        <pt x="343" y="-186" on="0"/>
        <pt x="281" y="-246" on="0"/>
      </contour>
    </TTGlyph>
    <TTGlyph name="T" xMin="78" yMin="0" xMax="741" yMax="658">
      <contour>
        <pt x="106" y="0" on="1"/>
        <pt x="124" y="75" on="1"/>
        <pt x="232" y="75" on="1"/>
        <pt x="362" y="594" on="1"/>
        <pt x="326" y="594" on="1"/>
        <pt x="296" y="594" on="0"/>
        <pt x="254" y="581" on="0"/>
        <pt x="216" y="542" on="0"/>
        <pt x="172" y="470" on="0"/>
        <pt x="140" y="411" on="1"/>
        <pt x="78" y="411" on="1"/>
        <pt x="141" y="658" on="1"/>
        <pt x="741" y="658" on="1"/>
        <pt x="679" y="411" on="1"/>
        <pt x="622" y="411" on="1"/>
        <pt x="620" y="468" on="0"/>
        <pt x="612" y="540" on="0"/>
        <pt x="592" y="580" on="0"/>
        <pt x="556" y="594" on="0"/>
        <pt x="525" y="594" on="1"/>
        <pt x="490" y="594" on="1"/>
        <pt x="361" y="75" on="1"/>
        <pt x="471" y="75" on="1"/>
        <pt x="453" y="0" on="1"/>
      </contour>
    </TTGlyph>
    <TTGlyph name="Tcaron" xMin="78" yMin="0" xMax="741" yMax="932">
      <component glyphName="T" x="0" y="0" flags="0x204"/>
      <component glyphName="caron" x="213" y="202" flags="0x4"/>
    </TTGlyph>
    <TTGlyph name="Thorn" xMin="-26" yMin="0" xMax="635" yMax="658">
      <contour>
        <pt x="-26" y="0" on="1"/>
        <pt x="-8" y="75" on="1"/>
        <pt x="92" y="75" on="1"/>
        <pt x="219" y="583" on="1"/>
        <pt x="117" y="583" on="1"/>
        <pt x="136" y="658" on="1"/>
        <pt x="460" y="658" on="1"/>
        <pt x="442" y="583" on="1"/>
        <pt x="345" y="583" on="1"/>
        <pt x="330" y="524" on="1"/>
        <pt x="384" y="524" on="1"/>
        <pt x="519" y="524" on="0"/>
        <pt x="635" y="433" on="0"/>
        <pt x="635" y="359" on="1"/>
        <pt x="635" y="328" on="0"/>
        <pt x="607" y="255" on="0"/>
        <pt x="538" y="193" on="0"/>
        <pt x="418" y="152" on="0"/>
        <pt x="326" y="152" on="1"/>
        <pt x="237" y="152" on="1"/>
        <pt x="218" y="75" on="1"/>
        <pt x="317" y="75" on="1"/>
        <pt x="299" y="0" on="1"/>
      </contour>
      <contour>
        <pt x="255" y="224" on="1"/>
        <pt x="328" y="224" on="1"/>
        <pt x="375" y="224" on="0"/>
        <pt x="438" y="248" on="0"/>
        <pt x="476" y="286" on="0"/>
        <pt x="493" y="335" on="0"/>
        <pt x="493" y="359" on="1"/>
        <pt x="493" y="406" on="0"/>
        <pt x="434" y="452" on="0"/>
        <pt x="362" y="452" on="1"/>
        <pt x="312" y="452" on="1"/>
      </contour>
    </TTGlyph>
    <TTGlyph name="U" xMin="104" yMin="-17" xMax="822" yMax="658">
      <contour>
        <pt x="351" y="-17" on="1"/>
        <pt x="290" y="-17" on="0"/>
        <pt x="197" y="12" on="0"/>
        <pt x="135" y="61" on="0"/>
        <pt x="104" y="129" on="0"/>
        <pt x="104" y="167" on="1"/>
        <pt x="104" y="187" on="0"/>
        <pt x="111" y="235" on="0"/>
        <pt x="116" y="256" on="1"/>
        <pt x="198" y="583" on="1"/>
        <pt x="106" y="583" on="1"/>
        <pt x="125" y="658" on="1"/>
        <pt x="434" y="658" on="1"/>
        <pt x="415" y="583" on="1"/>
        <pt x="324" y="583" on="1"/>
        <pt x="241" y="250" on="1"/>
        <pt x="237" y="231" on="0"/>
        <pt x="232" y="195" on="0"/>
        <pt x="232" y="179" on="1"/>
        <pt x="232" y="122" on="0"/>
        <pt x="312" y="66" on="0"/>
        <pt x="372" y="66" on="1"/>
        <pt x="406" y="66" on="0"/>
        <pt x="465" y="87" on="0"/>
        <pt x="487" y="109" on="1"/>
        <pt x="506" y="128" on="0"/>
        <pt x="535" y="187" on="0"/>
        <pt x="545" y="224" on="1"/>
        <pt x="634" y="583" on="1"/>
        <pt x="540" y="583" on="1"/>
        <pt x="559" y="658" on="1"/>
        <pt x="822" y="658" on="1"/>
        <pt x="804" y="583" on="1"/>
        <pt x="716" y="583" on="1"/>
        <pt x="620" y="198" on="1"/>
        <pt x="610" y="158" on="0"/>
        <pt x="576" y="84" on="0"/>
        <pt x="545" y="53" on="1"/>
        <pt x="514" y="22" on="0"/>
        <pt x="419" y="-17" on="0"/>
      </contour>
    </TTGlyph>
    <TTGlyph name="Uacute" xMin="104" yMin="-17" xMax="822" yMax="942">
      <component glyphName="U" x="0" y="0" flags="0x204"/>
      <component glyphName="acute" x="330" y="202" flags="0x4"/>
    </TTGlyph>
    <TTGlyph name="Ubreve" xMin="104" yMin="-17" xMax="822" yMax="907">
      <component glyphName="U" x="0" y="0" flags="0x204"/>
      <component glyphName="breve" x="242" y="202" flags="0x4"/>
    </TTGlyph>
    <TTGlyph name="Ucircumflex" xMin="104" yMin="-17" xMax="822" yMax="926">
      <component glyphName="U" x="0" y="0" flags="0x204"/>
      <component glyphName="circumflex" x="260" y="202" flags="0x4"/>
    </TTGlyph>
    <TTGlyph name="Udieresis" xMin="104" yMin="-17" xMax="822" yMax="889">
      <component glyphName="U" x="0" y="0" flags="0x204"/>
      <component glyphName="dieresis" x="253" y="202" flags="0x4"/>
    </TTGlyph>
    <TTGlyph name="Ugrave" xMin="104" yMin="-17" xMax="822" yMax="941">
      <component glyphName="U" x="0" y="0" flags="0x204"/>
      <component glyphName="grave" x="250" y="202" flags="0x4"/>
    </TTGlyph>
    <TTGlyph name="Uhungarumlaut" xMin="104" yMin="-17" xMax="822" yMax="942">
      <component glyphName="U" x="0" y="0" flags="0x204"/>
      <component glyphName="hungarumlaut" x="315" y="202" flags="0x4"/>
    </TTGlyph>
    <TTGlyph name="Umacron" xMin="104" yMin="-17" xMax="822" yMax="832">
      <component glyphName="U" x="0" y="0" flags="0x204"/>
      <component glyphName="macron" x="258" y="202" flags="0x4"/>
    </TTGlyph>
    <TTGlyph name="Uogonek" xMin="104" yMin="-246" xMax="822" yMax="658">
      <contour>
        <pt x="286" y="-246" on="1"/>
        <pt x="239" y="-246" on="0"/>
        <pt x="174" y="-200" on="0"/>
        <pt x="174" y="-156" on="1"/>
        <pt x="174" y="-118" on="0"/>
        <pt x="230" y="-53" on="0"/>
        <pt x="291" y="-13" on="1"/>
        <pt x="199" y="0" on="0"/>
        <pt x="104" y="100" on="0"/>
        <pt x="104" y="167" on="1"/>
        <pt x="104" y="187" on="0"/>
        <pt x="111" y="235" on="0"/>
        <pt x="116" y="256" on="1"/>
        <pt x="198" y="583" on="1"/>
        <pt x="106" y="583" on="1"/>
        <pt x="125" y="658" on="1"/>
        <pt x="434" y="658" on="1"/>
        <pt x="415" y="583" on="1"/>
        <pt x="324" y="583" on="1"/>
        <pt x="241" y="250" on="1"/>
        <pt x="237" y="231" on="0"/>
        <pt x="232" y="195" on="0"/>
        <pt x="232" y="179" on="1"/>
        <pt x="232" y="122" on="0"/>
        <pt x="312" y="66" on="0"/>
        <pt x="372" y="66" on="1"/>
        <pt x="406" y="66" on="0"/>
        <pt x="465" y="87" on="0"/>
        <pt x="487" y="109" on="1"/>
        <pt x="506" y="128" on="0"/>
        <pt x="535" y="187" on="0"/>
        <pt x="545" y="224" on="1"/>
        <pt x="634" y="583" on="1"/>
        <pt x="540" y="583" on="1"/>
        <pt x="559" y="658" on="1"/>
        <pt x="822" y="658" on="1"/>
        <pt x="804" y="583" on="1"/>
        <pt x="716" y="583" on="1"/>
        <pt x="620" y="198" on="1"/>
        <pt x="610" y="158" on="0"/>
        <pt x="576" y="84" on="0"/>
        <pt x="545" y="53" on="1"/>
        <pt x="516" y="24" on="0"/>
        <pt x="427" y="-15" on="0"/>
        <pt x="364" y="-17" on="1"/>
        <pt x="304" y="-66" on="0"/>
        <pt x="266" y="-119" on="0"/>
        <pt x="266" y="-141" on="1"/>
        <pt x="266" y="-157" on="0"/>
        <pt x="289" y="-185" on="0"/>
        <pt x="317" y="-185" on="1"/>
        <pt x="332" y="-185" on="0"/>
        <pt x="363" y="-174" on="0"/>
        <pt x="377" y="-165" on="1"/>
        <pt x="397" y="-209" on="1"/>
        <pt x="374" y="-225" on="0"/>
        <pt x="317" y="-246" on="0"/>
      </contour>
    </TTGlyph>
    <TTGlyph name="Uring" xMin="104" yMin="-17" xMax="822" yMax="946">
      <component glyphName="U" x="0" y="0" flags="0x204"/>
      <component glyphName="ring" x="293" y="202" flags="0x4"/>
    </TTGlyph>
    <TTGlyph name="V" xMin="74" yMin="-4" xMax="792" yMax="658">
      <contour>
        <pt x="228" y="-4" on="1"/>
        <pt x="161" y="583" on="1"/>
        <pt x="74" y="583" on="1"/>
        <pt x="92" y="658" on="1"/>
        <pt x="401" y="658" on="1"/>
        <pt x="383" y="583" on="1"/>
        <pt x="289" y="583" on="1"/>
        <pt x="333" y="116" on="1"/>
        <pt x="337" y="116" on="1"/>
        <pt x="613" y="583" on="1"/>
        <pt x="529" y="583" on="1"/>
        <pt x="548" y="658" on="1"/>
        <pt x="792" y="658" on="1"/>
        <pt x="774" y="583" on="1"/>
        <pt x="705" y="583" on="1"/>
        <pt x="343" y="-4" on="1"/>
      </contour>
    </TTGlyph>
    <TTGlyph name="W" xMin="74" yMin="-4" xMax="1099" yMax="658">
      <contour>
        <pt x="201" y="-4" on="1"/>
        <pt x="162" y="583" on="1"/>
        <pt x="74" y="583" on="1"/>
        <pt x="92" y="658" on="1"/>
        <pt x="393" y="658" on="1"/>
        <pt x="375" y="584" on="1"/>
        <pt x="289" y="584" on="1"/>
        <pt x="310" y="126" on="1"/>
        <pt x="315" y="126" on="1"/>
        <pt x="540" y="513" on="1"/>
        <pt x="537" y="584" on="1"/>
        <pt x="450" y="584" on="1"/>
        <pt x="468" y="658" on="1"/>
        <pt x="769" y="658" on="1"/>
        <pt x="751" y="584" on="1"/>
        <pt x="659" y="584" on="1"/>
        <pt x="674" y="126" on="1"/>
        <pt x="679" y="126" on="1"/>
        <pt x="921" y="584" on="1"/>
        <pt x="836" y="584" on="1"/>
        <pt x="854" y="658" on="1"/>
        <pt x="1099" y="658" on="1"/>
        <pt x="1080" y="583" on="1"/>
        <pt x="1012" y="583" on="1"/>
        <pt x="683" y="-4" on="1"/>
        <pt x="566" y="-4" on="1"/>
        <pt x="547" y="395" on="1"/>
        <pt x="316" y="-4" on="1"/>
      </contour>
    </TTGlyph>
    <TTGlyph name="Wacute" xMin="74" yMin="-4" xMax="1099" yMax="942">
      <component glyphName="W" x="0" y="0" flags="0x204"/>
      <component glyphName="acute" x="448" y="202" flags="0x4"/>
    </TTGlyph>
    <TTGlyph name="Wcircumflex" xMin="74" yMin="-4" xMax="1099" yMax="926">
      <component glyphName="W" x="0" y="0" flags="0x204"/>
      <component glyphName="circumflex" x="378" y="202" flags="0x4"/>
    </TTGlyph>
    <TTGlyph name="Wdieresis" xMin="74" yMin="-4" xMax="1099" yMax="889">
      <component glyphName="W" x="0" y="0" flags="0x204"/>
      <component glyphName="dieresis" x="371" y="202" flags="0x4"/>
    </TTGlyph>
    <TTGlyph name="Wgrave" xMin="74" yMin="-4" xMax="1099" yMax="941">
      <component glyphName="W" x="0" y="0" flags="0x204"/>
      <component glyphName="grave" x="368" y="202" flags="0x4"/>
    </TTGlyph>
    <TTGlyph name="X" xMin="-45" yMin="0" xMax="770" yMax="658">
      <contour>
        <pt x="-45" y="0" on="1"/>
        <pt x="-26" y="75" on="1"/>
        <pt x="50" y="75" on="1"/>
        <pt x="303" y="331" on="1"/>
        <pt x="187" y="583" on="1"/>
        <pt x="102" y="583" on="1"/>
        <pt x="120" y="658" on="1"/>
        <pt x="422" y="658" on="1"/>
        <pt x="404" y="584" on="1"/>
        <pt x="322" y="584" on="1"/>
        <pt x="400" y="399" on="1"/>
        <pt x="575" y="584" on="1"/>
        <pt x="497" y="584" on="1"/>
        <pt x="516" y="658" on="1"/>
        <pt x="770" y="658" on="1"/>
        <pt x="752" y="583" on="1"/>
        <pt x="675" y="583" on="1"/>
        <pt x="436" y="340" on="1"/>
        <pt x="555" y="75" on="1"/>
        <pt x="641" y="75" on="1"/>
        <pt x="623" y="0" on="1"/>
        <pt x="320" y="0" on="1"/>
        <pt x="338" y="74" on="1"/>
        <pt x="422" y="74" on="1"/>
        <pt x="340" y="272" on="1"/>
        <pt x="149" y="74" on="1"/>
        <pt x="228" y="74" on="1"/>
        <pt x="210" y="0" on="1"/>
      </contour>
    </TTGlyph>
    <TTGlyph name="Y" xMin="95" yMin="0" xMax="751" yMax="658">
      <contour>
        <pt x="110" y="0" on="1"/>
        <pt x="128" y="75" on="1"/>
        <pt x="223" y="75" on="1"/>
        <pt x="274" y="277" on="1"/>
        <pt x="173" y="583" on="1"/>
        <pt x="95" y="583" on="1"/>
        <pt x="113" y="658" on="1"/>
        <pt x="414" y="658" on="1"/>
        <pt x="395" y="584" on="1"/>
        <pt x="309" y="584" on="1"/>
        <pt x="381" y="343" on="1"/>
        <pt x="576" y="584" on="1"/>
        <pt x="496" y="584" on="1"/>
        <pt x="514" y="658" on="1"/>
        <pt x="751" y="658" on="1"/>
        <pt x="732" y="583" on="1"/>
        <pt x="662" y="583" on="1"/>
        <pt x="397" y="269" on="1"/>
        <pt x="349" y="75" on="1"/>
        <pt x="446" y="75" on="1"/>
        <pt x="428" y="0" on="1"/>
      </contour>
    </TTGlyph>
    <TTGlyph name="Yacute" xMin="95" yMin="0" xMax="751" yMax="942">
      <component glyphName="Y" x="0" y="0" flags="0x204"/>
      <component glyphName="acute" x="276" y="202" flags="0x4"/>
    </TTGlyph>
    <TTGlyph name="Ycircumflex" xMin="95" yMin="0" xMax="751" yMax="926">
      <component glyphName="Y" x="0" y="0" flags="0x204"/>
      <component glyphName="circumflex" x="206" y="202" flags="0x4"/>
    </TTGlyph>
    <TTGlyph name="Ydieresis" xMin="95" yMin="0" xMax="751" yMax="889">
      <component glyphName="Y" x="0" y="0" flags="0x204"/>
      <component glyphName="dieresis" x="198" y="202" flags="0x4"/>
    </TTGlyph>
    <TTGlyph name="Ygrave" xMin="95" yMin="0" xMax="751" yMax="941">
      <component glyphName="Y" x="0" y="0" flags="0x204"/>
      <component glyphName="grave" x="196" y="202" flags="0x4"/>
    </TTGlyph>
    <TTGlyph name="Z" xMin="-20" yMin="0" xMax="683" yMax="658">
      <contour>
        <pt x="-20" y="0" on="1"/>
        <pt x="-4" y="63" on="1"/>
        <pt x="503" y="584" on="1"/>
        <pt x="345" y="584" on="1"/>
        <pt x="316" y="584" on="0"/>
        <pt x="274" y="575" on="0"/>
        <pt x="236" y="540" on="0"/>
        <pt x="191" y="470" on="0"/>
        <pt x="159" y="410" on="1"/>
        <pt x="101" y="410" on="1"/>
        <pt x="163" y="658" on="1"/>
        <pt x="683" y="658" on="1"/>
        <pt x="667" y="595" on="1"/>
        <pt x="161" y="74" on="1"/>
        <pt x="340" y="74" on="1"/>
        <pt x="369" y="74" on="0"/>
        <pt x="411" y="85" on="0"/>
        <pt x="450" y="122" on="0"/>
        <pt x="495" y="195" on="0"/>
        <pt x="527" y="256" on="1"/>
        <pt x="586" y="256" on="1"/>
        <pt x="522" y="0" on="1"/>
      </contour>
    </TTGlyph>
    <TTGlyph name="Zacute" xMin="-20" yMin="0" xMax="683" yMax="942">
      <component glyphName="Z" x="0" y="0" flags="0x204"/>
      <component glyphName="acute" x="252" y="202" flags="0x4"/>
    </TTGlyph>
    <TTGlyph name="Zcaron" xMin="-20" yMin="0" xMax="683" yMax="932">
      <component glyphName="Z" x="0" y="0" flags="0x204"/>
      <component glyphName="caron" x="181" y="202" flags="0x4"/>
    </TTGlyph>
    <TTGlyph name="Zdotaccent" xMin="-20" yMin="0" xMax="683" yMax="881">
      <component glyphName="Z" x="0" y="0" flags="0x204"/>
      <component glyphName="dotaccent" x="248" y="202" flags="0x4"/>
    </TTGlyph>
    <TTGlyph name="a" xMin="29" yMin="-10" xMax="553" yMax="471">
      <contour>
        <pt x="157" y="-10" on="1"/>
        <pt x="98" y="-10" on="0"/>
        <pt x="29" y="79" on="0"/>
        <pt x="29" y="148" on="1"/>
        <pt x="29" y="221" on="0"/>
        <pt x="82" y="352" on="0"/>
        <pt x="125" y="395" on="1"/>
        <pt x="160" y="430" on="0"/>
        <pt x="241" y="471" on="0"/>
        <pt x="281" y="471" on="1"/>
        <pt x="324" y="471" on="0"/>
        <pt x="372" y="421" on="0"/>
        <pt x="377" y="387" on="1"/>
        <pt x="399" y="464" on="1"/>
        <pt x="513" y="464" on="1"/>
        <pt x="427" y="155" on="1"/>
        <pt x="422" y="136" on="0"/>
        <pt x="417" y="107" on="0"/>
        <pt x="417" y="97" on="1"/>
        <pt x="417" y="85" on="0"/>
        <pt x="428" y="71" on="0"/>
        <pt x="440" y="71" on="1"/>
        <pt x="456" y="71" on="0"/>
        <pt x="488" y="119" on="0"/>
        <pt x="506" y="167" on="1"/>
        <pt x="553" y="151" on="1"/>
        <pt x="523" y="61" on="0"/>
        <pt x="446" y="-10" on="0"/>
        <pt x="401" y="-10" on="1"/>
        <pt x="364" y="-10" on="0"/>
        <pt x="317" y="34" on="0"/>
        <pt x="317" y="76" on="1"/>
        <pt x="317" y="81" on="0"/>
        <pt x="318" y="92" on="0"/>
        <pt x="319" y="100" on="1"/>
        <pt x="312" y="103" on="1"/>
        <pt x="282" y="47" on="0"/>
        <pt x="202" y="-10" on="0"/>
      </contour>
      <contour>
        <pt x="206" y="70" on="1"/>
        <pt x="237" y="70" on="0"/>
        <pt x="290" y="129" on="0"/>
        <pt x="330" y="211" on="0"/>
        <pt x="353" y="300" on="0"/>
        <pt x="353" y="329" on="1"/>
        <pt x="353" y="366" on="0"/>
        <pt x="324" y="406" on="0"/>
        <pt x="299" y="406" on="1"/>
        <pt x="266" y="406" on="0"/>
        <pt x="210" y="351" on="0"/>
        <pt x="170" y="273" on="0"/>
        <pt x="148" y="187" on="0"/>
        <pt x="148" y="157" on="1"/>
        <pt x="148" y="115" on="0"/>
        <pt x="178" y="70" on="0"/>
      </contour>
    </TTGlyph>
    <TTGlyph name="aacute" xMin="29" yMin="-10" xMax="553" yMax="740">
      <component glyphName="a" x="0" y="0" flags="0x204"/>
      <component glyphName="acute" x="160" y="0" flags="0x4"/>
    </TTGlyph>
    <TTGlyph name="abreve" xMin="29" yMin="-10" xMax="553" yMax="705">
      <component glyphName="a" x="0" y="0" flags="0x204"/>
      <component glyphName="breve" x="73" y="0" flags="0x4"/>
    </TTGlyph>
    <TTGlyph name="acircumflex" xMin="29" yMin="-10" xMax="553" yMax="724">
      <component glyphName="a" x="0" y="0" flags="0x204"/>
      <component glyphName="circumflex" x="90" y="0" flags="0x4"/>
    </TTGlyph>
    <TTGlyph name="acute" xMin="125" yMin="534" xMax="338" yMax="740">
      <contour>
        <pt x="125" y="534" on="1"/>
        <pt x="208" y="668" on="1"/>
        <pt x="228" y="701" on="0"/>
        <pt x="262" y="740" on="0"/>
        <pt x="287" y="740" on="1"/>
        <pt x="310" y="740" on="0"/>
        <pt x="338" y="707" on="0"/>
        <pt x="338" y="689" on="1"/>
        <pt x="338" y="667" on="0"/>
        <pt x="310" y="636" on="0"/>
        <pt x="276" y="608" on="1"/>
        <pt x="183" y="534" on="1"/>
      </contour>
    </TTGlyph>
    <TTGlyph name="adieresis" xMin="29" yMin="-10" xMax="553" yMax="687">
      <component glyphName="a" x="0" y="0" flags="0x204"/>
      <component glyphName="dieresis" x="83" y="0" flags="0x4"/>
    </TTGlyph>
    <TTGlyph name="ae" xMin="10" yMin="-10" xMax="709" yMax="471">
      <contour>
        <pt x="467" y="-10" on="1"/>
        <pt x="408" y="-10" on="0"/>
        <pt x="328" y="42" on="0"/>
        <pt x="311" y="86" on="1"/>
        <pt x="277" y="39" on="0"/>
        <pt x="186" y="-6" on="0"/>
        <pt x="135" y="-6" on="1"/>
        <pt x="72" y="-6" on="0"/>
        <pt x="10" y="56" on="0"/>
        <pt x="10" y="101" on="1"/>
        <pt x="10" y="175" on="0"/>
        <pt x="167" y="262" on="0"/>
        <pt x="315" y="268" on="1"/>
        <pt x="323" y="294" on="0"/>
        <pt x="332" y="333" on="0"/>
        <pt x="332" y="343" on="1"/>
        <pt x="332" y="377" on="0"/>
        <pt x="286" y="414" on="0"/>
        <pt x="246" y="414" on="1"/>
        <pt x="232" y="414" on="0"/>
        <pt x="204" y="408" on="0"/>
        <pt x="191" y="404" on="1"/>
        <pt x="198" y="397" on="0"/>
        <pt x="207" y="375" on="0"/>
        <pt x="207" y="365" on="1"/>
        <pt x="207" y="339" on="0"/>
        <pt x="171" y="299" on="0"/>
        <pt x="138" y="299" on="1"/>
        <pt x="110" y="299" on="0"/>
        <pt x="80" y="333" on="0"/>
        <pt x="80" y="358" on="1"/>
        <pt x="80" y="401" on="0"/>
        <pt x="175" y="471" on="0"/>
        <pt x="267" y="471" on="1"/>
        <pt x="319" y="471" on="0"/>
        <pt x="392" y="439" on="0"/>
        <pt x="410" y="410" on="1"/>
        <pt x="446" y="440" on="0"/>
        <pt x="530" y="471" on="0"/>
        <pt x="575" y="471" on="1"/>
        <pt x="639" y="471" on="0"/>
        <pt x="709" y="413" on="0"/>
        <pt x="709" y="367" on="1"/>
        <pt x="709" y="301" on="0"/>
        <pt x="562" y="197" on="0"/>
        <pt x="404" y="188" on="1"/>
        <pt x="403" y="182" on="0"/>
        <pt x="403" y="170" on="0"/>
        <pt x="403" y="165" on="1"/>
        <pt x="403" y="103" on="0"/>
        <pt x="460" y="56" on="0"/>
        <pt x="497" y="56" on="1"/>
        <pt x="534" y="56" on="0"/>
        <pt x="606" y="104" on="0"/>
        <pt x="637" y="148" on="1"/>
        <pt x="679" y="118" on="1"/>
        <pt x="641" y="64" on="0"/>
        <pt x="541" y="-10" on="0"/>
      </contour>
      <contour>
        <pt x="557" y="416" on="1"/>
        <pt x="531" y="416" on="0"/>
        <pt x="485" y="384" on="0"/>
        <pt x="449" y="332" on="0"/>
        <pt x="421" y="268" on="0"/>
        <pt x="413" y="236" on="1"/>
        <pt x="517" y="246" on="0"/>
        <pt x="603" y="320" on="0"/>
        <pt x="603" y="366" on="1"/>
        <pt x="603" y="387" on="0"/>
        <pt x="580" y="416" on="0"/>
      </contour>
      <contour>
        <pt x="184" y="63" on="1"/>
        <pt x="210" y="63" on="0"/>
        <pt x="268" y="94" on="0"/>
        <pt x="299" y="132" on="1"/>
        <pt x="298" y="139" on="0"/>
        <pt x="297" y="154" on="0"/>
        <pt x="297" y="162" on="1"/>
        <pt x="297" y="178" on="0"/>
        <pt x="300" y="209" on="0"/>
        <pt x="303" y="224" on="1"/>
        <pt x="216" y="213" on="0"/>
        <pt x="129" y="162" on="0"/>
        <pt x="129" y="116" on="1"/>
        <pt x="129" y="95" on="0"/>
        <pt x="158" y="63" on="0"/>
      </contour>
    </TTGlyph>
    <TTGlyph name="aeacute" xMin="10" yMin="-10" xMax="709" yMax="740">
      <component glyphName="ae" x="0" y="0" flags="0x204"/>
      <component glyphName="acute" x="280" y="0" flags="0x4"/>
    </TTGlyph>
    <TTGlyph name="agrave" xMin="29" yMin="-10" xMax="553" yMax="739">
      <component glyphName="a" x="0" y="0" flags="0x204"/>
      <component glyphName="grave" x="80" y="0" flags="0x4"/>
    </TTGlyph>
    <TTGlyph name="amacron" xMin="29" yMin="-10" xMax="553" yMax="630">
      <component glyphName="a" x="0" y="0" flags="0x204"/>
      <component glyphName="macron" x="88" y="0" flags="0x4"/>
    </TTGlyph>
    <TTGlyph name="ampersand" xMin="17" yMin="-16" xMax="686" yMax="633">
      <contour>
        <pt x="191" y="-16" on="1"/>
        <pt x="114" y="-16" on="0"/>
        <pt x="17" y="67" on="0"/>
        <pt x="17" y="136" on="1"/>
        <pt x="17" y="204" on="0"/>
        <pt x="117" y="313" on="0"/>
        <pt x="227" y="345" on="1"/>
        <pt x="202" y="382" on="0"/>
        <pt x="181" y="437" on="0"/>
        <pt x="181" y="467" on="1"/>
        <pt x="181" y="505" on="0"/>
        <pt x="212" y="567" on="0"/>
        <pt x="263" y="610" on="0"/>
        <pt x="331" y="633" on="0"/>
        <pt x="368" y="633" on="1"/>
        <pt x="440" y="633" on="0"/>
        <pt x="524" y="559" on="0"/>
        <pt x="524" y="504" on="1"/>
        <pt x="524" y="485" on="0"/>
        <pt x="511" y="443" on="0"/>
        <pt x="475" y="400" on="0"/>
        <pt x="412" y="358" on="0"/>
        <pt x="362" y="340" on="1"/>
        <pt x="384" y="307" on="0"/>
        <pt x="418" y="243" on="0"/>
        <pt x="431" y="212" on="1"/>
        <pt x="452" y="244" on="0"/>
        <pt x="491" y="309" on="0"/>
        <pt x="533" y="359" on="0"/>
        <pt x="581" y="391" on="0"/>
        <pt x="611" y="391" on="1"/>
        <pt x="642" y="391" on="0"/>
        <pt x="686" y="353" on="0"/>
        <pt x="686" y="320" on="1"/>
        <pt x="686" y="287" on="0"/>
        <pt x="648" y="233" on="0"/>
        <pt x="618" y="233" on="1"/>
        <pt x="588" y="233" on="0"/>
        <pt x="560" y="276" on="0"/>
        <pt x="568" y="305" on="1"/>
        <pt x="538" y="286" on="0"/>
        <pt x="485" y="207" on="0"/>
        <pt x="457" y="162" on="1"/>
        <pt x="478" y="113" on="0"/>
        <pt x="512" y="67" on="0"/>
        <pt x="528" y="67" on="1"/>
        <pt x="545" y="67" on="0"/>
        <pt x="576" y="96" on="0"/>
        <pt x="602" y="145" on="1"/>
        <pt x="646" y="120" on="1"/>
        <pt x="612" y="45" on="0"/>
        <pt x="544" y="-15" on="0"/>
        <pt x="501" y="-15" on="1"/>
        <pt x="452" y="-15" on="0"/>
        <pt x="399" y="33" on="0"/>
        <pt x="374" y="80" on="1"/>
        <pt x="337" y="37" on="0"/>
        <pt x="251" y="-16" on="0"/>
      </contour>
      <contour>
        <pt x="292" y="491" on="1"/>
        <pt x="292" y="469" on="0"/>
        <pt x="311" y="421" on="0"/>
        <pt x="336" y="380" on="1"/>
        <pt x="391" y="408" on="0"/>
        <pt x="429" y="476" on="0"/>
        <pt x="429" y="506" on="1"/>
        <pt x="429" y="534" on="0"/>
        <pt x="396" y="574" on="0"/>
        <pt x="364" y="574" on="1"/>
        <pt x="335" y="574" on="0"/>
        <pt x="292" y="529" on="0"/>
      </contour>
      <contour>
        <pt x="142" y="156" on="1"/>
        <pt x="142" y="114" on="0"/>
        <pt x="188" y="65" on="0"/>
        <pt x="228" y="65" on="1"/>
        <pt x="266" y="65" on="0"/>
        <pt x="322" y="97" on="0"/>
        <pt x="347" y="125" on="1"/>
        <pt x="328" y="175" on="0"/>
        <pt x="285" y="258" on="0"/>
        <pt x="255" y="304" on="1"/>
        <pt x="188" y="274" on="0"/>
        <pt x="142" y="193" on="0"/>
      </contour>
    </TTGlyph>
    <TTGlyph name="aogonek" xMin="29" yMin="-246" xMax="553" yMax="471">
      <contour>
        <pt x="361" y="-246" on="1"/>
        <pt x="313" y="-246" on="0"/>
        <pt x="248" y="-200" on="0"/>
        <pt x="248" y="-156" on="1"/>
        <pt x="248" y="-117" on="0"/>
        <pt x="308" y="-49" on="0"/>
        <pt x="375" y="-6" on="1"/>
        <pt x="353" y="-2" on="0"/>
        <pt x="317" y="37" on="0"/>
        <pt x="317" y="76" on="1"/>
        <pt x="317" y="81" on="0"/>
        <pt x="318" y="92" on="0"/>
        <pt x="319" y="100" on="1"/>
        <pt x="312" y="103" on="1"/>
        <pt x="282" y="47" on="0"/>
        <pt x="202" y="-10" on="0"/>
        <pt x="157" y="-10" on="1"/>
        <pt x="98" y="-10" on="0"/>
        <pt x="29" y="79" on="0"/>
        <pt x="29" y="148" on="1"/>
        <pt x="29" y="221" on="0"/>
        <pt x="82" y="352" on="0"/>
        <pt x="125" y="395" on="1"/>
        <pt x="160" y="430" on="0"/>
        <pt x="241" y="471" on="0"/>
        <pt x="281" y="471" on="1"/>
        <pt x="324" y="471" on="0"/>
        <pt x="372" y="421" on="0"/>
        <pt x="377" y="387" on="1"/>
        <pt x="399" y="464" on="1"/>
        <pt x="513" y="464" on="1"/>
        <pt x="427" y="155" on="1"/>
        <pt x="422" y="136" on="0"/>
        <pt x="417" y="107" on="0"/>
        <pt x="417" y="97" on="1"/>
        <pt x="417" y="85" on="0"/>
        <pt x="428" y="71" on="0"/>
        <pt x="440" y="71" on="1"/>
        <pt x="456" y="71" on="0"/>
        <pt x="488" y="119" on="0"/>
        <pt x="506" y="167" on="1"/>
        <pt x="553" y="151" on="1"/>
        <pt x="535" y="98" on="0"/>
        <pt x="494" y="28" on="0"/>
        <pt x="451" y="-5" on="1"/>
        <pt x="382" y="-59" on="0"/>
        <pt x="340" y="-119" on="0"/>
        <pt x="340" y="-141" on="1"/>
        <pt x="340" y="-157" on="0"/>
        <pt x="364" y="-185" on="0"/>
        <pt x="392" y="-185" on="1"/>
        <pt x="406" y="-185" on="0"/>
        <pt x="437" y="-174" on="0"/>
        <pt x="452" y="-165" on="1"/>
        <pt x="472" y="-209" on="1"/>
        <pt x="448" y="-225" on="0"/>
        <pt x="392" y="-246" on="0"/>
      </contour>
      <contour>
        <pt x="206" y="70" on="1"/>
        <pt x="237" y="70" on="0"/>
        <pt x="290" y="129" on="0"/>
        <pt x="330" y="211" on="0"/>
        <pt x="353" y="300" on="0"/>
        <pt x="353" y="329" on="1"/>
        <pt x="353" y="366" on="0"/>
        <pt x="324" y="406" on="0"/>
        <pt x="299" y="406" on="1"/>
        <pt x="266" y="406" on="0"/>
        <pt x="210" y="351" on="0"/>
        <pt x="170" y="273" on="0"/>
        <pt x="148" y="187" on="0"/>
        <pt x="148" y="157" on="1"/>
        <pt x="148" y="115" on="0"/>
        <pt x="178" y="70" on="0"/>
      </contour>
    </TTGlyph>
    <TTGlyph name="aring" xMin="29" yMin="-10" xMax="553" yMax="744">
      <component glyphName="a" x="0" y="0" flags="0x204"/>
      <component glyphName="ring" x="122" y="0" flags="0x4"/>
    </TTGlyph>
    <TTGlyph name="aringacute" xMin="29" yMin="-10" xMax="561" yMax="991">
      <component glyphName="a" x="0" y="0" flags="0x204"/>
      <component glyphName="ring" x="122" y="0" flags="0x4"/>
      <component glyphName="acute" x="223" y="251" flags="0x4"/>
    </TTGlyph>
    <TTGlyph name="asciicircum" xMin="53" yMin="277" xMax="495" yMax="650">
      <contour>
        <pt x="53" y="277" on="1"/>
        <pt x="331" y="650" on="1"/>
        <pt x="403" y="650" on="1"/>
        <pt x="495" y="277" on="1"/>
        <pt x="414" y="277" on="1"/>
        <pt x="351" y="565" on="1"/>
        <pt x="145" y="277" on="1"/>
      </contour>
    </TTGlyph>
    <TTGlyph name="asciicircum.osf" xMin="49" yMin="265" xMax="491" yMax="638">
      <contour>
        <pt x="49" y="265" on="1"/>
        <pt x="328" y="638" on="1"/>
        <pt x="399" y="638" on="1"/>
        <pt x="491" y="265" on="1"/>
        <pt x="411" y="265" on="1"/>
        <pt x="348" y="553" on="1"/>
        <pt x="142" y="265" on="1"/>
      </contour>
    </TTGlyph>
    <TTGlyph name="asciicircum.tab" xMin="60" yMin="272" xMax="501" yMax="645">
      <contour>
        <pt x="60" y="272" on="1"/>
        <pt x="338" y="645" on="1"/>
        <pt x="410" y="645" on="1"/>
        <pt x="501" y="272" on="1"/>
        <pt x="421" y="272" on="1"/>
        <pt x="358" y="560" on="1"/>
        <pt x="152" y="272" on="1"/>
      </contour>
    </TTGlyph>
    <TTGlyph name="asciitilde" xMin="69" yMin="197" xMax="677" yMax="437">
      <contour>
        <pt x="135" y="197" on="1"/>
        <pt x="69" y="230" on="1"/>
        <pt x="122" y="337" on="0"/>
        <pt x="221" y="434" on="0"/>
        <pt x="278" y="434" on="1"/>
        <pt x="318" y="434" on="0"/>
        <pt x="372" y="387" on="0"/>
        <pt x="413" y="331" on="0"/>
        <pt x="451" y="284" on="0"/>
        <pt x="475" y="284" on="1"/>
        <pt x="512" y="284" on="0"/>
        <pt x="576" y="368" on="0"/>
        <pt x="612" y="437" on="1"/>
        <pt x="677" y="404" on="1"/>
        <pt x="625" y="297" on="0"/>
        <pt x="525" y="200" on="0"/>
        <pt x="468" y="200" on="1"/>
        <pt x="428" y="200" on="0"/>
        <pt x="375" y="247" on="0"/>
        <pt x="333" y="303" on="0"/>
        <pt x="295" y="350" on="0"/>
        <pt x="271" y="350" on="1"/>
        <pt x="234" y="350" on="0"/>
        <pt x="170" y="266" on="0"/>
      </contour>
    </TTGlyph>
    <TTGlyph name="asciitilde.osf" xMin="60" yMin="163" xMax="669" yMax="402">
      <contour>
        <pt x="126" y="163" on="1"/>
        <pt x="60" y="196" on="1"/>
        <pt x="114" y="303" on="0"/>
        <pt x="213" y="399" on="0"/>
        <pt x="270" y="399" on="1"/>
        <pt x="310" y="399" on="0"/>
        <pt x="363" y="352" on="0"/>
        <pt x="404" y="297" on="0"/>
        <pt x="442" y="250" on="0"/>
        <pt x="467" y="250" on="1"/>
        <pt x="504" y="250" on="0"/>
        <pt x="568" y="333" on="0"/>
        <pt x="603" y="402" on="1"/>
        <pt x="669" y="370" on="1"/>
        <pt x="616" y="263" on="0"/>
        <pt x="517" y="166" on="0"/>
        <pt x="460" y="166" on="1"/>
        <pt x="420" y="166" on="0"/>
        <pt x="367" y="213" on="0"/>
        <pt x="325" y="268" on="0"/>
        <pt x="287" y="315" on="0"/>
        <pt x="263" y="315" on="1"/>
        <pt x="226" y="315" on="0"/>
        <pt x="161" y="232" on="0"/>
      </contour>
    </TTGlyph>
    <TTGlyph name="asciitilde.tab" xMin="26" yMin="182" xMax="557" yMax="452">
      <contour>
        <pt x="93" y="182" on="1"/>
        <pt x="26" y="208" on="1"/>
        <pt x="73" y="334" on="0"/>
        <pt x="170" y="451" on="0"/>
        <pt x="223" y="451" on="1"/>
        <pt x="262" y="451" on="0"/>
        <pt x="303" y="394" on="0"/>
        <pt x="329" y="326" on="0"/>
        <pt x="351" y="269" on="0"/>
        <pt x="372" y="269" on="1"/>
        <pt x="403" y="269" on="0"/>
        <pt x="459" y="373" on="0"/>
        <pt x="490" y="452" on="1"/>
        <pt x="557" y="426" on="1"/>
        <pt x="509" y="301" on="0"/>
        <pt x="413" y="183" on="0"/>
        <pt x="360" y="183" on="1"/>
        <pt x="321" y="183" on="0"/>
        <pt x="280" y="240" on="0"/>
        <pt x="254" y="309" on="0"/>
        <pt x="232" y="366" on="0"/>
        <pt x="211" y="366" on="1"/>
        <pt x="180" y="366" on="0"/>
        <pt x="124" y="261" on="0"/>
      </contour>
    </TTGlyph>
    <TTGlyph name="asterisk" xMin="136" yMin="321" xMax="503" yMax="700">
      <contour>
        <pt x="377" y="329" on="1"/>
        <pt x="357" y="321" on="0"/>
        <pt x="326" y="336" on="0"/>
        <pt x="318" y="360" on="1"/>
        <pt x="312" y="377" on="0"/>
        <pt x="309" y="450" on="0"/>
        <pt x="308" y="481" on="1"/>
        <pt x="295" y="485" on="1"/>
        <pt x="278" y="457" on="0"/>
        <pt x="237" y="396" on="0"/>
        <pt x="224" y="385" on="1"/>
        <pt x="205" y="369" on="0"/>
        <pt x="171" y="372" on="0"/>
        <pt x="158" y="388" on="1"/>
        <pt x="145" y="405" on="0"/>
        <pt x="149" y="439" on="0"/>
        <pt x="169" y="454" on="1"/>
        <pt x="183" y="466" on="0"/>
        <pt x="251" y="491" on="0"/>
        <pt x="282" y="501" on="1"/>
        <pt x="280" y="515" on="1"/>
        <pt x="249" y="522" on="0"/>
        <pt x="179" y="541" on="0"/>
        <pt x="164" y="551" on="1"/>
        <pt x="143" y="565" on="0"/>
        <pt x="136" y="597" on="0"/>
        <pt x="148" y="616" on="1"/>
        <pt x="159" y="632" on="0"/>
        <pt x="193" y="639" on="0"/>
        <pt x="213" y="625" on="1"/>
        <pt x="228" y="615" on="0"/>
        <pt x="273" y="558" on="0"/>
        <pt x="292" y="532" on="1"/>
        <pt x="305" y="538" on="1"/>
        <pt x="303" y="571" on="0"/>
        <pt x="300" y="643" on="0"/>
        <pt x="304" y="660" on="1"/>
        <pt x="311" y="684" on="0"/>
        <pt x="340" y="700" on="0"/>
        <pt x="360" y="695" on="1"/>
        <pt x="380" y="689" on="0"/>
        <pt x="396" y="660" on="0"/>
        <pt x="389" y="635" on="1"/>
        <pt x="384" y="619" on="0"/>
        <pt x="345" y="558" on="0"/>
        <pt x="326" y="532" on="1"/>
        <pt x="334" y="521" on="1"/>
        <pt x="364" y="534" on="0"/>
        <pt x="432" y="559" on="0"/>
        <pt x="450" y="560" on="1"/>
        <pt x="475" y="561" on="0"/>
        <pt x="501" y="539" on="0"/>
        <pt x="502" y="518" on="1"/>
        <pt x="503" y="497" on="0"/>
        <pt x="479" y="473" on="0"/>
        <pt x="454" y="472" on="1"/>
        <pt x="435" y="471" on="0"/>
        <pt x="367" y="489" on="0"/>
        <pt x="336" y="499" on="1"/>
        <pt x="327" y="489" on="1"/>
        <pt x="348" y="464" on="0"/>
        <pt x="394" y="407" on="0"/>
        <pt x="401" y="390" on="1"/>
        <pt x="410" y="367" on="0"/>
        <pt x="397" y="337" on="0"/>
      </contour>
    </TTGlyph>
    <TTGlyph name="at" xMin="46" yMin="-149" xMax="865" yMax="686">
      <contour>
        <pt x="414" y="-149" on="1"/>
        <pt x="336" y="-149" on="0"/>
        <pt x="200" y="-100" on="0"/>
        <pt x="102" y="-9" on="0"/>
        <pt x="46" y="122" on="0"/>
        <pt x="46" y="203" on="1"/>
        <pt x="46" y="304" on="0"/>
        <pt x="123" y="481" on="0"/>
        <pt x="254" y="611" on="0"/>
        <pt x="430" y="686" on="0"/>
        <pt x="528" y="686" on="1"/>
        <pt x="599" y="686" on="0"/>
        <pt x="723" y="644" on="0"/>
        <pt x="813" y="565" on="0"/>
        <pt x="865" y="451" on="0"/>
        <pt x="865" y="379" on="1"/>
        <pt x="865" y="316" on="0"/>
        <pt x="830" y="198" on="0"/>
        <pt x="768" y="109" on="0"/>
        <pt x="680" y="55" on="0"/>
        <pt x="627" y="55" on="1"/>
        <pt x="577" y="55" on="0"/>
        <pt x="509" y="111" on="0"/>
        <pt x="515" y="169" on="1"/>
        <pt x="511" y="170" on="1"/>
        <pt x="484" y="117" on="0"/>
        <pt x="410" y="65" on="0"/>
        <pt x="373" y="65" on="1"/>
        <pt x="315" y="65" on="0"/>
        <pt x="243" y="147" on="0"/>
        <pt x="243" y="217" on="1"/>
        <pt x="243" y="268" on="0"/>
        <pt x="280" y="364" on="0"/>
        <pt x="342" y="436" on="0"/>
        <pt x="424" y="479" on="0"/>
        <pt x="468" y="479" on="1"/>
        <pt x="505" y="479" on="0"/>
        <pt x="558" y="433" on="0"/>
        <pt x="562" y="396" on="1"/>
        <pt x="586" y="472" on="1"/>
        <pt x="681" y="472" on="1"/>
        <pt x="604" y="228" on="1"/>
        <pt x="584" y="164" on="0"/>
        <pt x="611" y="111" on="0"/>
        <pt x="648" y="111" on="1"/>
        <pt x="674" y="111" on="0"/>
        <pt x="730" y="150" on="0"/>
        <pt x="776" y="220" on="0"/>
        <pt x="806" y="318" on="0"/>
        <pt x="806" y="377" on="1"/>
        <pt x="806" y="437" on="0"/>
        <pt x="765" y="535" on="0"/>
        <pt x="691" y="602" on="0"/>
        <pt x="586" y="638" on="0"/>
        <pt x="524" y="638" on="1"/>
        <pt x="439" y="638" on="0"/>
        <pt x="286" y="569" on="0"/>
        <pt x="172" y="451" on="0"/>
        <pt x="104" y="293" on="0"/>
        <pt x="104" y="205" on="1"/>
        <pt x="104" y="137" on="0"/>
        <pt x="150" y="24" on="0"/>
        <pt x="232" y="-56" on="0"/>
        <pt x="350" y="-101" on="0"/>
        <pt x="421" y="-101" on="1"/>
        <pt x="481" y="-101" on="0"/>
        <pt x="586" y="-73" on="0"/>
        <pt x="632" y="-48" on="1"/>
        <pt x="653" y="-88" on="1"/>
        <pt x="600" y="-119" on="0"/>
        <pt x="482" y="-149" on="0"/>
      </contour>
      <contour>
        <pt x="403" y="132" on="1"/>
        <pt x="434" y="132" on="0"/>
        <pt x="484" y="178" on="0"/>
        <pt x="517" y="244" on="0"/>
        <pt x="535" y="318" on="0"/>
        <pt x="535" y="345" on="1"/>
        <pt x="535" y="380" on="0"/>
        <pt x="510" y="423" on="0"/>
        <pt x="479" y="423" on="1"/>
        <pt x="447" y="423" on="0"/>
        <pt x="397" y="376" on="0"/>
        <pt x="365" y="308" on="0"/>
        <pt x="348" y="233" on="0"/>
        <pt x="348" y="205" on="1"/>
        <pt x="348" y="172" on="0"/>
        <pt x="374" y="132" on="0"/>
      </contour>
    </TTGlyph>
    <TTGlyph name="atilde" xMin="29" yMin="-10" xMax="553" yMax="682">
      <component glyphName="a" x="0" y="0" flags="0x204"/>
      <component glyphName="tilde" x="78" y="0" flags="0x4"/>
    </TTGlyph>
    <TTGlyph name="b" xMin="47" yMin="-10" xMax="487" yMax="689">
      <contour>
        <pt x="211" y="-10" on="1"/>
        <pt x="127" y="-10" on="0"/>
        <pt x="47" y="80" on="0"/>
        <pt x="47" y="149" on="1"/>
        <pt x="47" y="179" on="0"/>
        <pt x="64" y="266" on="0"/>
        <pt x="77" y="312" on="1"/>
        <pt x="159" y="611" on="1"/>
        <pt x="73" y="611" on="1"/>
        <pt x="94" y="689" on="1"/>
        <pt x="295" y="689" on="1"/>
        <pt x="194" y="356" on="1"/>
        <pt x="202" y="353" on="1"/>
        <pt x="233" y="410" on="0"/>
        <pt x="315" y="471" on="0"/>
        <pt x="358" y="471" on="1"/>
        <pt x="421" y="471" on="0"/>
        <pt x="487" y="377" on="0"/>
        <pt x="487" y="310" on="1"/>
        <pt x="487" y="247" on="0"/>
        <pt x="441" y="130" on="0"/>
        <pt x="365" y="42" on="0"/>
        <pt x="265" y="-10" on="0"/>
      </contour>
      <contour>
        <pt x="223" y="55" on="1"/>
        <pt x="257" y="55" on="0"/>
        <pt x="312" y="112" on="0"/>
        <pt x="348" y="191" on="0"/>
        <pt x="368" y="278" on="0"/>
        <pt x="368" y="307" on="1"/>
        <pt x="368" y="349" on="0"/>
        <pt x="341" y="393" on="0"/>
        <pt x="313" y="393" on="1"/>
        <pt x="283" y="393" on="0"/>
        <pt x="228" y="341" on="0"/>
        <pt x="187" y="264" on="0"/>
        <pt x="162" y="176" on="0"/>
        <pt x="162" y="141" on="1"/>
        <pt x="162" y="96" on="0"/>
        <pt x="193" y="55" on="0"/>
      </contour>
    </TTGlyph>
    <TTGlyph name="backslash" xMin="132" yMin="-210" xMax="365" yMax="714">
      <contour>
        <pt x="291" y="-210" on="1"/>
        <pt x="132" y="700" on="1"/>
        <pt x="205" y="714" on="1"/>
        <pt x="365" y="-196" on="1"/>
      </contour>
    </TTGlyph>
    <TTGlyph name="bar" xMin="-2" yMin="-209" xMax="300" yMax="713">
      <contour>
        <pt x="72" y="-209" on="1"/>
        <pt x="-2" y="-198" on="1"/>
        <pt x="226" y="713" on="1"/>
        <pt x="300" y="702" on="1"/>
      </contour>
    </TTGlyph>
    <TTGlyph name="bar.tab" xMin="7" yMin="-144" xMax="309" yMax="778">
      <component glyphName="bar" x="9" y="65" flags="0x4"/>
    </TTGlyph>
    <TTGlyph name="braceleft" xMin="23" yMin="-158" xMax="524" yMax="727">
      <contour>
        <pt x="307" y="-158" on="1"/>
        <pt x="203" y="-148" on="0"/>
        <pt x="108" y="-80" on="0"/>
        <pt x="108" y="-17" on="1"/>
        <pt x="108" y="10" on="0"/>
        <pt x="125" y="68" on="0"/>
        <pt x="145" y="124" on="0"/>
        <pt x="162" y="174" on="0"/>
        <pt x="162" y="193" on="1"/>
        <pt x="162" y="214" on="0"/>
        <pt x="118" y="247" on="0"/>
        <pt x="55" y="247" on="1"/>
        <pt x="23" y="247" on="1"/>
        <pt x="41" y="318" on="1"/>
        <pt x="69" y="318" on="1"/>
        <pt x="111" y="318" on="0"/>
        <pt x="168" y="333" on="0"/>
        <pt x="186" y="351" on="1"/>
        <pt x="212" y="377" on="0"/>
        <pt x="229" y="459" on="0"/>
        <pt x="240" y="547" on="0"/>
        <pt x="261" y="633" on="0"/>
        <pt x="293" y="665" on="1"/>
        <pt x="327" y="700" on="0"/>
        <pt x="443" y="727" on="0"/>
        <pt x="524" y="723" on="1"/>
        <pt x="508" y="657" on="1"/>
        <pt x="464" y="656" on="0"/>
        <pt x="409" y="643" on="0"/>
        <pt x="392" y="626" on="1"/>
        <pt x="371" y="604" on="0"/>
        <pt x="353" y="529" on="0"/>
        <pt x="338" y="445" on="0"/>
        <pt x="313" y="362" on="0"/>
        <pt x="284" y="333" on="1"/>
        <pt x="262" y="310" on="0"/>
        <pt x="196" y="287" on="0"/>
        <pt x="150" y="283" on="1"/>
        <pt x="148" y="277" on="1"/>
        <pt x="208" y="269" on="0"/>
        <pt x="267" y="223" on="0"/>
        <pt x="267" y="183" on="1"/>
        <pt x="267" y="161" on="0"/>
        <pt x="253" y="109" on="0"/>
        <pt x="236" y="56" on="0"/>
        <pt x="222" y="6" on="0"/>
        <pt x="222" y="-13" on="1"/>
        <pt x="222" y="-44" on="0"/>
        <pt x="266" y="-81" on="0"/>
        <pt x="324" y="-91" on="1"/>
      </contour>
    </TTGlyph>
    <TTGlyph name="braceright" xMin="-106" yMin="-162" xMax="395" yMax="723">
      <contour>
        <pt x="111" y="723" on="1"/>
        <pt x="215" y="713" on="0"/>
        <pt x="310" y="645" on="0"/>
        <pt x="310" y="582" on="1"/>
        <pt x="310" y="555" on="0"/>
        <pt x="293" y="497" on="0"/>
        <pt x="273" y="441" on="0"/>
        <pt x="256" y="391" on="0"/>
        <pt x="256" y="372" on="1"/>
        <pt x="256" y="351" on="0"/>
        <pt x="300" y="318" on="0"/>
        <pt x="363" y="318" on="1"/>
        <pt x="395" y="318" on="1"/>
        <pt x="377" y="247" on="1"/>
        <pt x="349" y="247" on="1"/>
        <pt x="307" y="247" on="0"/>
        <pt x="250" y="232" on="0"/>
        <pt x="232" y="214" on="1"/>
        <pt x="206" y="188" on="0"/>
        <pt x="189" y="106" on="0"/>
        <pt x="178" y="18" on="0"/>
        <pt x="157" y="-68" on="0"/>
        <pt x="125" y="-100" on="1"/>
        <pt x="91" y="-135" on="0"/>
        <pt x="-25" y="-162" on="0"/>
        <pt x="-106" y="-158" on="1"/>
        <pt x="-90" y="-92" on="1"/>
        <pt x="-46" y="-91" on="0"/>
        <pt x="9" y="-78" on="0"/>
        <pt x="26" y="-61" on="1"/>
        <pt x="47" y="-39" on="0"/>
        <pt x="65" y="36" on="0"/>
        <pt x="80" y="120" on="0"/>
        <pt x="105" y="203" on="0"/>
        <pt x="134" y="232" on="1"/>
        <pt x="156" y="255" on="0"/>
        <pt x="222" y="278" on="0"/>
        <pt x="268" y="282" on="1"/>
        <pt x="270" y="288" on="1"/>
        <pt x="210" y="296" on="0"/>
        <pt x="151" y="342" on="0"/>
        <pt x="151" y="382" on="1"/>
        <pt x="151" y="404" on="0"/>
        <pt x="165" y="456" on="0"/>
        <pt x="182" y="509" on="0"/>
        <pt x="196" y="559" on="0"/>
        <pt x="196" y="578" on="1"/>
        <pt x="196" y="609" on="0"/>
        <pt x="152" y="646" on="0"/>
        <pt x="94" y="656" on="1"/>
      </contour>
    </TTGlyph>
    <TTGlyph name="bracketleft" xMin="-11" yMin="-158" xMax="486" yMax="723">
      <contour>
        <pt x="-11" y="-158" on="1"/>
        <pt x="208" y="723" on="1"/>
        <pt x="486" y="723" on="1"/>
        <pt x="468" y="654" on="1"/>
        <pt x="304" y="654" on="1"/>
        <pt x="120" y="-89" on="1"/>
        <pt x="283" y="-89" on="1"/>
        <pt x="266" y="-158" on="1"/>
      </contour>
    </TTGlyph>
    <TTGlyph name="bracketright" xMin="-107" yMin="-158" xMax="390" yMax="723">
      <contour>
        <pt x="390" y="723" on="1"/>
        <pt x="171" y="-158" on="1"/>
        <pt x="-107" y="-158" on="1"/>
        <pt x="-89" y="-89" on="1"/>
        <pt x="75" y="-89" on="1"/>
        <pt x="259" y="654" on="1"/>
        <pt x="96" y="654" on="1"/>
        <pt x="113" y="723" on="1"/>
      </contour>
    </TTGlyph>
    <TTGlyph name="breve" xMin="133" yMin="537" xMax="442" yMax="705">
      <contour>
        <pt x="266" y="537" on="1"/>
        <pt x="201" y="537" on="0"/>
        <pt x="133" y="624" on="0"/>
        <pt x="151" y="705" on="1"/>
        <pt x="202" y="705" on="1"/>
        <pt x="202" y="663" on="0"/>
        <pt x="239" y="619" on="0"/>
        <pt x="279" y="619" on="1"/>
        <pt x="314" y="619" on="0"/>
        <pt x="369" y="665" on="0"/>
        <pt x="388" y="705" on="1"/>
        <pt x="442" y="705" on="1"/>
        <pt x="423" y="624" on="0"/>
        <pt x="328" y="537" on="0"/>
      </contour>
    </TTGlyph>
    <TTGlyph name="bullet" xMin="124" yMin="172" xMax="408" yMax="468">
      <contour>
        <pt x="252" y="172" on="1"/>
        <pt x="198" y="172" on="0"/>
        <pt x="124" y="246" on="0"/>
        <pt x="124" y="303" on="1"/>
        <pt x="124" y="337" on="0"/>
        <pt x="149" y="397" on="0"/>
        <pt x="192" y="442" on="0"/>
        <pt x="249" y="468" on="0"/>
        <pt x="281" y="468" on="1"/>
        <pt x="335" y="468" on="0"/>
        <pt x="408" y="394" on="0"/>
        <pt x="408" y="337" on="1"/>
        <pt x="408" y="304" on="0"/>
        <pt x="383" y="244" on="0"/>
        <pt x="340" y="199" on="0"/>
        <pt x="283" y="172" on="0"/>
      </contour>
    </TTGlyph>
    <TTGlyph name="c" xMin="28" yMin="-10" xMax="450" yMax="471">
      <contour>
        <pt x="212" y="-10" on="1"/>
        <pt x="130" y="-10" on="0"/>
        <pt x="28" y="93" on="0"/>
        <pt x="28" y="174" on="1"/>
        <pt x="28" y="232" on="0"/>
        <pt x="75" y="340" on="0"/>
        <pt x="151" y="422" on="0"/>
        <pt x="252" y="471" on="0"/>
        <pt x="305" y="471" on="1"/>
        <pt x="368" y="471" on="0"/>
        <pt x="450" y="406" on="0"/>
        <pt x="450" y="353" on="1"/>
        <pt x="450" y="321" on="0"/>
        <pt x="412" y="267" on="0"/>
        <pt x="380" y="267" on="1"/>
        <pt x="353" y="267" on="0"/>
        <pt x="321" y="299" on="0"/>
        <pt x="321" y="321" on="1"/>
        <pt x="321" y="342" on="0"/>
        <pt x="344" y="377" on="0"/>
        <pt x="362" y="389" on="1"/>
        <pt x="356" y="399" on="0"/>
        <pt x="329" y="414" on="0"/>
        <pt x="307" y="414" on="1"/>
        <pt x="270" y="414" on="0"/>
        <pt x="210" y="363" on="0"/>
        <pt x="170" y="290" on="0"/>
        <pt x="148" y="206" on="0"/>
        <pt x="148" y="174" on="1"/>
        <pt x="148" y="110" on="0"/>
        <pt x="205" y="61" on="0"/>
        <pt x="239" y="61" on="1"/>
        <pt x="273" y="61" on="0"/>
        <pt x="339" y="110" on="0"/>
        <pt x="369" y="156" on="1"/>
        <pt x="412" y="127" on="1"/>
        <pt x="380" y="71" on="0"/>
        <pt x="285" y="-10" on="0"/>
      </contour>
    </TTGlyph>
    <TTGlyph name="cacute" xMin="28" yMin="-10" xMax="480" yMax="740">
      <component glyphName="c" x="0" y="0" flags="0x204"/>
      <component glyphName="acute" x="142" y="0" flags="0x4"/>
    </TTGlyph>
    <TTGlyph name="caron" xMin="137" yMin="541" xMax="427" yMax="730">
      <contour>
        <pt x="205" y="541" on="1"/>
        <pt x="137" y="730" on="1"/>
        <pt x="198" y="730" on="1"/>
        <pt x="252" y="640" on="1"/>
        <pt x="359" y="730" on="1"/>
        <pt x="427" y="730" on="1"/>
        <pt x="263" y="541" on="1"/>
      </contour>
    </TTGlyph>
    <TTGlyph name="caron.alt" xMin="146" yMin="525" xMax="294" yMax="764">
      <contour>
        <pt x="146" y="525" on="1"/>
        <pt x="180" y="685" on="1"/>
        <pt x="188" y="727" on="0"/>
        <pt x="219" y="764" on="0"/>
        <pt x="244" y="764" on="1"/>
        <pt x="265" y="764" on="0"/>
        <pt x="294" y="735" on="0"/>
        <pt x="294" y="715" on="1"/>
        <pt x="294" y="696" on="0"/>
        <pt x="275" y="660" on="0"/>
        <pt x="256" y="629" on="1"/>
        <pt x="193" y="525" on="1"/>
      </contour>
    </TTGlyph>
    <TTGlyph name="ccaron" xMin="28" yMin="-10" xMax="499" yMax="730">
      <component glyphName="c" x="0" y="0" flags="0x204"/>
      <component glyphName="caron" x="72" y="0" flags="0x4"/>
    </TTGlyph>
    <TTGlyph name="ccedilla" xMin="22" yMin="-246" xMax="450" yMax="471">
      <contour>
        <pt x="143" y="-246" on="1"/>
        <pt x="113" y="-246" on="0"/>
        <pt x="47" y="-224" on="0"/>
        <pt x="22" y="-204" on="1"/>
        <pt x="53" y="-164" on="1"/>
        <pt x="72" y="-177" on="0"/>
        <pt x="111" y="-192" on="0"/>
        <pt x="136" y="-192" on="1"/>
        <pt x="156" y="-192" on="0"/>
        <pt x="182" y="-172" on="0"/>
        <pt x="182" y="-156" on="1"/>
        <pt x="182" y="-134" on="0"/>
        <pt x="131" y="-115" on="0"/>
        <pt x="94" y="-118" on="1"/>
        <pt x="81" y="-87" on="1"/>
        <pt x="178" y="-8" on="1"/>
        <pt x="110" y="2" on="0"/>
        <pt x="28" y="102" on="0"/>
        <pt x="28" y="174" on="1"/>
        <pt x="28" y="232" on="0"/>
        <pt x="75" y="340" on="0"/>
        <pt x="151" y="422" on="0"/>
        <pt x="252" y="471" on="0"/>
        <pt x="305" y="471" on="1"/>
        <pt x="368" y="471" on="0"/>
        <pt x="450" y="406" on="0"/>
        <pt x="450" y="353" on="1"/>
        <pt x="450" y="321" on="0"/>
        <pt x="412" y="267" on="0"/>
        <pt x="380" y="267" on="1"/>
        <pt x="353" y="267" on="0"/>
        <pt x="321" y="299" on="0"/>
        <pt x="321" y="321" on="1"/>
        <pt x="321" y="342" on="0"/>
        <pt x="344" y="377" on="0"/>
        <pt x="362" y="389" on="1"/>
        <pt x="356" y="399" on="0"/>
        <pt x="329" y="414" on="0"/>
        <pt x="307" y="414" on="1"/>
        <pt x="270" y="414" on="0"/>
        <pt x="210" y="363" on="0"/>
        <pt x="170" y="290" on="0"/>
        <pt x="148" y="206" on="0"/>
        <pt x="148" y="174" on="1"/>
        <pt x="148" y="110" on="0"/>
        <pt x="205" y="61" on="0"/>
        <pt x="239" y="61" on="1"/>
        <pt x="273" y="61" on="0"/>
        <pt x="339" y="110" on="0"/>
        <pt x="369" y="156" on="1"/>
        <pt x="412" y="127" on="1"/>
        <pt x="384" y="78" on="0"/>
        <pt x="305" y="3" on="0"/>
        <pt x="248" y="-7" on="1"/>
        <pt x="182" y="-63" on="1"/>
        <pt x="182" y="-67" on="1"/>
        <pt x="219" y="-74" on="0"/>
        <pt x="267" y="-115" on="0"/>
        <pt x="267" y="-148" on="1"/>
        <pt x="267" y="-186" on="0"/>
        <pt x="205" y="-246" on="0"/>
      </contour>
    </TTGlyph>
    <TTGlyph name="cdotaccent" xMin="28" yMin="-10" xMax="450" yMax="679">
      <component glyphName="c" x="0" y="0" flags="0x204"/>
      <component glyphName="dotaccent" x="139" y="0" flags="0x4"/>
    </TTGlyph>
    <TTGlyph name="cedilla" xMin="-91" yMin="-246" xMax="154" yMax="6">
      <contour>
        <pt x="30" y="-246" on="1"/>
        <pt x="0" y="-246" on="0"/>
        <pt x="-66" y="-224" on="0"/>
        <pt x="-91" y="-204" on="1"/>
        <pt x="-60" y="-164" on="1"/>
        <pt x="-41" y="-177" on="0"/>
        <pt x="-2" y="-192" on="0"/>
        <pt x="23" y="-192" on="1"/>
        <pt x="43" y="-192" on="0"/>
        <pt x="69" y="-172" on="0"/>
        <pt x="69" y="-156" on="1"/>
        <pt x="69" y="-134" on="0"/>
        <pt x="18" y="-115" on="0"/>
        <pt x="-19" y="-118" on="1"/>
        <pt x="-32" y="-87" on="1"/>
        <pt x="82" y="6" on="1"/>
        <pt x="150" y="6" on="1"/>
        <pt x="69" y="-63" on="1"/>
        <pt x="69" y="-67" on="1"/>
        <pt x="106" y="-74" on="0"/>
        <pt x="154" y="-115" on="0"/>
        <pt x="154" y="-148" on="1"/>
        <pt x="154" y="-186" on="0"/>
        <pt x="92" y="-246" on="0"/>
      </contour>
    </TTGlyph>
    <TTGlyph name="cent" xMin="33" yMin="-105" xMax="484" yMax="557">
      <contour>
        <pt x="211" y="-105" on="1"/>
        <pt x="148" y="-95" on="1"/>
        <pt x="171" y="-4" on="1"/>
        <pt x="105" y="11" on="0"/>
        <pt x="33" y="107" on="0"/>
        <pt x="33" y="178" on="1"/>
        <pt x="33" y="233" on="0"/>
        <pt x="73" y="335" on="0"/>
        <pt x="142" y="415" on="0"/>
        <pt x="238" y="466" on="0"/>
        <pt x="292" y="470" on="1"/>
        <pt x="313" y="557" on="1"/>
        <pt x="376" y="547" on="1"/>
        <pt x="357" y="468" on="1"/>
        <pt x="420" y="458" on="0"/>
        <pt x="484" y="387" on="0"/>
        <pt x="484" y="347" on="1"/>
        <pt x="484" y="316" on="0"/>
        <pt x="449" y="264" on="0"/>
        <pt x="416" y="264" on="1"/>
        <pt x="389" y="264" on="0"/>
        <pt x="357" y="295" on="0"/>
        <pt x="357" y="319" on="1"/>
        <pt x="357" y="338" on="0"/>
        <pt x="377" y="373" on="0"/>
        <pt x="395" y="386" on="1"/>
        <pt x="390" y="393" on="0"/>
        <pt x="361" y="410" on="0"/>
        <pt x="339" y="413" on="1"/>
        <pt x="251" y="61" on="1"/>
        <pt x="253" y="61" on="0"/>
        <pt x="257" y="61" on="0"/>
        <pt x="259" y="61" on="1"/>
        <pt x="301" y="61" on="0"/>
        <pt x="371" y="110" on="0"/>
        <pt x="402" y="156" on="1"/>
        <pt x="445" y="127" on="1"/>
        <pt x="413" y="70" on="0"/>
        <pt x="315" y="-10" on="0"/>
        <pt x="235" y="-10" on="1"/>
      </contour>
      <contour>
        <pt x="149" y="178" on="1"/>
        <pt x="149" y="135" on="0"/>
        <pt x="174" y="85" on="0"/>
        <pt x="195" y="74" on="1"/>
        <pt x="278" y="407" on="1"/>
        <pt x="244" y="396" on="0"/>
        <pt x="195" y="342" on="0"/>
        <pt x="164" y="276" on="0"/>
        <pt x="149" y="206" on="0"/>
      </contour>
    </TTGlyph>
    <TTGlyph name="cent.tab" xMin="64" yMin="-104" xMax="515" yMax="557">
      <contour>
        <pt x="246" y="-104" on="1"/>
        <pt x="182" y="-95" on="1"/>
        <pt x="204" y="-3" on="1"/>
        <pt x="137" y="11" on="0"/>
        <pt x="65" y="107" on="0"/>
        <pt x="64" y="178" on="1"/>
        <pt x="64" y="233" on="0"/>
        <pt x="103" y="335" on="0"/>
        <pt x="172" y="415" on="0"/>
        <pt x="266" y="466" on="0"/>
        <pt x="321" y="470" on="1"/>
        <pt x="342" y="557" on="1"/>
        <pt x="406" y="547" on="1"/>
        <pt x="388" y="467" on="1"/>
        <pt x="449" y="457" on="0"/>
        <pt x="515" y="389" on="0"/>
        <pt x="515" y="348" on="1"/>
        <pt x="515" y="317" on="0"/>
        <pt x="481" y="265" on="0"/>
        <pt x="447" y="265" on="1"/>
        <pt x="421" y="265" on="0"/>
        <pt x="390" y="297" on="0"/>
        <pt x="390" y="320" on="1"/>
        <pt x="390" y="339" on="0"/>
        <pt x="408" y="374" on="0"/>
        <pt x="426" y="387" on="1"/>
        <pt x="418" y="396" on="0"/>
        <pt x="390" y="410" on="0"/>
        <pt x="368" y="412" on="1"/>
        <pt x="284" y="61" on="1"/>
        <pt x="289" y="61" on="1"/>
        <pt x="331" y="61" on="0"/>
        <pt x="400" y="110" on="0"/>
        <pt x="429" y="156" on="1"/>
        <pt x="475" y="127" on="1"/>
        <pt x="444" y="72" on="0"/>
        <pt x="347" y="-8" on="0"/>
        <pt x="269" y="-9" on="1"/>
      </contour>
      <contour>
        <pt x="181" y="181" on="1"/>
        <pt x="181" y="135" on="0"/>
        <pt x="208" y="84" on="0"/>
        <pt x="230" y="73" on="1"/>
        <pt x="309" y="407" on="1"/>
        <pt x="275" y="396" on="0"/>
        <pt x="227" y="344" on="0"/>
        <pt x="196" y="279" on="0"/>
        <pt x="181" y="209" on="0"/>
      </contour>
    </TTGlyph>
    <TTGlyph name="circumflex" xMin="96" yMin="535" xMax="386" yMax="724">
      <contour>
        <pt x="96" y="535" on="1"/>
        <pt x="259" y="724" on="1"/>
        <pt x="317" y="724" on="1"/>
        <pt x="386" y="535" on="1"/>
        <pt x="325" y="535" on="1"/>
        <pt x="271" y="625" on="1"/>
        <pt x="163" y="535" on="1"/>
      </contour>
    </TTGlyph>
    <TTGlyph name="colon" xMin="16" yMin="-16" xMax="236" yMax="426">
      <contour>
        <pt x="159" y="270" on="1"/>
        <pt x="131" y="270" on="0"/>
        <pt x="91" y="309" on="0"/>
        <pt x="91" y="342" on="1"/>
        <pt x="91" y="371" on="0"/>
        <pt x="134" y="426" on="0"/>
        <pt x="168" y="426" on="1"/>
        <pt x="196" y="426" on="0"/>
        <pt x="236" y="387" on="0"/>
        <pt x="236" y="354" on="1"/>
        <pt x="236" y="325" on="0"/>
        <pt x="193" y="270" on="0"/>
      </contour>
      <contour>
        <pt x="83" y="-16" on="1"/>
        <pt x="55" y="-16" on="0"/>
        <pt x="16" y="22" on="0"/>
        <pt x="16" y="55" on="1"/>
        <pt x="16" y="85" on="0"/>
        <pt x="58" y="139" on="0"/>
        <pt x="93" y="139" on="1"/>
        <pt x="121" y="139" on="0"/>
        <pt x="160" y="101" on="0"/>
        <pt x="160" y="68" on="1"/>
        <pt x="160" y="38" on="0"/>
        <pt x="118" y="-16" on="0"/>
      </contour>
    </TTGlyph>
    <TTGlyph name="colon.fig" xMin="28" yMin="98" xMax="248" yMax="540">
      <component glyphName="colon" x="12" y="114" flags="0x4"/>
    </TTGlyph>
    <TTGlyph name="colon.tab" xMin="22" yMin="-16" xMax="242" yMax="426">
      <component glyphName="colon" x="6" y="0" flags="0x4"/>
    </TTGlyph>
    <TTGlyph name="colonmonetary" xMin="72" yMin="-148" xMax="676" yMax="769">
      <contour>
        <pt x="150" y="-148" on="1"/>
        <pt x="83" y="-131" on="1"/>
        <pt x="153" y="35" on="1"/>
        <pt x="116" y="66" on="0"/>
        <pt x="72" y="168" on="0"/>
        <pt x="72" y="238" on="1"/>
        <pt x="72" y="323" on="0"/>
        <pt x="127" y="472" on="0"/>
        <pt x="220" y="582" on="0"/>
        <pt x="344" y="648" on="0"/>
        <pt x="412" y="650" on="1"/>
        <pt x="461" y="769" on="1"/>
        <pt x="528" y="752" on="1"/>
        <pt x="482" y="643" on="1"/>
        <pt x="501" y="639" on="0"/>
        <pt x="533" y="625" on="0"/>
        <pt x="546" y="616" on="1"/>
        <pt x="609" y="769" on="1"/>
        <pt x="676" y="752" on="1"/>
        <pt x="597" y="562" on="1"/>
        <pt x="605" y="547" on="0"/>
        <pt x="613" y="514" on="0"/>
        <pt x="613" y="498" on="1"/>
        <pt x="613" y="458" on="0"/>
        <pt x="565" y="397" on="0"/>
        <pt x="528" y="397" on="1"/>
        <pt x="525" y="397" on="0"/>
        <pt x="519" y="397" on="0"/>
        <pt x="516" y="398" on="1"/>
        <pt x="377" y="71" on="1"/>
        <pt x="411" y="83" on="0"/>
        <pt x="465" y="147" on="0"/>
        <pt x="490" y="200" on="1"/>
        <pt x="549" y="170" on="1"/>
        <pt x="522" y="102" on="0"/>
        <pt x="424" y="1" on="0"/>
        <pt x="353" y="-12" on="1"/>
        <pt x="296" y="-148" on="1"/>
        <pt x="230" y="-131" on="1"/>
        <pt x="278" y="-15" on="1"/>
        <pt x="260" y="-13" on="0"/>
        <pt x="226" y="-5" on="0"/>
        <pt x="211" y="1" on="1"/>
      </contour>
      <contour>
        <pt x="515" y="547" on="1"/>
        <pt x="506" y="560" on="0"/>
        <pt x="473" y="579" on="0"/>
        <pt x="450" y="582" on="1"/>
        <pt x="245" y="99" on="1"/>
        <pt x="260" y="82" on="0"/>
        <pt x="297" y="66" on="0"/>
        <pt x="319" y="64" on="1"/>
        <pt x="472" y="426" on="1"/>
        <pt x="467" y="433" on="0"/>
        <pt x="461" y="454" on="0"/>
        <pt x="461" y="464" on="1"/>
        <pt x="461" y="493" on="0"/>
        <pt x="493" y="536" on="0"/>
      </contour>
      <contour>
        <pt x="198" y="234" on="1"/>
        <pt x="198" y="209" on="0"/>
        <pt x="204" y="166" on="0"/>
        <pt x="211" y="149" on="1"/>
        <pt x="393" y="580" on="1"/>
        <pt x="341" y="570" on="0"/>
        <pt x="267" y="494" on="0"/>
        <pt x="220" y="394" on="0"/>
        <pt x="198" y="282" on="0"/>
      </contour>
    </TTGlyph>
    <TTGlyph name="comma" xMin="-62" yMin="-153" xMax="160" yMax="137">
      <contour>
        <pt x="-50" y="-153" on="1"/>
        <pt x="-62" y="-108" on="1"/>
        <pt x="-2" y="-91" on="0"/>
        <pt x="71" y="-35" on="0"/>
        <pt x="84" y="-4" on="1"/>
        <pt x="78" y="0" on="1"/>
        <pt x="74" y="-3" on="0"/>
        <pt x="64" y="-6" on="0"/>
        <pt x="57" y="-6" on="1"/>
        <pt x="34" y="-6" on="0"/>
        <pt x="3" y="26" on="0"/>
        <pt x="3" y="53" on="1"/>
        <pt x="3" y="84" on="0"/>
        <pt x="45" y="137" on="0"/>
        <pt x="79" y="137" on="1"/>
        <pt x="119" y="137" on="0"/>
        <pt x="160" y="84" on="0"/>
        <pt x="160" y="47" on="1"/>
        <pt x="160" y="-18" on="0"/>
        <pt x="55" y="-128" on="0"/>
      </contour>
    </TTGlyph>
    <TTGlyph name="comma.tab" xMin="-50" yMin="-153" xMax="172" yMax="137">
      <component glyphName="comma" x="12" y="0" flags="0x4"/>
    </TTGlyph>
    <TTGlyph name="copyright" xMin="49" yMin="-33" xMax="776" yMax="691">
      <contour>
        <pt x="412" y="-33" on="1"/>
        <pt x="335" y="-33" on="0"/>
        <pt x="202" y="22" on="0"/>
        <pt x="105" y="119" on="0"/>
        <pt x="49" y="252" on="0"/>
        <pt x="49" y="329" on="1"/>
        <pt x="49" y="406" on="0"/>
        <pt x="105" y="539" on="0"/>
        <pt x="202" y="636" on="0"/>
        <pt x="335" y="691" on="0"/>
        <pt x="412" y="691" on="1"/>
        <pt x="489" y="691" on="0"/>
        <pt x="623" y="636" on="0"/>
        <pt x="720" y="539" on="0"/>
        <pt x="776" y="406" on="0"/>
        <pt x="776" y="329" on="1"/>
        <pt x="776" y="252" on="0"/>
        <pt x="720" y="119" on="0"/>
        <pt x="623" y="22" on="0"/>
        <pt x="489" y="-33" on="0"/>
      </contour>
      <contour>
        <pt x="412" y="10" on="1"/>
        <pt x="480" y="10" on="0"/>
        <pt x="595" y="59" on="0"/>
        <pt x="679" y="144" on="0"/>
        <pt x="726" y="261" on="0"/>
        <pt x="726" y="329" on="1"/>
        <pt x="726" y="397" on="0"/>
        <pt x="679" y="514" on="0"/>
        <pt x="595" y="599" on="0"/>
        <pt x="480" y="648" on="0"/>
        <pt x="412" y="648" on="1"/>
        <pt x="345" y="648" on="0"/>
        <pt x="229" y="599" on="0"/>
        <pt x="146" y="514" on="0"/>
        <pt x="98" y="397" on="0"/>
        <pt x="98" y="329" on="1"/>
        <pt x="98" y="261" on="0"/>
        <pt x="146" y="144" on="0"/>
        <pt x="229" y="59" on="0"/>
        <pt x="345" y="10" on="0"/>
      </contour>
      <contour>
        <pt x="418" y="141" on="1"/>
        <pt x="337" y="141" on="0"/>
        <pt x="233" y="251" on="0"/>
        <pt x="233" y="333" on="1"/>
        <pt x="233" y="373" on="0"/>
        <pt x="263" y="443" on="0"/>
        <pt x="313" y="494" on="0"/>
        <pt x="379" y="523" on="0"/>
        <pt x="414" y="523" on="1"/>
        <pt x="448" y="523" on="0"/>
        <pt x="497" y="499" on="0"/>
        <pt x="514" y="480" on="1"/>
        <pt x="524" y="522" on="1"/>
        <pt x="570" y="522" on="1"/>
        <pt x="570" y="380" on="1"/>
        <pt x="524" y="380" on="1"/>
        <pt x="506" y="429" on="0"/>
        <pt x="457" y="479" on="0"/>
        <pt x="420" y="479" on="1"/>
        <pt x="378" y="479" on="0"/>
        <pt x="322" y="414" on="0"/>
        <pt x="322" y="337" on="1"/>
        <pt x="322" y="263" on="0"/>
        <pt x="376" y="190" on="0"/>
        <pt x="428" y="190" on="1"/>
        <pt x="474" y="190" on="0"/>
        <pt x="523" y="250" on="0"/>
        <pt x="530" y="297" on="1"/>
        <pt x="579" y="297" on="1"/>
        <pt x="572" y="225" on="0"/>
        <pt x="487" y="141" on="0"/>
      </contour>
    </TTGlyph>
    <TTGlyph name="d" xMin="28" yMin="-10" xMax="569" yMax="689">
      <contour>
        <pt x="160" y="-10" on="1"/>
        <pt x="97" y="-10" on="0"/>
        <pt x="28" y="83" on="0"/>
        <pt x="28" y="149" on="1"/>
        <pt x="29" y="225" on="0"/>
        <pt x="82" y="354" on="0"/>
        <pt x="124" y="396" on="1"/>
        <pt x="159" y="431" on="0"/>
        <pt x="239" y="471" on="0"/>
        <pt x="279" y="471" on="1"/>
        <pt x="321" y="471" on="0"/>
        <pt x="368" y="430" on="0"/>
        <pt x="378" y="399" on="1"/>
        <pt x="434" y="611" on="1"/>
        <pt x="348" y="611" on="1"/>
        <pt x="369" y="689" on="1"/>
        <pt x="569" y="689" on="1"/>
        <pt x="426" y="154" on="1"/>
        <pt x="421" y="135" on="0"/>
        <pt x="416" y="106" on="0"/>
        <pt x="416" y="96" on="1"/>
        <pt x="416" y="85" on="0"/>
        <pt x="427" y="71" on="0"/>
        <pt x="438" y="71" on="1"/>
        <pt x="454" y="71" on="0"/>
        <pt x="487" y="119" on="0"/>
        <pt x="505" y="167" on="1"/>
        <pt x="552" y="151" on="1"/>
        <pt x="521" y="61" on="0"/>
        <pt x="445" y="-10" on="0"/>
        <pt x="400" y="-10" on="1"/>
        <pt x="364" y="-10" on="0"/>
        <pt x="317" y="35" on="0"/>
        <pt x="317" y="78" on="1"/>
        <pt x="317" y="83" on="0"/>
        <pt x="317" y="93" on="0"/>
        <pt x="318" y="100" on="1"/>
        <pt x="313" y="103" on="1"/>
        <pt x="284" y="47" on="0"/>
        <pt x="203" y="-10" on="0"/>
      </contour>
      <contour>
        <pt x="205" y="71" on="1"/>
        <pt x="235" y="71" on="0"/>
        <pt x="289" y="127" on="0"/>
        <pt x="329" y="209" on="0"/>
        <pt x="352" y="300" on="0"/>
        <pt x="352" y="334" on="1"/>
        <pt x="352" y="372" on="0"/>
        <pt x="325" y="406" on="0"/>
        <pt x="298" y="406" on="1"/>
        <pt x="263" y="406" on="0"/>
        <pt x="207" y="351" on="0"/>
        <pt x="169" y="274" on="0"/>
        <pt x="147" y="189" on="0"/>
        <pt x="147" y="159" on="1"/>
        <pt x="147" y="116" on="0"/>
        <pt x="177" y="71" on="0"/>
      </contour>
    </TTGlyph>
    <TTGlyph name="dagger" xMin="71" yMin="-107" xMax="559" yMax="704">
      <contour>
        <pt x="183" y="-106" on="1"/>
        <pt x="173" y="-105" on="0"/>
        <pt x="145" y="-41" on="0"/>
        <pt x="153" y="-8" on="1"/>
        <pt x="189" y="137" on="1"/>
        <pt x="291" y="418" on="1"/>
        <pt x="264" y="428" on="0"/>
        <pt x="203" y="444" on="0"/>
        <pt x="187" y="444" on="1"/>
        <pt x="178" y="444" on="1"/>
        <pt x="185" y="411" on="0"/>
        <pt x="152" y="361" on="0"/>
        <pt x="122" y="361" on="1"/>
        <pt x="102" y="361" on="0"/>
        <pt x="71" y="389" on="0"/>
        <pt x="71" y="414" on="1"/>
        <pt x="71" y="443" on="0"/>
        <pt x="120" y="495" on="0"/>
        <pt x="167" y="495" on="1"/>
        <pt x="200" y="495" on="0"/>
        <pt x="253" y="479" on="0"/>
        <pt x="302" y="462" on="1"/>
        <pt x="308" y="655" on="1"/>
        <pt x="322" y="674" on="1"/>
        <pt x="332" y="687" on="0"/>
        <pt x="357" y="704" on="0"/>
        <pt x="371" y="704" on="1"/>
        <pt x="395" y="704" on="0"/>
        <pt x="419" y="670" on="0"/>
        <pt x="422" y="648" on="1"/>
        <pt x="425" y="626" on="1"/>
        <pt x="339" y="449" on="1"/>
        <pt x="365" y="440" on="0"/>
        <pt x="427" y="423" on="0"/>
        <pt x="443" y="423" on="1"/>
        <pt x="444" y="423" on="0"/>
        <pt x="451" y="423" on="0"/>
        <pt x="452" y="424" on="1"/>
        <pt x="445" y="456" on="0"/>
        <pt x="478" y="507" on="0"/>
        <pt x="508" y="507" on="1"/>
        <pt x="528" y="507" on="0"/>
        <pt x="559" y="479" on="0"/>
        <pt x="559" y="454" on="1"/>
        <pt x="559" y="425" on="0"/>
        <pt x="511" y="373" on="0"/>
        <pt x="463" y="373" on="1"/>
        <pt x="431" y="373" on="0"/>
        <pt x="377" y="389" on="0"/>
        <pt x="330" y="405" on="1"/>
        <pt x="288" y="112" on="1"/>
        <pt x="252" y="-32" on="1"/>
        <pt x="248" y="-48" on="0"/>
        <pt x="229" y="-76" on="0"/>
        <pt x="207" y="-96" on="0"/>
        <pt x="187" y="-107" on="0"/>
      </contour>
    </TTGlyph>
    <TTGlyph name="daggerdbl" xMin="3" yMin="-107" xMax="560" yMax="704">
      <contour>
        <pt x="191" y="-107" on="1"/>
        <pt x="168" y="-107" on="0"/>
        <pt x="144" y="-73" on="0"/>
        <pt x="141" y="-51" on="1"/>
        <pt x="138" y="-29" on="1"/>
        <pt x="223" y="146" on="1"/>
        <pt x="197" y="155" on="0"/>
        <pt x="135" y="172" on="0"/>
        <pt x="120" y="172" on="1"/>
        <pt x="118" y="172" on="0"/>
        <pt x="111" y="172" on="0"/>
        <pt x="110" y="171" on="1"/>
        <pt x="117" y="138" on="0"/>
        <pt x="83" y="88" on="0"/>
        <pt x="53" y="88" on="1"/>
        <pt x="33" y="88" on="0"/>
        <pt x="3" y="116" on="0"/>
        <pt x="3" y="141" on="1"/>
        <pt x="3" y="170" on="0"/>
        <pt x="51" y="222" on="0"/>
        <pt x="98" y="222" on="1"/>
        <pt x="130" y="222" on="0"/>
        <pt x="182" y="207" on="0"/>
        <pt x="228" y="191" on="1"/>
        <pt x="235" y="312" on="1"/>
        <pt x="289" y="421" on="1"/>
        <pt x="264" y="430" on="0"/>
        <pt x="204" y="447" on="0"/>
        <pt x="190" y="447" on="1"/>
        <pt x="188" y="447" on="0"/>
        <pt x="181" y="447" on="0"/>
        <pt x="179" y="446" on="1"/>
        <pt x="186" y="413" on="0"/>
        <pt x="153" y="363" on="0"/>
        <pt x="123" y="363" on="1"/>
        <pt x="103" y="363" on="0"/>
        <pt x="72" y="391" on="0"/>
        <pt x="72" y="416" on="1"/>
        <pt x="72" y="445" on="0"/>
        <pt x="121" y="497" on="0"/>
        <pt x="168" y="497" on="1"/>
        <pt x="201" y="497" on="0"/>
        <pt x="254" y="481" on="0"/>
        <pt x="303" y="464" on="1"/>
        <pt x="308" y="655" on="1"/>
        <pt x="322" y="674" on="1"/>
        <pt x="332" y="687" on="0"/>
        <pt x="357" y="704" on="0"/>
        <pt x="371" y="704" on="1"/>
        <pt x="395" y="704" on="0"/>
        <pt x="419" y="670" on="0"/>
        <pt x="422" y="648" on="1"/>
        <pt x="425" y="626" on="1"/>
        <pt x="340" y="451" on="1"/>
        <pt x="365" y="442" on="0"/>
        <pt x="428" y="425" on="0"/>
        <pt x="443" y="425" on="1"/>
        <pt x="445" y="425" on="0"/>
        <pt x="451" y="425" on="0"/>
        <pt x="453" y="426" on="1"/>
        <pt x="446" y="459" on="0"/>
        <pt x="479" y="509" on="0"/>
        <pt x="509" y="509" on="1"/>
        <pt x="529" y="509" on="0"/>
        <pt x="560" y="481" on="0"/>
        <pt x="560" y="456" on="1"/>
        <pt x="560" y="427" on="0"/>
        <pt x="511" y="375" on="0"/>
        <pt x="464" y="375" on="1"/>
        <pt x="432" y="375" on="0"/>
        <pt x="379" y="390" on="0"/>
        <pt x="333" y="406" on="1"/>
        <pt x="326" y="284" on="1"/>
        <pt x="272" y="176" on="1"/>
        <pt x="297" y="167" on="0"/>
        <pt x="359" y="150" on="0"/>
        <pt x="373" y="150" on="1"/>
        <pt x="375" y="150" on="0"/>
        <pt x="382" y="150" on="0"/>
        <pt x="383" y="151" on="1"/>
        <pt x="376" y="184" on="0"/>
        <pt x="409" y="234" on="0"/>
        <pt x="439" y="234" on="1"/>
        <pt x="460" y="234" on="0"/>
        <pt x="490" y="206" on="0"/>
        <pt x="490" y="181" on="1"/>
        <pt x="490" y="152" on="0"/>
        <pt x="442" y="100" on="0"/>
        <pt x="395" y="100" on="1"/>
        <pt x="362" y="100" on="0"/>
        <pt x="308" y="116" on="0"/>
        <pt x="260" y="133" on="1"/>
        <pt x="254" y="-58" on="1"/>
        <pt x="240" y="-77" on="1"/>
        <pt x="230" y="-90" on="0"/>
        <pt x="205" y="-107" on="0"/>
      </contour>
    </TTGlyph>
    <TTGlyph name="dcaron" xMin="28" yMin="-10" xMax="748" yMax="770">
      <component glyphName="d" x="0" y="0" flags="0x204"/>
      <component glyphName="caron.alt" x="454" y="6" flags="0x4"/>
    </TTGlyph>
    <TTGlyph name="dcroat" xMin="28" yMin="-10" xMax="604" yMax="689">
      <contour>
        <pt x="160" y="-10" on="1"/>
        <pt x="96" y="-10" on="0"/>
        <pt x="28" y="83" on="0"/>
        <pt x="28" y="149" on="1"/>
        <pt x="28" y="224" on="0"/>
        <pt x="83" y="353" on="0"/>
        <pt x="123" y="393" on="1"/>
        <pt x="158" y="428" on="0"/>
        <pt x="237" y="468" on="0"/>
        <pt x="278" y="468" on="1"/>
        <pt x="321" y="468" on="0"/>
        <pt x="367" y="426" on="0"/>
        <pt x="377" y="397" on="1"/>
        <pt x="406" y="504" on="1"/>
        <pt x="282" y="504" on="1"/>
        <pt x="297" y="563" on="1"/>
        <pt x="421" y="563" on="1"/>
        <pt x="435" y="614" on="1"/>
        <pt x="349" y="614" on="1"/>
        <pt x="368" y="689" on="1"/>
        <pt x="568" y="689" on="1"/>
        <pt x="535" y="563" on="1"/>
        <pt x="604" y="563" on="1"/>
        <pt x="588" y="504" on="1"/>
        <pt x="519" y="504" on="1"/>
        <pt x="426" y="154" on="1"/>
        <pt x="421" y="135" on="0"/>
        <pt x="415" y="106" on="0"/>
        <pt x="415" y="96" on="1"/>
        <pt x="415" y="85" on="0"/>
        <pt x="427" y="71" on="0"/>
        <pt x="438" y="71" on="1"/>
        <pt x="454" y="71" on="0"/>
        <pt x="486" y="119" on="0"/>
        <pt x="504" y="167" on="1"/>
        <pt x="551" y="151" on="1"/>
        <pt x="520" y="61" on="0"/>
        <pt x="444" y="-10" on="0"/>
        <pt x="400" y="-10" on="1"/>
        <pt x="364" y="-10" on="0"/>
        <pt x="317" y="35" on="0"/>
        <pt x="317" y="78" on="1"/>
        <pt x="317" y="83" on="0"/>
        <pt x="317" y="93" on="0"/>
        <pt x="318" y="100" on="1"/>
        <pt x="312" y="103" on="1"/>
        <pt x="284" y="47" on="0"/>
        <pt x="203" y="-10" on="0"/>
      </contour>
      <contour>
        <pt x="204" y="71" on="1"/>
        <pt x="234" y="71" on="0"/>
        <pt x="288" y="127" on="0"/>
        <pt x="327" y="207" on="0"/>
        <pt x="351" y="297" on="0"/>
        <pt x="351" y="331" on="1"/>
        <pt x="351" y="369" on="0"/>
        <pt x="324" y="403" on="0"/>
        <pt x="297" y="403" on="1"/>
        <pt x="262" y="403" on="0"/>
        <pt x="206" y="349" on="0"/>
        <pt x="168" y="272" on="0"/>
        <pt x="147" y="188" on="0"/>
        <pt x="147" y="159" on="1"/>
        <pt x="147" y="116" on="0"/>
        <pt x="176" y="71" on="0"/>
      </contour>
    </TTGlyph>
    <TTGlyph name="degree" xMin="99" yMin="351" xMax="432" yMax="673">
      <contour>
        <pt x="250" y="351" on="1"/>
        <pt x="212" y="351" on="0"/>
        <pt x="155" y="374" on="0"/>
        <pt x="118" y="412" on="0"/>
        <pt x="99" y="462" on="0"/>
        <pt x="99" y="489" on="1"/>
        <pt x="99" y="527" on="0"/>
        <pt x="126" y="595" on="0"/>
        <pt x="174" y="644" on="0"/>
        <pt x="241" y="673" on="0"/>
        <pt x="281" y="673" on="1"/>
        <pt x="319" y="673" on="0"/>
        <pt x="376" y="650" on="0"/>
        <pt x="413" y="612" on="0"/>
        <pt x="432" y="562" on="0"/>
        <pt x="432" y="536" on="1"/>
        <pt x="432" y="497" on="0"/>
        <pt x="405" y="429" on="0"/>
        <pt x="356" y="380" on="0"/>
        <pt x="289" y="351" on="0"/>
      </contour>
      <contour>
        <pt x="254" y="411" on="1"/>
        <pt x="279" y="411" on="0"/>
        <pt x="315" y="436" on="0"/>
        <pt x="338" y="472" on="0"/>
        <pt x="349" y="517" on="0"/>
        <pt x="349" y="536" on="1"/>
        <pt x="349" y="573" on="0"/>
        <pt x="311" y="613" on="0"/>
        <pt x="277" y="613" on="1"/>
        <pt x="252" y="613" on="0"/>
        <pt x="216" y="588" on="0"/>
        <pt x="193" y="552" on="0"/>
        <pt x="182" y="507" on="0"/>
        <pt x="182" y="488" on="1"/>
        <pt x="182" y="451" on="0"/>
        <pt x="220" y="411" on="0"/>
      </contour>
    </TTGlyph>
    <TTGlyph name="degree.tab" xMin="132" yMin="290" xMax="534" yMax="674">
      <contour>
        <pt x="313" y="290" on="1"/>
        <pt x="269" y="290" on="0"/>
        <pt x="201" y="317" on="0"/>
        <pt x="155" y="362" on="0"/>
        <pt x="132" y="423" on="0"/>
        <pt x="132" y="456" on="1"/>
        <pt x="132" y="502" on="0"/>
        <pt x="166" y="581" on="0"/>
        <pt x="225" y="640" on="0"/>
        <pt x="306" y="674" on="0"/>
        <pt x="353" y="674" on="1"/>
        <pt x="397" y="674" on="0"/>
        <pt x="465" y="647" on="0"/>
        <pt x="510" y="602" on="0"/>
        <pt x="534" y="541" on="0"/>
        <pt x="534" y="508" on="1"/>
        <pt x="534" y="462" on="0"/>
        <pt x="500" y="383" on="0"/>
        <pt x="441" y="324" on="0"/>
        <pt x="360" y="290" on="0"/>
      </contour>
      <contour>
        <pt x="316" y="353" on="1"/>
        <pt x="349" y="353" on="0"/>
        <pt x="397" y="384" on="0"/>
        <pt x="427" y="430" on="0"/>
        <pt x="442" y="486" on="0"/>
        <pt x="442" y="510" on="1"/>
        <pt x="442" y="558" on="0"/>
        <pt x="392" y="610" on="0"/>
        <pt x="350" y="610" on="1"/>
        <pt x="317" y="610" on="0"/>
        <pt x="269" y="579" on="0"/>
        <pt x="238" y="533" on="0"/>
        <pt x="223" y="478" on="0"/>
        <pt x="223" y="454" on="1"/>
        <pt x="223" y="405" on="0"/>
        <pt x="274" y="353" on="0"/>
      </contour>
    </TTGlyph>
    <TTGlyph name="dieresis" xMin="116" yMin="548" xMax="436" yMax="687">
      <contour>
        <pt x="171" y="548" on="1"/>
        <pt x="148" y="548" on="0"/>
        <pt x="116" y="579" on="0"/>
        <pt x="116" y="606" on="1"/>
        <pt x="116" y="634" on="0"/>
        <pt x="156" y="687" on="0"/>
        <pt x="190" y="687" on="1"/>
        <pt x="215" y="687" on="0"/>
        <pt x="248" y="656" on="0"/>
        <pt x="248" y="628" on="1"/>
        <pt x="248" y="601" on="0"/>
        <pt x="206" y="548" on="0"/>
      </contour>
      <contour>
        <pt x="359" y="548" on="1"/>
        <pt x="336" y="548" on="0"/>
        <pt x="304" y="579" on="0"/>
        <pt x="304" y="606" on="1"/>
        <pt x="304" y="634" on="0"/>
        <pt x="344" y="687" on="0"/>
        <pt x="378" y="687" on="1"/>
        <pt x="403" y="687" on="0"/>
        <pt x="436" y="656" on="0"/>
        <pt x="436" y="628" on="1"/>
        <pt x="436" y="601" on="0"/>
        <pt x="394" y="548" on="0"/>
      </contour>
    </TTGlyph>
    <TTGlyph name="divide" xMin="57" yMin="88" xMax="508" yMax="546">
      <contour>
        <pt x="318" y="407" on="1"/>
        <pt x="293" y="407" on="0"/>
        <pt x="257" y="442" on="0"/>
        <pt x="257" y="471" on="1"/>
        <pt x="257" y="497" on="0"/>
        <pt x="295" y="546" on="0"/>
        <pt x="326" y="546" on="1"/>
        <pt x="352" y="546" on="0"/>
        <pt x="388" y="512" on="0"/>
        <pt x="388" y="482" on="1"/>
        <pt x="388" y="456" on="0"/>
        <pt x="349" y="407" on="0"/>
      </contour>
      <contour>
        <pt x="57" y="282" on="1"/>
        <pt x="74" y="352" on="1"/>
        <pt x="508" y="352" on="1"/>
        <pt x="491" y="282" on="1"/>
      </contour>
      <contour>
        <pt x="239" y="88" on="1"/>
        <pt x="213" y="88" on="0"/>
        <pt x="177" y="122" on="0"/>
        <pt x="177" y="152" on="1"/>
        <pt x="177" y="178" on="0"/>
        <pt x="216" y="227" on="0"/>
        <pt x="247" y="227" on="1"/>
        <pt x="272" y="227" on="0"/>
        <pt x="308" y="192" on="0"/>
        <pt x="308" y="163" on="1"/>
        <pt x="308" y="137" on="0"/>
        <pt x="270" y="88" on="0"/>
      </contour>
    </TTGlyph>
    <TTGlyph name="divide.osf" xMin="49" yMin="53" xMax="499" yMax="512">
      <contour>
        <pt x="309" y="373" on="1"/>
        <pt x="284" y="373" on="0"/>
        <pt x="248" y="408" on="0"/>
        <pt x="248" y="437" on="1"/>
        <pt x="248" y="463" on="0"/>
        <pt x="287" y="512" on="0"/>
        <pt x="318" y="512" on="1"/>
        <pt x="343" y="512" on="0"/>
        <pt x="379" y="477" on="0"/>
        <pt x="379" y="448" on="1"/>
        <pt x="379" y="422" on="0"/>
        <pt x="340" y="373" on="0"/>
      </contour>
      <contour>
        <pt x="49" y="248" on="1"/>
        <pt x="66" y="317" on="1"/>
        <pt x="499" y="317" on="1"/>
        <pt x="482" y="248" on="1"/>
      </contour>
      <contour>
        <pt x="230" y="53" on="1"/>
        <pt x="204" y="53" on="0"/>
        <pt x="169" y="88" on="0"/>
        <pt x="169" y="117" on="1"/>
        <pt x="169" y="143" on="0"/>
        <pt x="207" y="192" on="0"/>
        <pt x="238" y="192" on="1"/>
        <pt x="264" y="192" on="0"/>
        <pt x="300" y="158" on="0"/>
        <pt x="300" y="128" on="1"/>
        <pt x="300" y="102" on="0"/>
        <pt x="261" y="53" on="0"/>
      </contour>
    </TTGlyph>
    <TTGlyph name="divide.tab" xMin="66" yMin="88" xMax="517" yMax="546">
      <contour>
        <pt x="327" y="407" on="1"/>
        <pt x="302" y="407" on="0"/>
        <pt x="266" y="442" on="0"/>
        <pt x="266" y="471" on="1"/>
        <pt x="266" y="497" on="0"/>
        <pt x="304" y="546" on="0"/>
        <pt x="335" y="546" on="1"/>
        <pt x="361" y="546" on="0"/>
        <pt x="397" y="511" on="0"/>
        <pt x="397" y="482" on="1"/>
        <pt x="397" y="456" on="0"/>
        <pt x="358" y="407" on="0"/>
      </contour>
      <contour>
        <pt x="66" y="282" on="1"/>
        <pt x="83" y="352" on="1"/>
        <pt x="517" y="352" on="1"/>
        <pt x="500" y="282" on="1"/>
      </contour>
      <contour>
        <pt x="248" y="88" on="1"/>
        <pt x="222" y="88" on="0"/>
        <pt x="186" y="122" on="0"/>
        <pt x="186" y="151" on="1"/>
        <pt x="186" y="177" on="0"/>
        <pt x="225" y="226" on="0"/>
        <pt x="256" y="226" on="1"/>
        <pt x="281" y="226" on="0"/>
        <pt x="317" y="192" on="0"/>
        <pt x="317" y="162" on="1"/>
        <pt x="317" y="137" on="0"/>
        <pt x="279" y="88" on="0"/>
      </contour>
    </TTGlyph>
    <TTGlyph name="dollar" xMin="22" yMin="-88" xMax="565" yMax="710">
      <contour>
        <pt x="234" y="-88" on="1"/>
        <pt x="168" y="-78" on="1"/>
        <pt x="190" y="7" on="1"/>
        <pt x="116" y="22" on="0"/>
        <pt x="22" y="98" on="0"/>
        <pt x="22" y="146" on="1"/>
        <pt x="22" y="180" on="0"/>
        <pt x="65" y="231" on="0"/>
        <pt x="99" y="231" on="1"/>
        <pt x="127" y="231" on="0"/>
        <pt x="162" y="196" on="0"/>
        <pt x="162" y="172" on="1"/>
        <pt x="162" y="152" on="0"/>
        <pt x="137" y="115" on="0"/>
        <pt x="120" y="107" on="1"/>
        <pt x="128" y="93" on="0"/>
        <pt x="175" y="68" on="0"/>
        <pt x="204" y="61" on="1"/>
        <pt x="257" y="278" on="1"/>
        <pt x="197" y="305" on="0"/>
        <pt x="110" y="375" on="0"/>
        <pt x="110" y="438" on="1"/>
        <pt x="110" y="482" on="0"/>
        <pt x="149" y="556" on="0"/>
        <pt x="213" y="607" on="0"/>
        <pt x="299" y="636" on="0"/>
        <pt x="345" y="636" on="1"/>
        <pt x="364" y="710" on="1"/>
        <pt x="429" y="700" on="1"/>
        <pt x="412" y="630" on="1"/>
        <pt x="486" y="617" on="0"/>
        <pt x="565" y="541" on="0"/>
        <pt x="565" y="501" on="1"/>
        <pt x="565" y="466" on="0"/>
        <pt x="526" y="417" on="0"/>
        <pt x="494" y="417" on="1"/>
        <pt x="466" y="417" on="0"/>
        <pt x="434" y="449" on="0"/>
        <pt x="434" y="472" on="1"/>
        <pt x="434" y="491" on="0"/>
        <pt x="454" y="525" on="0"/>
        <pt x="468" y="534" on="1"/>
        <pt x="461" y="546" on="0"/>
        <pt x="425" y="570" on="0"/>
        <pt x="398" y="577" on="1"/>
        <pt x="346" y="369" on="1"/>
        <pt x="409" y="341" on="0"/>
        <pt x="498" y="267" on="0"/>
        <pt x="498" y="200" on="1"/>
        <pt x="498" y="162" on="0"/>
        <pt x="469" y="90" on="0"/>
        <pt x="411" y="34" on="0"/>
        <pt x="323" y="0" on="0"/>
        <pt x="266" y="0" on="1"/>
        <pt x="263" y="0" on="0"/>
        <pt x="258" y="0" on="0"/>
        <pt x="255" y="0" on="1"/>
      </contour>
      <contour>
        <pt x="221" y="480" on="1"/>
        <pt x="221" y="451" on="0"/>
        <pt x="259" y="412" on="0"/>
        <pt x="288" y="397" on="1"/>
        <pt x="333" y="581" on="1"/>
        <pt x="279" y="577" on="0"/>
        <pt x="221" y="516" on="0"/>
      </contour>
      <contour>
        <pt x="393" y="156" on="1"/>
        <pt x="393" y="189" on="0"/>
        <pt x="349" y="232" on="0"/>
        <pt x="316" y="250" on="1"/>
        <pt x="268" y="54" on="1"/>
        <pt x="334" y="55" on="0"/>
        <pt x="393" y="115" on="0"/>
      </contour>
    </TTGlyph>
    <TTGlyph name="dollar.osf" xMin="21" yMin="-92" xMax="538" yMax="640">
      <contour>
        <pt x="227" y="-92" on="1"/>
        <pt x="162" y="-82" on="1"/>
        <pt x="183" y="2" on="1"/>
        <pt x="112" y="17" on="0"/>
        <pt x="21" y="92" on="0"/>
        <pt x="21" y="140" on="1"/>
        <pt x="21" y="174" on="0"/>
        <pt x="64" y="223" on="0"/>
        <pt x="97" y="223" on="1"/>
        <pt x="125" y="223" on="0"/>
        <pt x="160" y="188" on="0"/>
        <pt x="160" y="164" on="1"/>
        <pt x="160" y="146" on="0"/>
        <pt x="136" y="109" on="0"/>
        <pt x="118" y="101" on="1"/>
        <pt x="127" y="88" on="0"/>
        <pt x="169" y="64" on="0"/>
        <pt x="197" y="57" on="1"/>
        <pt x="242" y="240" on="1"/>
        <pt x="183" y="265" on="0"/>
        <pt x="97" y="328" on="0"/>
        <pt x="97" y="384" on="1"/>
        <pt x="97" y="424" on="0"/>
        <pt x="135" y="491" on="0"/>
        <pt x="197" y="539" on="0"/>
        <pt x="279" y="565" on="0"/>
        <pt x="323" y="565" on="1"/>
        <pt x="342" y="640" on="1"/>
        <pt x="407" y="630" on="1"/>
        <pt x="390" y="559" on="1"/>
        <pt x="461" y="546" on="0"/>
        <pt x="538" y="471" on="0"/>
        <pt x="538" y="433" on="1"/>
        <pt x="538" y="399" on="0"/>
        <pt x="498" y="350" on="0"/>
        <pt x="467" y="350" on="1"/>
        <pt x="439" y="350" on="0"/>
        <pt x="406" y="382" on="0"/>
        <pt x="406" y="404" on="1"/>
        <pt x="406" y="423" on="0"/>
        <pt x="426" y="456" on="0"/>
        <pt x="441" y="465" on="1"/>
        <pt x="435" y="476" on="0"/>
        <pt x="401" y="498" on="0"/>
        <pt x="376" y="505" on="1"/>
        <pt x="331" y="327" on="1"/>
        <pt x="391" y="302" on="0"/>
        <pt x="481" y="236" on="0"/>
        <pt x="481" y="176" on="1"/>
        <pt x="481" y="141" on="0"/>
        <pt x="452" y="75" on="0"/>
        <pt x="396" y="25" on="0"/>
        <pt x="313" y="-5" on="0"/>
        <pt x="259" y="-5" on="1"/>
        <pt x="257" y="-5" on="0"/>
        <pt x="251" y="-5" on="0"/>
        <pt x="249" y="-5" on="1"/>
      </contour>
      <contour>
        <pt x="208" y="425" on="1"/>
        <pt x="208" y="400" on="0"/>
        <pt x="243" y="367" on="0"/>
        <pt x="271" y="353" on="1"/>
        <pt x="311" y="510" on="1"/>
        <pt x="262" y="506" on="0"/>
        <pt x="208" y="456" on="0"/>
      </contour>
      <contour>
        <pt x="376" y="132" on="1"/>
        <pt x="376" y="160" on="0"/>
        <pt x="333" y="199" on="0"/>
        <pt x="302" y="214" on="1"/>
        <pt x="261" y="49" on="1"/>
        <pt x="320" y="49" on="0"/>
        <pt x="376" y="98" on="0"/>
      </contour>
    </TTGlyph>
    <TTGlyph name="dollar.tab" xMin="34" yMin="-88" xMax="545" yMax="710">
      <contour>
        <pt x="226" y="-88" on="1"/>
        <pt x="165" y="-78" on="1"/>
        <pt x="186" y="7" on="1"/>
        <pt x="122" y="20" on="0"/>
        <pt x="34" y="90" on="0"/>
        <pt x="34" y="146" on="1"/>
        <pt x="34" y="175" on="0"/>
        <pt x="70" y="228" on="0"/>
        <pt x="107" y="228" on="1"/>
        <pt x="129" y="228" on="0"/>
        <pt x="165" y="196" on="0"/>
        <pt x="165" y="168" on="1"/>
        <pt x="165" y="149" on="0"/>
        <pt x="144" y="113" on="0"/>
        <pt x="129" y="104" on="1"/>
        <pt x="138" y="91" on="0"/>
        <pt x="176" y="69" on="0"/>
        <pt x="201" y="62" on="1"/>
        <pt x="254" y="278" on="1"/>
        <pt x="200" y="306" on="0"/>
        <pt x="119" y="375" on="0"/>
        <pt x="119" y="438" on="1"/>
        <pt x="120" y="482" on="0"/>
        <pt x="157" y="556" on="0"/>
        <pt x="218" y="607" on="0"/>
        <pt x="298" y="636" on="0"/>
        <pt x="342" y="636" on="1"/>
        <pt x="360" y="710" on="1"/>
        <pt x="422" y="700" on="1"/>
        <pt x="405" y="630" on="1"/>
        <pt x="469" y="617" on="0"/>
        <pt x="545" y="545" on="0"/>
        <pt x="545" y="502" on="1"/>
        <pt x="545" y="474" on="0"/>
        <pt x="512" y="421" on="0"/>
        <pt x="478" y="421" on="1"/>
        <pt x="453" y="421" on="0"/>
        <pt x="421" y="453" on="0"/>
        <pt x="421" y="477" on="1"/>
        <pt x="421" y="496" on="0"/>
        <pt x="438" y="529" on="0"/>
        <pt x="451" y="539" on="1"/>
        <pt x="444" y="550" on="0"/>
        <pt x="413" y="571" on="0"/>
        <pt x="390" y="577" on="1"/>
        <pt x="338" y="369" on="1"/>
        <pt x="395" y="341" on="0"/>
        <pt x="479" y="267" on="0"/>
        <pt x="478" y="200" on="1"/>
        <pt x="478" y="162" on="0"/>
        <pt x="449" y="90" on="0"/>
        <pt x="395" y="34" on="0"/>
        <pt x="313" y="0" on="0"/>
        <pt x="259" y="0" on="1"/>
        <pt x="256" y="0" on="0"/>
        <pt x="250" y="0" on="0"/>
        <pt x="248" y="0" on="1"/>
      </contour>
      <contour>
        <pt x="225" y="479" on="1"/>
        <pt x="224" y="450" on="0"/>
        <pt x="258" y="412" on="0"/>
        <pt x="285" y="396" on="1"/>
        <pt x="331" y="581" on="1"/>
        <pt x="281" y="577" on="0"/>
        <pt x="225" y="516" on="0"/>
      </contour>
      <contour>
        <pt x="379" y="156" on="1"/>
        <pt x="379" y="189" on="0"/>
        <pt x="339" y="233" on="0"/>
        <pt x="308" y="250" on="1"/>
        <pt x="260" y="54" on="1"/>
        <pt x="321" y="55" on="0"/>
        <pt x="378" y="114" on="0"/>
      </contour>
    </TTGlyph>
    <TTGlyph name="dotaccent" xMin="130" yMin="535" xMax="270" yMax="679">
      <contour>
        <pt x="188" y="535" on="1"/>
        <pt x="163" y="535" on="0"/>
        <pt x="130" y="567" on="0"/>
        <pt x="130" y="595" on="1"/>
        <pt x="130" y="624" on="0"/>
        <pt x="172" y="679" on="0"/>
        <pt x="209" y="679" on="1"/>
        <pt x="236" y="679" on="0"/>
        <pt x="270" y="646" on="0"/>
        <pt x="270" y="617" on="1"/>
        <pt x="270" y="589" on="0"/>
        <pt x="226" y="535" on="0"/>
      </contour>
    </TTGlyph>
    <TTGlyph name="dotlessi" xMin="18" yMin="-10" xMax="326" yMax="471">
      <contour>
        <pt x="169" y="-10" on="1"/>
        <pt x="130" y="-10" on="0"/>
        <pt x="79" y="39" on="0"/>
        <pt x="79" y="84" on="1"/>
        <pt x="79" y="119" on="0"/>
        <pt x="105" y="202" on="0"/>
        <pt x="136" y="282" on="0"/>
        <pt x="162" y="352" on="0"/>
        <pt x="162" y="375" on="1"/>
        <pt x="162" y="387" on="0"/>
        <pt x="153" y="397" on="0"/>
        <pt x="146" y="397" on="1"/>
        <pt x="126" y="397" on="0"/>
        <pt x="87" y="338" on="0"/>
        <pt x="65" y="292" on="1"/>
        <pt x="18" y="312" on="1"/>
        <pt x="50" y="387" on="0"/>
        <pt x="131" y="471" on="0"/>
        <pt x="182" y="471" on="1"/>
        <pt x="221" y="471" on="0"/>
        <pt x="270" y="418" on="0"/>
        <pt x="270" y="370" on="1"/>
        <pt x="270" y="341" on="0"/>
        <pt x="245" y="264" on="0"/>
        <pt x="214" y="186" on="0"/>
        <pt x="189" y="117" on="0"/>
        <pt x="189" y="95" on="1"/>
        <pt x="189" y="82" on="0"/>
        <pt x="200" y="71" on="0"/>
        <pt x="209" y="71" on="1"/>
        <pt x="224" y="71" on="0"/>
        <pt x="257" y="115" on="0"/>
        <pt x="278" y="167" on="1"/>
        <pt x="326" y="152" on="1"/>
        <pt x="296" y="66" on="0"/>
        <pt x="215" y="-10" on="0"/>
      </contour>
    </TTGlyph>
    <TTGlyph name="dotmath" xMin="123" yMin="241" xMax="267" yMax="396">
      <component glyphName="period" x="113" y="257" flags="0x4"/>
    </TTGlyph>
    <TTGlyph name="dotmath.osf" xMin="114" yMin="204" xMax="258" yMax="359">
      <component glyphName="period" x="104" y="220" flags="0x4"/>
    </TTGlyph>
    <TTGlyph name="dotmath.tab" xMin="84" yMin="240" xMax="228" yMax="395">
      <component glyphName="period" x="74" y="256" flags="0x4"/>
    </TTGlyph>
    <TTGlyph name="e" xMin="28" yMin="-10" xMax="452" yMax="471">
      <contour>
        <pt x="203" y="-10" on="1"/>
        <pt x="126" y="-10" on="0"/>
        <pt x="28" y="90" on="0"/>
        <pt x="28" y="172" on="1"/>
        <pt x="28" y="229" on="0"/>
        <pt x="75" y="338" on="0"/>
        <pt x="154" y="421" on="0"/>
        <pt x="259" y="471" on="0"/>
        <pt x="318" y="471" on="1"/>
        <pt x="382" y="471" on="0"/>
        <pt x="452" y="413" on="0"/>
        <pt x="452" y="367" on="1"/>
        <pt x="452" y="301" on="0"/>
        <pt x="305" y="197" on="0"/>
        <pt x="148" y="188" on="1"/>
        <pt x="147" y="182" on="0"/>
        <pt x="147" y="170" on="0"/>
        <pt x="147" y="165" on="1"/>
        <pt x="147" y="103" on="0"/>
        <pt x="203" y="56" on="0"/>
        <pt x="240" y="56" on="1"/>
        <pt x="277" y="56" on="0"/>
        <pt x="349" y="104" on="0"/>
        <pt x="380" y="148" on="1"/>
        <pt x="422" y="118" on="1"/>
        <pt x="384" y="64" on="0"/>
        <pt x="282" y="-10" on="0"/>
      </contour>
      <contour>
        <pt x="301" y="416" on="1"/>
        <pt x="275" y="416" on="0"/>
        <pt x="229" y="384" on="0"/>
        <pt x="193" y="332" on="0"/>
        <pt x="165" y="268" on="0"/>
        <pt x="157" y="236" on="1"/>
        <pt x="261" y="246" on="0"/>
        <pt x="347" y="320" on="0"/>
        <pt x="347" y="366" on="1"/>
        <pt x="347" y="387" on="0"/>
        <pt x="323" y="416" on="0"/>
      </contour>
    </TTGlyph>
    <TTGlyph name="eacute" xMin="28" yMin="-10" xMax="480" yMax="740">
      <component glyphName="e" x="0" y="0" flags="0x204"/>
      <component glyphName="acute" x="142" y="0" flags="0x4"/>
    </TTGlyph>
    <TTGlyph name="ebreve" xMin="28" yMin="-10" xMax="497" yMax="705">
      <component glyphName="e" x="0" y="0" flags="0x204"/>
      <component glyphName="breve" x="55" y="0" flags="0x4"/>
    </TTGlyph>
    <TTGlyph name="ecaron" xMin="28" yMin="-10" xMax="499" yMax="730">
      <component glyphName="e" x="0" y="0" flags="0x204"/>
      <component glyphName="caron" x="72" y="0" flags="0x4"/>
    </TTGlyph>
    <TTGlyph name="ecircumflex" xMin="28" yMin="-10" xMax="458" yMax="724">
      <component glyphName="e" x="0" y="0" flags="0x204"/>
      <component glyphName="circumflex" x="72" y="0" flags="0x4"/>
    </TTGlyph>
    <TTGlyph name="edieresis" xMin="28" yMin="-10" xMax="501" yMax="687">
      <component glyphName="e" x="0" y="0" flags="0x204"/>
      <component glyphName="dieresis" x="65" y="0" flags="0x4"/>
    </TTGlyph>
    <TTGlyph name="edotaccent" xMin="28" yMin="-10" xMax="452" yMax="679">
      <component glyphName="e" x="0" y="0" flags="0x204"/>
      <component glyphName="dotaccent" x="139" y="0" flags="0x4"/>
    </TTGlyph>
    <TTGlyph name="egrave" xMin="28" yMin="-10" xMax="452" yMax="739">
      <component glyphName="e" x="0" y="0" flags="0x204"/>
      <component glyphName="grave" x="62" y="0" flags="0x4"/>
    </TTGlyph>
    <TTGlyph name="eight" xMin="27" yMin="-16" xMax="543" yMax="650">
      <contour>
        <pt x="249" y="-16" on="1"/>
        <pt x="196" y="-16" on="0"/>
        <pt x="113" y="10" on="0"/>
        <pt x="57" y="54" on="0"/>
        <pt x="27" y="114" on="0"/>
        <pt x="27" y="147" on="1"/>
        <pt x="27" y="207" on="0"/>
        <pt x="116" y="295" on="0"/>
        <pt x="191" y="310" on="1"/>
        <pt x="155" y="333" on="0"/>
        <pt x="108" y="401" on="0"/>
        <pt x="108" y="450" on="1"/>
        <pt x="108" y="486" on="0"/>
        <pt x="139" y="558" on="0"/>
        <pt x="198" y="615" on="0"/>
        <pt x="284" y="650" on="0"/>
        <pt x="340" y="650" on="1"/>
        <pt x="389" y="650" on="0"/>
        <pt x="465" y="624" on="0"/>
        <pt x="516" y="582" on="0"/>
        <pt x="543" y="525" on="0"/>
        <pt x="543" y="494" on="1"/>
        <pt x="543" y="438" on="0"/>
        <pt x="464" y="354" on="0"/>
        <pt x="396" y="338" on="1"/>
        <pt x="436" y="315" on="0"/>
        <pt x="493" y="245" on="0"/>
        <pt x="493" y="188" on="1"/>
        <pt x="493" y="148" on="0"/>
        <pt x="460" y="74" on="0"/>
        <pt x="398" y="18" on="0"/>
        <pt x="307" y="-16" on="0"/>
      </contour>
      <contour>
        <pt x="225" y="491" on="1"/>
        <pt x="225" y="442" on="0"/>
        <pt x="302" y="387" on="0"/>
        <pt x="356" y="361" on="1"/>
        <pt x="401" y="384" on="0"/>
        <pt x="445" y="456" on="0"/>
        <pt x="445" y="493" on="1"/>
        <pt x="445" y="533" on="0"/>
        <pt x="393" y="588" on="0"/>
        <pt x="339" y="588" on="1"/>
        <pt x="285" y="588" on="0"/>
        <pt x="225" y="528" on="0"/>
      </contour>
      <contour>
        <pt x="131" y="153" on="1"/>
        <pt x="131" y="110" on="0"/>
        <pt x="191" y="47" on="0"/>
        <pt x="254" y="47" on="1"/>
        <pt x="314" y="47" on="0"/>
        <pt x="378" y="109" on="0"/>
        <pt x="378" y="151" on="1"/>
        <pt x="378" y="194" on="0"/>
        <pt x="304" y="251" on="0"/>
        <pt x="231" y="286" on="1"/>
        <pt x="185" y="266" on="0"/>
        <pt x="131" y="196" on="0"/>
      </contour>
    </TTGlyph>
    <TTGlyph name="eight.den" xMin="20" yMin="-82" xMax="389" yMax="400">
      <component glyphName="eight.small" x="-17" y="-70" flags="0x4"/>
    </TTGlyph>
    <TTGlyph name="eight.inf" xMin="-10" yMin="-202" xMax="359" yMax="280">
      <component glyphName="eight.small" x="-47" y="-190" flags="0x4"/>
    </TTGlyph>
    <TTGlyph name="eight.num" xMin="79" yMin="158" xMax="448" yMax="640">
      <component glyphName="eight.small" x="42" y="170" flags="0x4"/>
    </TTGlyph>
    <TTGlyph name="eight.osf" xMin="28" yMin="-16" xMax="533" yMax="640">
      <contour>
        <pt x="249" y="-16" on="1"/>
        <pt x="143" y="-16" on="0"/>
        <pt x="28" y="79" on="0"/>
        <pt x="28" y="145" on="1"/>
        <pt x="28" y="205" on="0"/>
        <pt x="114" y="291" on="0"/>
        <pt x="189" y="305" on="1"/>
        <pt x="155" y="326" on="0"/>
        <pt x="106" y="392" on="0"/>
        <pt x="106" y="443" on="1"/>
        <pt x="106" y="479" on="0"/>
        <pt x="136" y="550" on="0"/>
        <pt x="194" y="605" on="0"/>
        <pt x="280" y="640" on="0"/>
        <pt x="334" y="640" on="1"/>
        <pt x="382" y="640" on="0"/>
        <pt x="456" y="615" on="0"/>
        <pt x="507" y="573" on="0"/>
        <pt x="533" y="518" on="0"/>
        <pt x="533" y="487" on="1"/>
        <pt x="533" y="432" on="0"/>
        <pt x="459" y="350" on="0"/>
        <pt x="394" y="333" on="1"/>
        <pt x="434" y="311" on="0"/>
        <pt x="491" y="242" on="0"/>
        <pt x="491" y="185" on="1"/>
        <pt x="491" y="145" on="0"/>
        <pt x="458" y="72" on="0"/>
        <pt x="396" y="17" on="0"/>
        <pt x="306" y="-16" on="0"/>
      </contour>
      <contour>
        <pt x="222" y="482" on="1"/>
        <pt x="222" y="442" on="0"/>
        <pt x="286" y="389" on="0"/>
        <pt x="353" y="357" on="1"/>
        <pt x="396" y="379" on="0"/>
        <pt x="435" y="448" on="0"/>
        <pt x="435" y="485" on="1"/>
        <pt x="435" y="523" on="0"/>
        <pt x="384" y="579" on="0"/>
        <pt x="333" y="579" on="1"/>
        <pt x="282" y="579" on="0"/>
        <pt x="222" y="519" on="0"/>
      </contour>
      <contour>
        <pt x="132" y="152" on="1"/>
        <pt x="132" y="110" on="0"/>
        <pt x="192" y="47" on="0"/>
        <pt x="253" y="47" on="1"/>
        <pt x="311" y="47" on="0"/>
        <pt x="375" y="108" on="0"/>
        <pt x="375" y="150" on="1"/>
        <pt x="375" y="190" on="0"/>
        <pt x="304" y="245" on="0"/>
        <pt x="229" y="281" on="1"/>
        <pt x="183" y="261" on="0"/>
        <pt x="132" y="195" on="0"/>
      </contour>
    </TTGlyph>
    <TTGlyph name="eight.small" xMin="37" yMin="-12" xMax="406" yMax="470">
      <contour>
        <pt x="194" y="-12" on="1"/>
        <pt x="119" y="-12" on="0"/>
        <pt x="37" y="55" on="0"/>
        <pt x="37" y="103" on="1"/>
        <pt x="37" y="149" on="0"/>
        <pt x="103" y="210" on="0"/>
        <pt x="158" y="220" on="1"/>
        <pt x="134" y="234" on="0"/>
        <pt x="93" y="284" on="0"/>
        <pt x="93" y="324" on="1"/>
        <pt x="93" y="351" on="0"/>
        <pt x="116" y="404" on="0"/>
        <pt x="159" y="445" on="0"/>
        <pt x="221" y="470" on="0"/>
        <pt x="261" y="470" on="1"/>
        <pt x="331" y="470" on="0"/>
        <pt x="406" y="401" on="0"/>
        <pt x="406" y="358" on="1"/>
        <pt x="406" y="315" on="0"/>
        <pt x="344" y="255" on="0"/>
        <pt x="295" y="245" on="1"/>
        <pt x="325" y="228" on="0"/>
        <pt x="369" y="178" on="0"/>
        <pt x="369" y="135" on="1"/>
        <pt x="369" y="106" on="0"/>
        <pt x="345" y="52" on="0"/>
        <pt x="300" y="12" on="0"/>
        <pt x="235" y="-12" on="0"/>
      </contour>
      <contour>
        <pt x="187" y="355" on="1"/>
        <pt x="187" y="322" on="0"/>
        <pt x="231" y="283" on="0"/>
        <pt x="269" y="264" on="1"/>
        <pt x="298" y="281" on="0"/>
        <pt x="327" y="332" on="0"/>
        <pt x="327" y="357" on="1"/>
        <pt x="328" y="383" on="0"/>
        <pt x="295" y="423" on="0"/>
        <pt x="261" y="423" on="1"/>
        <pt x="227" y="423" on="0"/>
        <pt x="187" y="382" on="0"/>
      </contour>
      <contour>
        <pt x="117" y="108" on="1"/>
        <pt x="117" y="79" on="0"/>
        <pt x="155" y="36" on="0"/>
        <pt x="195" y="36" on="1"/>
        <pt x="232" y="36" on="0"/>
        <pt x="275" y="77" on="0"/>
        <pt x="275" y="107" on="1"/>
        <pt x="275" y="139" on="0"/>
        <pt x="226" y="181" on="0"/>
        <pt x="185" y="203" on="1"/>
        <pt x="154" y="187" on="0"/>
        <pt x="117" y="138" on="0"/>
      </contour>
    </TTGlyph>
    <TTGlyph name="eight.sup" xMin="98" yMin="233" xMax="467" yMax="715">
      <component glyphName="eight.small" x="61" y="245" flags="0x4"/>
    </TTGlyph>
    <TTGlyph name="eight.tab" xMin="40" yMin="-16" xMax="537" yMax="650">
      <contour>
        <pt x="251" y="-16" on="1"/>
        <pt x="201" y="-16" on="0"/>
        <pt x="122" y="10" on="0"/>
        <pt x="68" y="54" on="0"/>
        <pt x="40" y="114" on="0"/>
        <pt x="40" y="147" on="1"/>
        <pt x="40" y="207" on="0"/>
        <pt x="126" y="295" on="0"/>
        <pt x="201" y="310" on="1"/>
        <pt x="168" y="332" on="0"/>
        <pt x="120" y="400" on="0"/>
        <pt x="120" y="451" on="1"/>
        <pt x="120" y="487" on="0"/>
        <pt x="150" y="558" on="0"/>
        <pt x="206" y="615" on="0"/>
        <pt x="290" y="650" on="0"/>
        <pt x="344" y="650" on="1"/>
        <pt x="390" y="650" on="0"/>
        <pt x="462" y="624" on="0"/>
        <pt x="511" y="582" on="0"/>
        <pt x="537" y="525" on="0"/>
        <pt x="537" y="494" on="1"/>
        <pt x="537" y="438" on="0"/>
        <pt x="459" y="354" on="0"/>
        <pt x="392" y="338" on="1"/>
        <pt x="430" y="315" on="0"/>
        <pt x="486" y="244" on="0"/>
        <pt x="486" y="187" on="1"/>
        <pt x="486" y="148" on="0"/>
        <pt x="454" y="74" on="0"/>
        <pt x="394" y="18" on="0"/>
        <pt x="307" y="-16" on="0"/>
      </contour>
      <contour>
        <pt x="236" y="490" on="1"/>
        <pt x="236" y="447" on="0"/>
        <pt x="293" y="393" on="0"/>
        <pt x="354" y="362" on="1"/>
        <pt x="398" y="385" on="0"/>
        <pt x="440" y="457" on="0"/>
        <pt x="440" y="495" on="1"/>
        <pt x="440" y="533" on="0"/>
        <pt x="392" y="588" on="0"/>
        <pt x="343" y="588" on="1"/>
        <pt x="293" y="588" on="0"/>
        <pt x="236" y="528" on="0"/>
      </contour>
      <contour>
        <pt x="142" y="152" on="1"/>
        <pt x="142" y="110" on="0"/>
        <pt x="198" y="47" on="0"/>
        <pt x="255" y="47" on="1"/>
        <pt x="311" y="47" on="0"/>
        <pt x="371" y="109" on="0"/>
        <pt x="371" y="151" on="1"/>
        <pt x="371" y="192" on="0"/>
        <pt x="309" y="248" on="0"/>
        <pt x="239" y="285" on="1"/>
        <pt x="195" y="264" on="0"/>
        <pt x="142" y="195" on="0"/>
      </contour>
    </TTGlyph>
    <TTGlyph name="ellipsis" xMin="10" yMin="-16" xMax="622" yMax="139">
      <component glyphName="period" x="0" y="0" flags="0x4"/>
      <component glyphName="period" x="234" y="0" flags="0x4"/>
      <component glyphName="period" x="468" y="0" flags="0x4"/>
    </TTGlyph>
    <TTGlyph name="emacron" xMin="28" yMin="-10" xMax="480" yMax="630">
      <component glyphName="e" x="0" y="0" flags="0x204"/>
      <component glyphName="macron" x="70" y="0" flags="0x4"/>
    </TTGlyph>
    <TTGlyph name="emdash" xMin="47" yMin="209" xMax="748" yMax="287">
      <contour>
        <pt x="47" y="209" on="1"/>
        <pt x="67" y="287" on="1"/>
        <pt x="748" y="287" on="1"/>
        <pt x="729" y="209" on="1"/>
      </contour>
    </TTGlyph>
    <TTGlyph name="endash" xMin="47" yMin="209" xMax="498" yMax="287">
      <contour>
        <pt x="47" y="209" on="1"/>
        <pt x="67" y="287" on="1"/>
        <pt x="498" y="287" on="1"/>
        <pt x="479" y="209" on="1"/>
      </contour>
    </TTGlyph>
    <TTGlyph name="endash.tab" xMin="66" yMin="278" xMax="517" yMax="357">
      <contour>
        <pt x="66" y="278" on="1"/>
        <pt x="85" y="357" on="1"/>
        <pt x="517" y="357" on="1"/>
        <pt x="498" y="278" on="1"/>
      </contour>
    </TTGlyph>
    <TTGlyph name="eogonek" xMin="28" yMin="-246" xMax="452" yMax="471">
      <contour>
        <pt x="199" y="-246" on="1"/>
        <pt x="151" y="-246" on="0"/>
        <pt x="87" y="-200" on="0"/>
        <pt x="87" y="-156" on="1"/>
        <pt x="87" y="-120" on="0"/>
        <pt x="141" y="-54" on="0"/>
        <pt x="210" y="-10" on="1"/>
        <pt x="209" y="-10" on="0"/>
        <pt x="204" y="-10" on="0"/>
        <pt x="203" y="-10" on="1"/>
        <pt x="126" y="-10" on="0"/>
        <pt x="28" y="90" on="0"/>
        <pt x="28" y="172" on="1"/>
        <pt x="28" y="229" on="0"/>
        <pt x="75" y="338" on="0"/>
        <pt x="154" y="421" on="0"/>
        <pt x="259" y="471" on="0"/>
        <pt x="318" y="471" on="1"/>
        <pt x="382" y="471" on="0"/>
        <pt x="452" y="413" on="0"/>
        <pt x="452" y="367" on="1"/>
        <pt x="452" y="301" on="0"/>
        <pt x="305" y="197" on="0"/>
        <pt x="148" y="188" on="1"/>
        <pt x="147" y="182" on="0"/>
        <pt x="147" y="170" on="0"/>
        <pt x="147" y="165" on="1"/>
        <pt x="147" y="103" on="0"/>
        <pt x="203" y="56" on="0"/>
        <pt x="240" y="56" on="1"/>
        <pt x="277" y="56" on="0"/>
        <pt x="349" y="104" on="0"/>
        <pt x="380" y="148" on="1"/>
        <pt x="422" y="118" on="1"/>
        <pt x="402" y="90" on="0"/>
        <pt x="366" y="50" on="0"/>
        <pt x="337" y="28" on="1"/>
        <pt x="295" y="-3" on="1"/>
        <pt x="223" y="-58" on="0"/>
        <pt x="179" y="-117" on="0"/>
        <pt x="179" y="-141" on="1"/>
        <pt x="179" y="-157" on="0"/>
        <pt x="202" y="-185" on="0"/>
        <pt x="230" y="-185" on="1"/>
        <pt x="245" y="-185" on="0"/>
        <pt x="275" y="-174" on="0"/>
        <pt x="290" y="-165" on="1"/>
        <pt x="310" y="-209" on="1"/>
        <pt x="287" y="-225" on="0"/>
        <pt x="230" y="-246" on="0"/>
      </contour>
      <contour>
        <pt x="301" y="416" on="1"/>
        <pt x="275" y="416" on="0"/>
        <pt x="229" y="384" on="0"/>
        <pt x="193" y="332" on="0"/>
        <pt x="165" y="268" on="0"/>
        <pt x="157" y="236" on="1"/>
        <pt x="261" y="246" on="0"/>
        <pt x="347" y="320" on="0"/>
        <pt x="347" y="366" on="1"/>
        <pt x="347" y="387" on="0"/>
        <pt x="323" y="416" on="0"/>
      </contour>
    </TTGlyph>
    <TTGlyph name="equal" xMin="42" yMin="184" xMax="526" yMax="450">
      <contour>
        <pt x="90" y="377" on="1"/>
        <pt x="109" y="450" on="1"/>
        <pt x="526" y="450" on="1"/>
        <pt x="507" y="377" on="1"/>
      </contour>
      <contour>
        <pt x="42" y="184" on="1"/>
        <pt x="61" y="257" on="1"/>
        <pt x="478" y="257" on="1"/>
        <pt x="459" y="184" on="1"/>
      </contour>
    </TTGlyph>
    <TTGlyph name="equal.osf" xMin="33" yMin="150" xMax="517" yMax="415">
      <contour>
        <pt x="81" y="343" on="1"/>
        <pt x="100" y="415" on="1"/>
        <pt x="517" y="415" on="1"/>
        <pt x="498" y="343" on="1"/>
      </contour>
      <contour>
        <pt x="33" y="150" on="1"/>
        <pt x="52" y="222" on="1"/>
        <pt x="469" y="222" on="1"/>
        <pt x="450" y="150" on="1"/>
      </contour>
    </TTGlyph>
    <TTGlyph name="equal.tab" xMin="49" yMin="184" xMax="533" yMax="450">
      <contour>
        <pt x="97" y="377" on="1"/>
        <pt x="116" y="450" on="1"/>
        <pt x="533" y="450" on="1"/>
        <pt x="514" y="377" on="1"/>
      </contour>
      <contour>
        <pt x="49" y="184" on="1"/>
        <pt x="68" y="257" on="1"/>
        <pt x="485" y="257" on="1"/>
        <pt x="466" y="184" on="1"/>
      </contour>
    </TTGlyph>
    <TTGlyph name="eth" xMin="27" yMin="-10" xMax="537" yMax="695">
      <contour>
        <pt x="217" y="-10" on="1"/>
        <pt x="133" y="-10" on="0"/>
        <pt x="27" y="98" on="0"/>
        <pt x="27" y="184" on="1"/>
        <pt x="27" y="243" on="0"/>
        <pt x="70" y="344" on="0"/>
        <pt x="138" y="417" on="0"/>
        <pt x="226" y="459" on="0"/>
        <pt x="271" y="459" on="1"/>
        <pt x="316" y="459" on="0"/>
        <pt x="373" y="427" on="0"/>
        <pt x="386" y="403" on="1"/>
        <pt x="385" y="437" on="0"/>
        <pt x="368" y="511" on="0"/>
        <pt x="352" y="549" on="1"/>
        <pt x="233" y="509" on="1"/>
        <pt x="214" y="564" on="1"/>
        <pt x="328" y="602" on="1"/>
        <pt x="319" y="619" on="0"/>
        <pt x="298" y="655" on="0"/>
        <pt x="287" y="673" on="1"/>
        <pt x="366" y="695" on="1"/>
        <pt x="379" y="679" on="0"/>
        <pt x="402" y="646" on="0"/>
        <pt x="412" y="630" on="1"/>
        <pt x="519" y="666" on="1"/>
        <pt x="537" y="611" on="1"/>
        <pt x="442" y="579" on="1"/>
        <pt x="467" y="528" on="0"/>
        <pt x="494" y="413" on="0"/>
        <pt x="494" y="347" on="1"/>
        <pt x="494" y="271" on="0"/>
        <pt x="454" y="140" on="0"/>
        <pt x="381" y="44" on="0"/>
        <pt x="279" y="-10" on="0"/>
      </contour>
      <contour>
        <pt x="216" y="46" on="1"/>
        <pt x="251" y="46" on="0"/>
        <pt x="307" y="102" on="0"/>
        <pt x="344" y="182" on="0"/>
        <pt x="364" y="274" on="0"/>
        <pt x="364" y="309" on="1"/>
        <pt x="364" y="356" on="0"/>
        <pt x="323" y="396" on="0"/>
        <pt x="290" y="396" on="1"/>
        <pt x="255" y="396" on="0"/>
        <pt x="201" y="342" on="0"/>
        <pt x="165" y="264" on="0"/>
        <pt x="146" y="174" on="0"/>
        <pt x="146" y="137" on="1"/>
        <pt x="146" y="89" on="0"/>
        <pt x="184" y="46" on="0"/>
      </contour>
    </TTGlyph>
    <TTGlyph name="exclam" xMin="33" yMin="-16" xMax="314" yMax="684">
      <contour>
        <pt x="161" y="184" on="1"/>
        <pt x="107" y="195" on="1"/>
        <pt x="127" y="305" on="0"/>
        <pt x="148" y="507" on="0"/>
        <pt x="161" y="584" on="1"/>
        <pt x="168" y="628" on="0"/>
        <pt x="202" y="684" on="0"/>
        <pt x="242" y="684" on="1"/>
        <pt x="274" y="684" on="0"/>
        <pt x="314" y="648" on="0"/>
        <pt x="314" y="618" on="1"/>
        <pt x="314" y="593" on="0"/>
        <pt x="286" y="518" on="0"/>
        <pt x="255" y="434" on="1"/>
        <pt x="231" y="373" on="0"/>
        <pt x="186" y="255" on="0"/>
      </contour>
      <contour>
        <pt x="101" y="-16" on="1"/>
        <pt x="73" y="-16" on="0"/>
        <pt x="33" y="21" on="0"/>
        <pt x="33" y="52" on="1"/>
        <pt x="33" y="79" on="0"/>
        <pt x="73" y="130" on="0"/>
        <pt x="108" y="130" on="1"/>
        <pt x="136" y="130" on="0"/>
        <pt x="176" y="94" on="0"/>
        <pt x="176" y="63" on="1"/>
        <pt x="176" y="35" on="0"/>
        <pt x="136" y="-16" on="0"/>
      </contour>
    </TTGlyph>
    <TTGlyph name="exclamdown" xMin="29" yMin="-16" xMax="310" yMax="684">
      <contour>
        <pt x="242" y="684" on="1"/>
        <pt x="270" y="684" on="0"/>
        <pt x="310" y="647" on="0"/>
        <pt x="310" y="616" on="1"/>
        <pt x="310" y="589" on="0"/>
        <pt x="270" y="538" on="0"/>
        <pt x="235" y="538" on="1"/>
        <pt x="207" y="538" on="0"/>
        <pt x="167" y="574" on="0"/>
        <pt x="167" y="605" on="1"/>
        <pt x="167" y="633" on="0"/>
        <pt x="207" y="684" on="0"/>
      </contour>
      <contour>
        <pt x="182" y="484" on="1"/>
        <pt x="236" y="473" on="1"/>
        <pt x="216" y="363" on="0"/>
        <pt x="195" y="161" on="0"/>
        <pt x="182" y="84" on="1"/>
        <pt x="175" y="40" on="0"/>
        <pt x="141" y="-16" on="0"/>
        <pt x="101" y="-16" on="1"/>
        <pt x="69" y="-16" on="0"/>
        <pt x="29" y="20" on="0"/>
        <pt x="29" y="50" on="1"/>
        <pt x="29" y="75" on="0"/>
        <pt x="57" y="150" on="0"/>
        <pt x="88" y="234" on="1"/>
        <pt x="112" y="295" on="0"/>
        <pt x="157" y="413" on="0"/>
      </contour>
    </TTGlyph>
    <TTGlyph name="f" xMin="-119" yMin="-170" xMax="510" yMax="694">
      <contour>
        <pt x="-28" y="-170" on="1"/>
        <pt x="-74" y="-170" on="0"/>
        <pt x="-119" y="-128" on="0"/>
        <pt x="-119" y="-97" on="1"/>
        <pt x="-119" y="-71" on="0"/>
        <pt x="-83" y="-28" on="0"/>
        <pt x="-54" y="-28" on="1"/>
        <pt x="-28" y="-28" on="0"/>
        <pt x="-2" y="-59" on="0"/>
        <pt x="-2" y="-78" on="1"/>
        <pt x="-2" y="-94" on="0"/>
        <pt x="-11" y="-117" on="0"/>
        <pt x="-18" y="-124" on="1"/>
        <pt x="-5" y="-124" on="0"/>
        <pt x="14" y="-115" on="0"/>
        <pt x="32" y="-85" on="0"/>
        <pt x="48" y="-29" on="0"/>
        <pt x="58" y="17" on="1"/>
        <pt x="135" y="389" on="1"/>
        <pt x="43" y="389" on="1"/>
        <pt x="59" y="455" on="1"/>
        <pt x="148" y="455" on="1"/>
        <pt x="175" y="571" on="0"/>
        <pt x="298" y="694" on="0"/>
        <pt x="385" y="694" on="1"/>
        <pt x="448" y="694" on="0"/>
        <pt x="510" y="638" on="0"/>
        <pt x="510" y="603" on="1"/>
        <pt x="510" y="570" on="0"/>
        <pt x="469" y="519" on="0"/>
        <pt x="438" y="519" on="1"/>
        <pt x="413" y="519" on="0"/>
        <pt x="380" y="548" on="0"/>
        <pt x="380" y="574" on="1"/>
        <pt x="380" y="590" on="0"/>
        <pt x="395" y="625" on="0"/>
        <pt x="408" y="636" on="1"/>
        <pt x="404" y="639" on="0"/>
        <pt x="389" y="643" on="0"/>
        <pt x="381" y="643" on="1"/>
        <pt x="334" y="643" on="0"/>
        <pt x="288" y="570" on="0"/>
        <pt x="273" y="498" on="1"/>
        <pt x="264" y="455" on="1"/>
        <pt x="396" y="455" on="1"/>
        <pt x="379" y="389" on="1"/>
        <pt x="250" y="389" on="1"/>
        <pt x="184" y="80" on="1"/>
        <pt x="156" y="-54" on="0"/>
        <pt x="39" y="-170" on="0"/>
      </contour>
    </TTGlyph>
    <TTGlyph name="f_b" xMin="-119" yMin="-170" xMax="789" yMax="694">
      <contour>
        <pt x="-28" y="-170" on="1"/>
        <pt x="-74" y="-170" on="0"/>
        <pt x="-119" y="-128" on="0"/>
        <pt x="-119" y="-97" on="1"/>
        <pt x="-119" y="-71" on="0"/>
        <pt x="-83" y="-28" on="0"/>
        <pt x="-54" y="-28" on="1"/>
        <pt x="-28" y="-28" on="0"/>
        <pt x="-2" y="-59" on="0"/>
        <pt x="-2" y="-78" on="1"/>
        <pt x="-2" y="-94" on="0"/>
        <pt x="-11" y="-117" on="0"/>
        <pt x="-18" y="-124" on="1"/>
        <pt x="-5" y="-124" on="0"/>
        <pt x="14" y="-115" on="0"/>
        <pt x="32" y="-85" on="0"/>
        <pt x="48" y="-29" on="0"/>
        <pt x="58" y="17" on="1"/>
        <pt x="135" y="389" on="1"/>
        <pt x="43" y="389" on="1"/>
        <pt x="59" y="455" on="1"/>
        <pt x="148" y="455" on="1"/>
        <pt x="159" y="505" on="0"/>
        <pt x="201" y="593" on="0"/>
        <pt x="262" y="657" on="0"/>
        <pt x="343" y="694" on="0"/>
        <pt x="392" y="694" on="1"/>
        <pt x="418" y="694" on="0"/>
        <pt x="460" y="685" on="0"/>
        <pt x="476" y="678" on="1"/>
        <pt x="597" y="694" on="1"/>
        <pt x="496" y="356" on="1"/>
        <pt x="503" y="353" on="1"/>
        <pt x="534" y="410" on="0"/>
        <pt x="617" y="471" on="0"/>
        <pt x="660" y="471" on="1"/>
        <pt x="723" y="471" on="0"/>
        <pt x="789" y="377" on="0"/>
        <pt x="789" y="310" on="1"/>
        <pt x="789" y="247" on="0"/>
        <pt x="743" y="130" on="0"/>
        <pt x="667" y="42" on="0"/>
        <pt x="566" y="-10" on="0"/>
        <pt x="512" y="-10" on="1"/>
        <pt x="429" y="-10" on="0"/>
        <pt x="348" y="80" on="0"/>
        <pt x="348" y="149" on="1"/>
        <pt x="348" y="179" on="0"/>
        <pt x="366" y="266" on="0"/>
        <pt x="379" y="312" on="1"/>
        <pt x="400" y="389" on="1"/>
        <pt x="250" y="389" on="1"/>
        <pt x="184" y="80" on="1"/>
        <pt x="156" y="-54" on="0"/>
        <pt x="39" y="-170" on="0"/>
      </contour>
      <contour>
        <pt x="268" y="476" on="1"/>
        <pt x="264" y="455" on="1"/>
        <pt x="418" y="455" on="1"/>
        <pt x="437" y="523" on="1"/>
        <pt x="421" y="528" on="0"/>
        <pt x="403" y="555" on="0"/>
        <pt x="403" y="574" on="1"/>
        <pt x="403" y="590" on="0"/>
        <pt x="417" y="621" on="0"/>
        <pt x="428" y="632" on="1"/>
        <pt x="424" y="636" on="0"/>
        <pt x="403" y="643" on="0"/>
        <pt x="389" y="643" on="1"/>
        <pt x="336" y="643" on="0"/>
        <pt x="286" y="560" on="0"/>
      </contour>
      <contour>
        <pt x="525" y="55" on="1"/>
        <pt x="559" y="55" on="0"/>
        <pt x="614" y="112" on="0"/>
        <pt x="650" y="191" on="0"/>
        <pt x="670" y="278" on="0"/>
        <pt x="670" y="307" on="1"/>
        <pt x="670" y="349" on="0"/>
        <pt x="643" y="393" on="0"/>
        <pt x="615" y="393" on="1"/>
        <pt x="585" y="393" on="0"/>
        <pt x="530" y="341" on="0"/>
        <pt x="488" y="264" on="0"/>
        <pt x="463" y="176" on="0"/>
        <pt x="463" y="141" on="1"/>
        <pt x="463" y="96" on="0"/>
        <pt x="495" y="55" on="0"/>
      </contour>
    </TTGlyph>
    <TTGlyph name="f_f" xMin="-119" yMin="-170" xMax="799" yMax="694">
      <contour>
        <pt x="-28" y="-170" on="1"/>
        <pt x="-74" y="-170" on="0"/>
        <pt x="-119" y="-128" on="0"/>
        <pt x="-119" y="-97" on="1"/>
        <pt x="-119" y="-71" on="0"/>
        <pt x="-83" y="-28" on="0"/>
        <pt x="-54" y="-28" on="1"/>
        <pt x="-28" y="-28" on="0"/>
        <pt x="-2" y="-59" on="0"/>
        <pt x="-2" y="-78" on="1"/>
        <pt x="-2" y="-94" on="0"/>
        <pt x="-11" y="-117" on="0"/>
        <pt x="-18" y="-124" on="1"/>
        <pt x="-5" y="-124" on="0"/>
        <pt x="14" y="-115" on="0"/>
        <pt x="32" y="-85" on="0"/>
        <pt x="48" y="-29" on="0"/>
        <pt x="58" y="17" on="1"/>
        <pt x="135" y="389" on="1"/>
        <pt x="43" y="389" on="1"/>
        <pt x="59" y="455" on="1"/>
        <pt x="148" y="455" on="1"/>
        <pt x="175" y="573" on="0"/>
        <pt x="306" y="693" on="0"/>
        <pt x="393" y="693" on="1"/>
        <pt x="448" y="693" on="0"/>
        <pt x="513" y="657" on="0"/>
        <pt x="525" y="632" on="1"/>
        <pt x="553" y="661" on="0"/>
        <pt x="629" y="694" on="0"/>
        <pt x="675" y="694" on="1"/>
        <pt x="738" y="694" on="0"/>
        <pt x="799" y="638" on="0"/>
        <pt x="799" y="603" on="1"/>
        <pt x="799" y="570" on="0"/>
        <pt x="759" y="519" on="0"/>
        <pt x="727" y="519" on="1"/>
        <pt x="702" y="519" on="0"/>
        <pt x="670" y="548" on="0"/>
        <pt x="670" y="574" on="1"/>
        <pt x="670" y="590" on="0"/>
        <pt x="685" y="625" on="0"/>
        <pt x="698" y="636" on="1"/>
        <pt x="694" y="639" on="0"/>
        <pt x="679" y="643" on="0"/>
        <pt x="671" y="643" on="1"/>
        <pt x="623" y="643" on="0"/>
        <pt x="578" y="570" on="0"/>
        <pt x="562" y="498" on="1"/>
        <pt x="553" y="455" on="1"/>
        <pt x="686" y="455" on="1"/>
        <pt x="669" y="389" on="1"/>
        <pt x="539" y="389" on="1"/>
        <pt x="474" y="80" on="1"/>
        <pt x="446" y="-52" on="0"/>
        <pt x="330" y="-170" on="0"/>
        <pt x="260" y="-170" on="1"/>
        <pt x="214" y="-170" on="0"/>
        <pt x="168" y="-128" on="0"/>
        <pt x="168" y="-97" on="1"/>
        <pt x="168" y="-71" on="0"/>
        <pt x="203" y="-28" on="0"/>
        <pt x="233" y="-28" on="1"/>
        <pt x="259" y="-28" on="0"/>
        <pt x="285" y="-59" on="0"/>
        <pt x="285" y="-78" on="1"/>
        <pt x="285" y="-94" on="0"/>
        <pt x="277" y="-117" on="0"/>
        <pt x="270" y="-123" on="1"/>
        <pt x="283" y="-123" on="0"/>
        <pt x="303" y="-114" on="0"/>
        <pt x="321" y="-85" on="0"/>
        <pt x="338" y="-29" on="0"/>
        <pt x="348" y="18" on="1"/>
        <pt x="425" y="389" on="1"/>
        <pt x="250" y="389" on="1"/>
        <pt x="184" y="80" on="1"/>
        <pt x="156" y="-54" on="0"/>
        <pt x="39" y="-170" on="0"/>
      </contour>
      <contour>
        <pt x="268" y="474" on="1"/>
        <pt x="264" y="455" on="1"/>
        <pt x="438" y="455" on="1"/>
        <pt x="442" y="471" on="0"/>
        <pt x="451" y="503" on="0"/>
        <pt x="456" y="518" on="1"/>
        <pt x="434" y="520" on="0"/>
        <pt x="406" y="548" on="0"/>
        <pt x="406" y="573" on="1"/>
        <pt x="406" y="588" on="0"/>
        <pt x="419" y="620" on="0"/>
        <pt x="430" y="631" on="1"/>
        <pt x="426" y="635" on="0"/>
        <pt x="404" y="641" on="0"/>
        <pt x="390" y="641" on="1"/>
        <pt x="336" y="641" on="0"/>
        <pt x="285" y="558" on="0"/>
      </contour>
    </TTGlyph>
</ttFont>
